SplineFontDB: 3.0
FontName: Auvaiyar-Italic
FullName: Auvaiyar Italic
FamilyName: Auvaiyar
Weight: Book
Copyright: Copyright (c) 1995-2015, NLCI (http://www.nlci.in/fonts/) Derived from TAM Auvaiyar Italic by ttfbuilder v0.33
Version: 1.0 Wed Feb 01 17:22:17 1995
ItalicAngle: 12
UnderlinePosition: -310
UnderlineWidth: 20
Ascent: 800
Descent: 200
InvalidEm: 0
sfntRevision: 0x00010000
LayerCount: 2
Layer: 0 1 "Back" 1
Layer: 1 1 "Fore" 0
XUID: [1021 678 -334570143 14104904]
StyleMap: 0x0041
FSType: 0
OS2Version: 1
OS2_WeightWidthSlopeOnly: 0
OS2_UseTypoMetrics: 0
CreationTime: 1534550734
ModificationTime: 1534550771
PfmFamily: 17
TTFWeight: 400
TTFWidth: 5
LineGap: 0
VLineGap: 0
Panose: 2 0 0 3 0 0 0 0 0 0
OS2TypoAscent: 750
OS2TypoAOffset: 0
OS2TypoDescent: -329
OS2TypoDOffset: 0
OS2TypoLinegap: 0
OS2WinAscent: 750
OS2WinAOffset: 0
OS2WinDescent: 329
OS2WinDOffset: 0
HheadAscent: 750
HheadAOffset: 0
HheadDescent: -329
HheadDOffset: 0
OS2SubXSize: 700
OS2SubYSize: 650
OS2SubXOff: 0
OS2SubYOff: 143
OS2SupXSize: 700
OS2SupYSize: 650
OS2SupXOff: 0
OS2SupYOff: 453
OS2StrikeYSize: 50
OS2StrikeYPos: 259
OS2Vendor: 'Phsc'
OS2CodePages: 20000001.00000000
OS2UnicodeRanges: a01080ff.520021cb.08000028.00000000
Lookup: 260 0 0 "_holdAnchorsbase" { "_someAnchorsbase"  } []
DEI: 91125
ShortTable: maxp 16
  1
  0
  339
  273
  12
  362
  16
  1
  0
  0
  0
  0
  142
  0
  3
  2
EndShort

StartChar: .notdef
Encoding: 0 -1 0
Width: 500
Flags: W
LayerCount: 2
Fore
SplineSet
31 0 m 1,0,-1
 31 750 l 1,1,-1
 469 750 l 1,2,-1
 469 0 l 1,3,-1
 31 0 l 1,0,-1
438 31 m 1,4,-1
 438 719 l 1,5,-1
 62 719 l 1,6,-1
 62 31 l 1,7,-1
 438 31 l 1,4,-1
EndSplineSet
EndChar

StartChar: exclam
Encoding: 4 33 4
Width: 337
VWidth: 488
Flags: W
LayerCount: 2
Fore
SplineSet
296.875 631.8359375 m 0,0,1
 268.5546875 521.484375 268.5546875 521.484375 244.62890625 427.24609375 c 0,2,3
 234.375 387.20703125 234.375 387.20703125 224.12109375 346.923828125 c 0,4,5
 213.8671875 306.640625 213.8671875 306.640625 205.078125 271.484375 c 0,6,7
 196.2890625 236.328125 196.2890625 236.328125 189.453125 209.228515625 c 0,8,9
 182.6171875 182.12890625 182.6171875 182.12890625 179.19921875 168.9453125 c 0,10,-1
 116.2109375 168.9453125 l 0,11,-1
 166.9921875 601.07421875 l 0,12,13
 169.43359375 620.1171875 169.43359375 620.1171875 174.560546875 635.25390625 c 0,14,15
 179.6875 650.390625 179.6875 650.390625 188.96484375 661.1328125 c 0,16,17
 198.2421875 671.875 198.2421875 671.875 212.40234375 677.490234375 c 0,18,19
 226.5625 683.10546875 226.5625 683.10546875 247.0703125 683.10546875 c 0,20,21
 296.875 683.10546875 296.875 683.10546875 296.875 631.8359375 c 0,0,1
195.80078125 48.828125 m 0,22,23
 195.80078125 24.90234375 195.80078125 24.90234375 177.978515625 8.056640625 c 0,24,25
 160.15625 -8.7890625 160.15625 -8.7890625 129.8828125 -8.7890625 c 0,26,27
 119.140625 -8.7890625 119.140625 -8.7890625 107.666015625 -5.126953125 c 0,28,29
 96.19140625 -1.46484375 96.19140625 -1.46484375 86.9140625 5.859375 c 0,30,31
 77.63671875 13.18359375 77.63671875 13.18359375 71.77734375 23.92578125 c 0,32,33
 65.91796875 34.66796875 65.91796875 34.66796875 65.91796875 48.828125 c 0,34,35
 65.91796875 62.01171875 65.91796875 62.01171875 70.80078125 72.998046875 c 0,36,37
 75.68359375 83.984375 75.68359375 83.984375 84.47265625 92.041015625 c 0,38,39
 93.26171875 100.09765625 93.26171875 100.09765625 104.98046875 104.4921875 c 0,40,41
 116.69921875 108.88671875 116.69921875 108.88671875 129.8828125 108.88671875 c 0,42,43
 143.06640625 108.88671875 143.06640625 108.88671875 155.029296875 104.4921875 c 0,44,45
 166.9921875 100.09765625 166.9921875 100.09765625 176.025390625 92.28515625 c 0,46,47
 185.05859375 84.47265625 185.05859375 84.47265625 190.4296875 73.486328125 c 0,48,49
 195.80078125 62.5 195.80078125 62.5 195.80078125 48.828125 c 0,22,23
EndSplineSet
EndChar

StartChar: quotedbl
Encoding: 5 34 5
Width: 331
VWidth: 488
Flags: W
LayerCount: 2
Fore
SplineSet
375.9765625 675.78125 m 0,0,1
 375.9765625 670.41015625 375.9765625 670.41015625 370.361328125 651.611328125 c 0,2,3
 364.74609375 632.8125 364.74609375 632.8125 356.201171875 606.689453125 c 0,4,5
 347.65625 580.56640625 347.65625 580.56640625 337.646484375 551.025390625 c 0,6,7
 327.63671875 521.484375 327.63671875 521.484375 318.115234375 495.1171875 c 0,8,9
 308.59375 468.75 308.59375 468.75 301.513671875 448.73046875 c 0,10,11
 294.43359375 428.7109375 294.43359375 428.7109375 291.9921875 421.875 c 0,12,-1
 259.765625 421.875 l 0,13,-1
 271.97265625 645.01953125 l 0,14,15
 272.94921875 660.15625 272.94921875 660.15625 276.611328125 672.607421875 c 0,16,17
 280.2734375 685.05859375 280.2734375 685.05859375 287.353515625 694.3359375 c 0,18,19
 294.43359375 703.61328125 294.43359375 703.61328125 305.6640625 708.740234375 c 0,20,21
 316.89453125 713.8671875 316.89453125 713.8671875 333.984375 713.8671875 c 0,22,23
 352.05078125 713.8671875 352.05078125 713.8671875 364.013671875 704.1015625 c 0,24,25
 375.9765625 694.3359375 375.9765625 694.3359375 375.9765625 675.78125 c 0,0,1
214.84375 675.78125 m 0,26,27
 214.84375 670.41015625 214.84375 670.41015625 209.47265625 651.611328125 c 0,28,29
 204.1015625 632.8125 204.1015625 632.8125 195.556640625 606.689453125 c 0,30,31
 187.01171875 580.56640625 187.01171875 580.56640625 177.001953125 551.025390625 c 0,32,33
 166.9921875 521.484375 166.9921875 521.484375 157.958984375 495.1171875 c 0,34,35
 148.92578125 468.75 148.92578125 468.75 141.6015625 448.73046875 c 0,36,37
 134.27734375 428.7109375 134.27734375 428.7109375 131.8359375 421.875 c 0,38,-1
 100.09765625 421.875 l 0,39,-1
 112.79296875 645.01953125 l 0,40,41
 113.76953125 660.15625 113.76953125 660.15625 117.1875 672.607421875 c 0,42,43
 120.60546875 685.05859375 120.60546875 685.05859375 127.44140625 694.3359375 c 0,44,45
 134.27734375 703.61328125 134.27734375 703.61328125 145.5078125 708.740234375 c 0,46,47
 156.73828125 713.8671875 156.73828125 713.8671875 173.828125 713.8671875 c 0,48,49
 190.91796875 713.8671875 190.91796875 713.8671875 202.880859375 704.1015625 c 0,50,51
 214.84375 694.3359375 214.84375 694.3359375 214.84375 675.78125 c 0,26,27
EndSplineSet
EndChar

StartChar: numbersign
Encoding: 6 35 6
Width: 743
VWidth: 488
Flags: W
LayerCount: 2
Fore
SplineSet
539.0625 420.8984375 m 0,0,-1
 491.2109375 277.83203125 l 0,1,-1
 651.85546875 277.83203125 l 0,2,-1
 651.85546875 228.02734375 l 0,3,-1
 474.12109375 228.02734375 l 0,4,-1
 389.16015625 -22.94921875 l 0,5,-1
 338.8671875 -6.8359375 l 0,6,-1
 417.96875 228.02734375 l 0,7,-1
 272.94921875 228.02734375 l 0,8,-1
 187.98828125 -22.94921875 l 0,9,-1
 138.18359375 -5.859375 l 0,10,-1
 217.7734375 228.02734375 l 0,11,-1
 76.171875 228.02734375 l 0,12,-1
 76.171875 277.83203125 l 0,13,-1
 233.88671875 277.83203125 l 0,14,-1
 283.203125 420.8984375 l 0,15,-1
 122.0703125 420.8984375 l 0,16,-1
 122.0703125 472.16796875 l 0,17,-1
 299.8046875 472.16796875 l 0,18,-1
 379.8828125 708.0078125 l 0,19,-1
 431.15234375 691.89453125 l 0,20,-1
 354.98046875 472.16796875 l 0,21,-1
 500.9765625 472.16796875 l 0,22,-1
 580.078125 708.0078125 l 0,23,-1
 631.8359375 691.89453125 l 0,24,-1
 556.15234375 472.16796875 l 0,25,-1
 695.80078125 472.16796875 l 0,26,-1
 695.80078125 420.8984375 l 0,27,-1
 539.0625 420.8984375 l 0,0,-1
337.890625 420.8984375 m 0,28,-1
 290.0390625 277.83203125 l 0,29,-1
 435.05859375 277.83203125 l 0,30,-1
 482.91015625 420.8984375 l 0,31,-1
 337.890625 420.8984375 l 0,28,-1
EndSplineSet
EndChar

StartChar: dollar
Encoding: 7 36 7
Width: 556
VWidth: 488
Flags: W
LayerCount: 2
Fore
SplineSet
488.76953125 493.1640625 m 0,0,-1
 430.17578125 493.1640625 l 0,1,-1
 435.05859375 590.8203125 l 0,2,3
 435.05859375 594.23828125 435.05859375 594.23828125 431.15234375 599.365234375 c 0,4,5
 427.24609375 604.4921875 427.24609375 604.4921875 423.828125 605.95703125 c 0,6,7
 422.8515625 606.4453125 422.8515625 606.4453125 417.724609375 608.88671875 c 0,8,9
 412.59765625 611.328125 412.59765625 611.328125 404.78515625 614.013671875 c 0,10,11
 396.97265625 616.69921875 396.97265625 616.69921875 386.474609375 619.384765625 c 0,12,13
 375.9765625 622.0703125 375.9765625 622.0703125 363.76953125 623.046875 c 0,14,-1
 316.89453125 375 l 0,15,16
 350.09765625 364.2578125 350.09765625 364.2578125 379.39453125 348.6328125 c 0,17,18
 408.69140625 333.0078125 408.69140625 333.0078125 430.419921875 312.5 c 0,19,20
 452.1484375 291.9921875 452.1484375 291.9921875 464.599609375 265.869140625 c 0,21,22
 477.05078125 239.74609375 477.05078125 239.74609375 477.05078125 208.0078125 c 0,23,24
 477.05078125 169.43359375 477.05078125 169.43359375 464.599609375 139.404296875 c 0,25,26
 452.1484375 109.375 452.1484375 109.375 431.884765625 86.669921875 c 0,27,28
 411.62109375 63.96484375 411.62109375 63.96484375 386.23046875 48.33984375 c 0,29,30
 360.83984375 32.71484375 360.83984375 32.71484375 334.9609375 22.4609375 c 0,31,32
 309.08203125 12.20703125 309.08203125 12.20703125 285.400390625 7.080078125 c 0,33,34
 261.71875 1.953125 261.71875 1.953125 245.1171875 0.9765625 c 0,35,-1
 226.07421875 -102.05078125 l 0,36,-1
 166.9921875 -102.05078125 l 0,37,-1
 186.03515625 0 l 0,38,39
 159.66796875 1.46484375 159.66796875 1.46484375 136.71875 4.8828125 c 0,40,41
 113.76953125 8.30078125 113.76953125 8.30078125 93.26171875 13.671875 c 0,42,43
 72.75390625 19.04296875 72.75390625 19.04296875 53.22265625 26.611328125 c 0,44,45
 33.69140625 34.1796875 33.69140625 34.1796875 14.16015625 43.9453125 c 0,46,-1
 45.8984375 201.171875 l 0,47,-1
 112.79296875 201.171875 l 0,48,-1
 104.00390625 85.9375 l 0,49,50
 104.00390625 82.03125 104.00390625 82.03125 106.201171875 80.078125 c 0,51,52
 108.3984375 78.125 108.3984375 78.125 110.83984375 77.1484375 c 0,53,54
 112.79296875 76.171875 112.79296875 76.171875 120.849609375 72.509765625 c 0,55,56
 128.90625 68.84765625 128.90625 68.84765625 140.625 64.453125 c 0,57,58
 152.34375 60.05859375 152.34375 60.05859375 166.748046875 56.15234375 c 0,59,60
 181.15234375 52.24609375 181.15234375 52.24609375 196.77734375 50.78125 c 0,61,-1
 246.09375 306.15234375 l 0,62,63
 214.35546875 319.3359375 214.35546875 319.3359375 187.744140625 335.9375 c 0,64,65
 161.1328125 352.5390625 161.1328125 352.5390625 141.6015625 372.802734375 c 0,66,67
 122.0703125 393.06640625 122.0703125 393.06640625 111.083984375 417.48046875 c 0,68,69
 100.09765625 441.89453125 100.09765625 441.89453125 100.09765625 471.19140625 c 0,70,71
 100.09765625 513.671875 100.09765625 513.671875 117.919921875 548.33984375 c 0,72,73
 135.7421875 583.0078125 135.7421875 583.0078125 165.52734375 608.154296875 c 0,74,75
 195.3125 633.30078125 195.3125 633.30078125 234.375 648.681640625 c 0,76,77
 273.4375 664.0625 273.4375 664.0625 315.91796875 667.96875 c 0,78,-1
 330.078125 743.1640625 l 0,79,-1
 387.20703125 743.1640625 l 0,80,-1
 375 670.8984375 l 0,81,82
 399.4140625 669.921875 399.4140625 669.921875 422.8515625 666.015625 c 0,83,84
 446.2890625 662.109375 446.2890625 662.109375 466.064453125 657.470703125 c 0,85,86
 485.83984375 652.83203125 485.83984375 652.83203125 500.48828125 648.4375 c 0,87,88
 515.13671875 644.04296875 515.13671875 644.04296875 520.99609375 642.08984375 c 0,89,-1
 488.76953125 493.1640625 l 0,0,-1
306.15234375 619.140625 m 0,90,91
 282.2265625 611.81640625 282.2265625 611.81640625 262.6953125 600.341796875 c 0,92,93
 243.1640625 588.8671875 243.1640625 588.8671875 229.248046875 573.486328125 c 0,94,95
 215.33203125 558.10546875 215.33203125 558.10546875 207.763671875 539.0625 c 0,96,97
 200.1953125 520.01953125 200.1953125 520.01953125 200.1953125 498.046875 c 0,98,99
 200.1953125 464.35546875 200.1953125 464.35546875 216.796875 440.91796875 c 0,100,101
 233.3984375 417.48046875 233.3984375 417.48046875 264.16015625 401.85546875 c 0,102,-1
 306.15234375 619.140625 l 0,90,91
372.0703125 181.15234375 m 0,103,104
 372.0703125 213.37890625 372.0703125 213.37890625 354.98046875 238.525390625 c 0,105,106
 337.890625 263.671875 337.890625 263.671875 300.78125 280.76171875 c 0,107,-1
 256.8359375 55.17578125 l 0,108,109
 312.98828125 68.84765625 312.98828125 68.84765625 342.529296875 101.5625 c 0,110,111
 372.0703125 134.27734375 372.0703125 134.27734375 372.0703125 181.15234375 c 0,103,104
EndSplineSet
EndChar

StartChar: percent
Encoding: 8 37 8
Width: 859
VWidth: 488
Flags: W
LayerCount: 2
Fore
SplineSet
820.80078125 265.13671875 m 0,0,1
 820.80078125 235.83984375 820.80078125 235.83984375 815.4296875 203.61328125 c 0,2,3
 810.05859375 171.38671875 810.05859375 171.38671875 798.828125 140.13671875 c 0,4,5
 787.59765625 108.88671875 787.59765625 108.88671875 770.99609375 80.56640625 c 0,6,7
 754.39453125 52.24609375 754.39453125 52.24609375 731.93359375 30.76171875 c 0,8,9
 709.47265625 9.27734375 709.47265625 9.27734375 680.908203125 -3.41796875 c 0,10,11
 652.34375 -16.11328125 652.34375 -16.11328125 618.1640625 -16.11328125 c 0,12,13
 586.42578125 -16.11328125 586.42578125 -16.11328125 563.96484375 -5.126953125 c 0,14,15
 541.50390625 5.859375 541.50390625 5.859375 527.34375 24.90234375 c 0,16,17
 513.18359375 43.9453125 513.18359375 43.9453125 506.591796875 69.580078125 c 0,18,19
 500 95.21484375 500 95.21484375 500 124.0234375 c 0,20,21
 500 153.3203125 500 153.3203125 505.37109375 185.546875 c 0,22,23
 510.7421875 217.7734375 510.7421875 217.7734375 521.97265625 248.779296875 c 0,24,25
 533.203125 279.78515625 533.203125 279.78515625 549.8046875 307.861328125 c 0,26,27
 566.40625 335.9375 566.40625 335.9375 589.111328125 357.177734375 c 0,28,29
 611.81640625 378.41796875 611.81640625 378.41796875 640.13671875 391.11328125 c 0,30,31
 668.45703125 403.80859375 668.45703125 403.80859375 703.125 403.80859375 c 0,32,33
 734.86328125 403.80859375 734.86328125 403.80859375 757.32421875 392.822265625 c 0,34,35
 779.78515625 381.8359375 779.78515625 381.8359375 793.9453125 363.037109375 c 0,36,37
 808.10546875 344.23828125 808.10546875 344.23828125 814.453125 319.091796875 c 0,38,39
 820.80078125 293.9453125 820.80078125 293.9453125 820.80078125 265.13671875 c 0,0,1
195.80078125 0 m 0,40,-1
 132.8125 0 l 0,41,-1
 692.87109375 670.8984375 l 0,42,-1
 754.8828125 670.8984375 l 0,43,-1
 195.80078125 0 l 0,40,-1
389.16015625 547.8515625 m 0,44,45
 389.16015625 518.5546875 389.16015625 518.5546875 383.7890625 486.572265625 c 0,46,47
 378.41796875 454.58984375 378.41796875 454.58984375 367.1875 423.33984375 c 0,48,49
 355.95703125 392.08984375 355.95703125 392.08984375 339.35546875 363.76953125 c 0,50,51
 322.75390625 335.44921875 322.75390625 335.44921875 300.048828125 313.96484375 c 0,52,53
 277.34375 292.48046875 277.34375 292.48046875 249.0234375 279.78515625 c 0,54,55
 220.703125 267.08984375 220.703125 267.08984375 186.03515625 267.08984375 c 0,56,57
 154.296875 267.08984375 154.296875 267.08984375 131.591796875 278.076171875 c 0,58,59
 108.88671875 289.0625 108.88671875 289.0625 94.482421875 308.10546875 c 0,60,61
 80.078125 327.1484375 80.078125 327.1484375 73.486328125 352.783203125 c 0,62,63
 66.89453125 378.41796875 66.89453125 378.41796875 66.89453125 407.2265625 c 0,64,65
 66.89453125 436.5234375 66.89453125 436.5234375 72.509765625 468.505859375 c 0,66,67
 78.125 500.48828125 78.125 500.48828125 89.111328125 531.494140625 c 0,68,69
 100.09765625 562.5 100.09765625 562.5 116.943359375 590.8203125 c 0,70,71
 133.7890625 619.140625 133.7890625 619.140625 156.494140625 640.380859375 c 0,72,73
 179.19921875 661.62109375 179.19921875 661.62109375 207.763671875 674.31640625 c 0,74,75
 236.328125 687.01171875 236.328125 687.01171875 270.99609375 687.01171875 c 0,76,77
 302.734375 687.01171875 302.734375 687.01171875 325.1953125 676.025390625 c 0,78,79
 347.65625 665.0390625 347.65625 665.0390625 361.81640625 646.240234375 c 0,80,81
 375.9765625 627.44140625 375.9765625 627.44140625 382.568359375 602.05078125 c 0,82,83
 389.16015625 576.66015625 389.16015625 576.66015625 389.16015625 547.8515625 c 0,44,45
748.046875 284.1796875 m 0,84,85
 748.046875 297.36328125 748.046875 297.36328125 746.09375 311.767578125 c 0,86,87
 744.140625 326.171875 744.140625 326.171875 738.525390625 338.134765625 c 0,88,89
 732.91015625 350.09765625 732.91015625 350.09765625 722.412109375 358.154296875 c 0,90,91
 711.9140625 366.2109375 711.9140625 366.2109375 694.82421875 366.2109375 c 0,92,93
 672.36328125 366.2109375 672.36328125 366.2109375 654.541015625 351.806640625 c 0,94,95
 636.71875 337.40234375 636.71875 337.40234375 623.046875 314.208984375 c 0,96,97
 609.375 291.015625 609.375 291.015625 599.609375 262.20703125 c 0,98,99
 589.84375 233.3984375 589.84375 233.3984375 583.740234375 204.58984375 c 0,100,101
 577.63671875 175.78125 577.63671875 175.78125 574.70703125 150.146484375 c 0,102,103
 571.77734375 124.51171875 571.77734375 124.51171875 571.77734375 107.91015625 c 0,104,105
 571.77734375 94.23828125 571.77734375 94.23828125 573.73046875 79.1015625 c 0,106,107
 575.68359375 63.96484375 575.68359375 63.96484375 581.54296875 51.025390625 c 0,108,109
 587.40234375 38.0859375 587.40234375 38.0859375 598.14453125 29.541015625 c 0,110,111
 608.88671875 20.99609375 608.88671875 20.99609375 625.9765625 20.99609375 c 0,112,113
 647.94921875 20.99609375 647.94921875 20.99609375 665.771484375 35.888671875 c 0,114,115
 683.59375 50.78125 683.59375 50.78125 697.021484375 74.462890625 c 0,116,117
 710.44921875 98.14453125 710.44921875 98.14453125 720.21484375 127.685546875 c 0,118,119
 729.98046875 157.2265625 729.98046875 157.2265625 736.083984375 186.5234375 c 0,120,121
 742.1875 215.8203125 742.1875 215.8203125 745.1171875 241.69921875 c 0,122,123
 748.046875 267.578125 748.046875 267.578125 748.046875 284.1796875 c 0,84,85
314.94140625 566.89453125 m 0,124,125
 314.94140625 580.078125 314.94140625 580.078125 313.232421875 594.482421875 c 0,126,127
 311.5234375 608.88671875 311.5234375 608.88671875 305.908203125 621.09375 c 0,128,129
 300.29296875 633.30078125 300.29296875 633.30078125 290.0390625 641.11328125 c 0,130,131
 279.78515625 648.92578125 279.78515625 648.92578125 263.18359375 648.92578125 c 0,132,133
 240.234375 648.92578125 240.234375 648.92578125 222.16796875 634.521484375 c 0,134,135
 204.1015625 620.1171875 204.1015625 620.1171875 190.4296875 596.923828125 c 0,136,137
 176.7578125 573.73046875 176.7578125 573.73046875 166.9921875 544.921875 c 0,138,139
 157.2265625 516.11328125 157.2265625 516.11328125 151.123046875 487.548828125 c 0,140,141
 145.01953125 458.984375 145.01953125 458.984375 142.08984375 433.349609375 c 0,142,143
 139.16015625 407.71484375 139.16015625 407.71484375 139.16015625 391.11328125 c 0,144,145
 139.16015625 377.44140625 139.16015625 377.44140625 141.357421875 362.3046875 c 0,146,147
 143.5546875 347.16796875 143.5546875 347.16796875 149.4140625 334.47265625 c 0,148,149
 155.2734375 321.77734375 155.2734375 321.77734375 166.015625 313.4765625 c 0,150,151
 176.7578125 305.17578125 176.7578125 305.17578125 193.84765625 305.17578125 c 0,152,153
 216.30859375 305.17578125 216.30859375 305.17578125 233.88671875 320.068359375 c 0,154,155
 251.46484375 334.9609375 251.46484375 334.9609375 264.892578125 358.3984375 c 0,156,157
 278.3203125 381.8359375 278.3203125 381.8359375 287.841796875 411.1328125 c 0,158,159
 297.36328125 440.4296875 297.36328125 440.4296875 303.466796875 469.7265625 c 0,160,161
 309.5703125 499.0234375 309.5703125 499.0234375 312.255859375 524.658203125 c 0,162,163
 314.94140625 550.29296875 314.94140625 550.29296875 314.94140625 566.89453125 c 0,124,125
EndSplineSet
EndChar

StartChar: ampersand
Encoding: 9 38 9
Width: 704
VWidth: 488
Flags: W
LayerCount: 2
Fore
SplineSet
601.07421875 308.10546875 m 0,0,1
 580.078125 263.671875 580.078125 263.671875 547.607421875 216.796875 c 0,2,3
 515.13671875 169.921875 515.13671875 169.921875 477.05078125 128.90625 c 0,4,5
 494.140625 105.46875 494.140625 105.46875 510.7421875 89.599609375 c 0,6,7
 527.34375 73.73046875 527.34375 73.73046875 545.8984375 63.96484375 c 0,8,9
 564.453125 54.19921875 564.453125 54.19921875 586.9140625 49.8046875 c 0,10,11
 609.375 45.41015625 609.375 45.41015625 638.18359375 44.921875 c 0,12,-1
 638.18359375 0.9765625 l 0,13,14
 613.76953125 0 613.76953125 0 596.435546875 -0.9765625 c 0,15,16
 579.1015625 -1.953125 579.1015625 -1.953125 564.94140625 -2.9296875 c 0,17,18
 549.31640625 -3.90625 549.31640625 -3.90625 534.423828125 -3.41796875 c 0,19,20
 519.53125 -2.9296875 519.53125 -2.9296875 505.859375 0 c 0,21,22
 493.65234375 1.953125 493.65234375 1.953125 482.177734375 6.591796875 c 0,23,24
 470.703125 11.23046875 470.703125 11.23046875 459.228515625 19.04296875 c 0,25,26
 447.75390625 26.85546875 447.75390625 26.85546875 435.546875 38.57421875 c 0,27,28
 423.33984375 50.29296875 423.33984375 50.29296875 410.15625 66.89453125 c 0,29,30
 388.18359375 50.29296875 388.18359375 50.29296875 364.2578125 36.1328125 c 0,31,32
 340.33203125 21.97265625 340.33203125 21.97265625 313.4765625 11.474609375 c 0,33,34
 286.62109375 0.9765625 286.62109375 0.9765625 256.34765625 -5.126953125 c 0,35,36
 226.07421875 -11.23046875 226.07421875 -11.23046875 190.91796875 -11.23046875 c 0,37,38
 153.3203125 -11.23046875 153.3203125 -11.23046875 120.849609375 0 c 0,39,40
 88.37890625 11.23046875 88.37890625 11.23046875 64.208984375 32.71484375 c 0,41,42
 40.0390625 54.19921875 40.0390625 54.19921875 26.123046875 84.9609375 c 0,43,44
 12.20703125 115.72265625 12.20703125 115.72265625 12.20703125 154.78515625 c 0,45,46
 12.20703125 191.89453125 12.20703125 191.89453125 25.634765625 222.900390625 c 0,47,48
 39.0625 253.90625 39.0625 253.90625 62.5 280.029296875 c 0,49,50
 85.9375 306.15234375 85.9375 306.15234375 117.1875 327.63671875 c 0,51,52
 148.4375 349.12109375 148.4375 349.12109375 184.08203125 367.1875 c 0,53,54
 172.8515625 382.8125 172.8515625 382.8125 162.841796875 398.4375 c 0,55,56
 152.83203125 414.0625 152.83203125 414.0625 145.5078125 429.931640625 c 0,57,58
 138.18359375 445.80078125 138.18359375 445.80078125 134.033203125 462.40234375 c 0,59,60
 129.8828125 479.00390625 129.8828125 479.00390625 129.8828125 497.0703125 c 0,61,62
 129.8828125 537.59765625 129.8828125 537.59765625 146.97265625 571.77734375 c 0,63,64
 164.0625 605.95703125 164.0625 605.95703125 193.84765625 630.859375 c 0,65,66
 223.6328125 655.76171875 223.6328125 655.76171875 264.404296875 669.921875 c 0,67,68
 305.17578125 684.08203125 305.17578125 684.08203125 353.02734375 684.08203125 c 0,69,70
 394.04296875 684.08203125 394.04296875 684.08203125 422.8515625 672.8515625 c 0,71,72
 451.66015625 661.62109375 451.66015625 661.62109375 470.21484375 642.822265625 c 0,73,74
 488.76953125 624.0234375 488.76953125 624.0234375 497.314453125 600.341796875 c 0,75,76
 505.859375 576.66015625 505.859375 576.66015625 505.859375 551.7578125 c 0,77,78
 505.859375 515.625 505.859375 515.625 490.966796875 486.81640625 c 0,79,80
 476.07421875 458.0078125 476.07421875 458.0078125 449.21875 434.5703125 c 0,81,82
 422.36328125 411.1328125 422.36328125 411.1328125 385.009765625 392.578125 c 0,83,84
 347.65625 374.0234375 347.65625 374.0234375 303.22265625 358.88671875 c 0,85,-1
 443.84765625 172.8515625 l 0,86,87
 469.7265625 201.66015625 469.7265625 201.66015625 489.2578125 234.375 c 0,88,89
 508.7890625 267.08984375 508.7890625 267.08984375 520.99609375 292.96875 c 0,90,91
 521.484375 293.9453125 521.484375 293.9453125 520.01953125 296.38671875 c 0,92,93
 518.5546875 298.828125 518.5546875 298.828125 516.845703125 301.26953125 c 0,94,95
 515.13671875 303.7109375 515.13671875 303.7109375 513.427734375 305.419921875 c 0,96,97
 511.71875 307.12890625 511.71875 307.12890625 511.23046875 307.12890625 c 0,98,-1
 459.9609375 315.91796875 l 0,99,-1
 459.9609375 361.81640625 l 0,100,-1
 672.8515625 361.81640625 l 0,101,-1
 672.8515625 315.91796875 l 0,102,-1
 601.07421875 308.10546875 l 0,0,1
408.203125 542.96875 m 0,103,104
 408.203125 560.546875 408.203125 560.546875 403.3203125 577.1484375 c 0,105,106
 398.4375 593.75 398.4375 593.75 388.916015625 606.4453125 c 0,107,108
 379.39453125 619.140625 379.39453125 619.140625 365.234375 626.953125 c 0,109,110
 351.07421875 634.765625 351.07421875 634.765625 333.0078125 634.765625 c 0,111,112
 314.94140625 634.765625 314.94140625 634.765625 295.166015625 627.9296875 c 0,113,114
 275.390625 621.09375 275.390625 621.09375 258.7890625 607.421875 c 0,115,116
 242.1875 593.75 242.1875 593.75 231.201171875 572.998046875 c 0,117,118
 220.21484375 552.24609375 220.21484375 552.24609375 220.21484375 523.92578125 c 0,119,120
 220.21484375 505.859375 220.21484375 505.859375 225.09765625 488.037109375 c 0,121,122
 229.98046875 470.21484375 229.98046875 470.21484375 237.79296875 453.369140625 c 0,123,124
 245.60546875 436.5234375 245.60546875 436.5234375 255.615234375 421.142578125 c 0,125,126
 265.625 405.76171875 265.625 405.76171875 275.87890625 393.06640625 c 0,127,128
 305.17578125 404.78515625 305.17578125 404.78515625 329.58984375 418.9453125 c 0,129,130
 354.00390625 433.10546875 354.00390625 433.10546875 371.337890625 451.171875 c 0,131,132
 388.671875 469.23828125 388.671875 469.23828125 398.4375 491.69921875 c 0,133,134
 408.203125 514.16015625 408.203125 514.16015625 408.203125 542.96875 c 0,103,104
210.9375 328.125 m 0,135,136
 167.96875 300.29296875 167.96875 300.29296875 143.06640625 265.13671875 c 0,137,138
 118.1640625 229.98046875 118.1640625 229.98046875 118.1640625 184.08203125 c 0,139,140
 118.1640625 153.80859375 118.1640625 153.80859375 128.41796875 129.39453125 c 0,141,142
 138.671875 104.98046875 138.671875 104.98046875 155.76171875 87.890625 c 0,143,144
 172.8515625 70.80078125 172.8515625 70.80078125 195.3125 61.279296875 c 0,145,146
 217.7734375 51.7578125 217.7734375 51.7578125 242.1875 51.7578125 c 0,147,148
 259.765625 51.7578125 259.765625 51.7578125 275.634765625 54.931640625 c 0,149,150
 291.50390625 58.10546875 291.50390625 58.10546875 307.6171875 64.94140625 c 0,151,152
 323.73046875 71.77734375 323.73046875 71.77734375 340.576171875 82.275390625 c 0,153,154
 357.421875 92.7734375 357.421875 92.7734375 376.953125 106.93359375 c 0,155,-1
 210.9375 328.125 l 0,135,136
EndSplineSet
EndChar

StartChar: quotesingle
Encoding: 10 39 10
Width: 169
VWidth: 488
Flags: W
LayerCount: 2
Fore
SplineSet
220.21484375 675.78125 m 0,0,1
 220.21484375 670.41015625 220.21484375 670.41015625 214.35546875 651.611328125 c 0,2,3
 208.49609375 632.8125 208.49609375 632.8125 199.70703125 606.689453125 c 0,4,5
 190.91796875 580.56640625 190.91796875 580.56640625 180.419921875 551.025390625 c 0,6,7
 169.921875 521.484375 169.921875 521.484375 160.15625 495.1171875 c 0,8,9
 150.390625 468.75 150.390625 468.75 142.822265625 448.73046875 c 0,10,11
 135.25390625 428.7109375 135.25390625 428.7109375 132.8125 421.875 c 0,12,-1
 100.09765625 421.875 l 0,13,-1
 112.79296875 645.01953125 l 0,14,15
 114.2578125 660.15625 114.2578125 660.15625 117.919921875 672.607421875 c 0,16,17
 121.58203125 685.05859375 121.58203125 685.05859375 128.90625 694.3359375 c 0,18,19
 136.23046875 703.61328125 136.23046875 703.61328125 147.94921875 708.740234375 c 0,20,21
 159.66796875 713.8671875 159.66796875 713.8671875 176.7578125 713.8671875 c 0,22,23
 195.80078125 713.8671875 195.80078125 713.8671875 208.0078125 704.1015625 c 0,24,25
 220.21484375 694.3359375 220.21484375 694.3359375 220.21484375 675.78125 c 0,0,1
EndSplineSet
EndChar

StartChar: parenleft
Encoding: 11 40 11
Width: 418
VWidth: 488
Flags: W
LayerCount: 2
Fore
SplineSet
458.0078125 671.875 m 0,0,1
 416.50390625 666.50390625 416.50390625 666.50390625 382.080078125 645.99609375 c 0,2,3
 347.65625 625.48828125 347.65625 625.48828125 319.580078125 594.482421875 c 0,4,5
 291.50390625 563.4765625 291.50390625 563.4765625 269.287109375 524.169921875 c 0,6,7
 247.0703125 484.86328125 247.0703125 484.86328125 230.46875 441.650390625 c 0,8,9
 213.8671875 398.4375 213.8671875 398.4375 202.1484375 353.515625 c 0,10,11
 190.4296875 308.59375 190.4296875 308.59375 183.10546875 266.11328125 c 0,12,13
 175.78125 223.6328125 175.78125 223.6328125 172.36328125 186.03515625 c 0,14,15
 168.9453125 148.4375 168.9453125 148.4375 168.9453125 120.1171875 c 0,16,17
 168.9453125 64.453125 168.9453125 64.453125 179.931640625 26.123046875 c 0,18,19
 190.91796875 -12.20703125 190.91796875 -12.20703125 210.205078125 -37.59765625 c 0,20,21
 229.4921875 -62.98828125 229.4921875 -62.98828125 255.37109375 -76.904296875 c 0,22,23
 281.25 -90.8203125 281.25 -90.8203125 311.03515625 -97.16796875 c 0,24,-1
 301.7578125 -143.06640625 l 0,25,26
 250.9765625 -140.13671875 250.9765625 -140.13671875 208.740234375 -118.408203125 c 0,27,28
 166.50390625 -96.6796875 166.50390625 -96.6796875 135.7421875 -59.814453125 c 0,29,30
 104.98046875 -22.94921875 104.98046875 -22.94921875 87.890625 27.587890625 c 0,31,32
 70.80078125 78.125 70.80078125 78.125 70.80078125 139.16015625 c 0,33,34
 70.80078125 198.73046875 70.80078125 198.73046875 81.54296875 263.18359375 c 0,35,36
 92.28515625 327.63671875 92.28515625 327.63671875 113.76953125 389.892578125 c 0,37,38
 135.25390625 452.1484375 135.25390625 452.1484375 167.96875 509.033203125 c 0,39,40
 200.68359375 565.91796875 200.68359375 565.91796875 244.62890625 610.3515625 c 0,41,42
 288.57421875 654.78515625 288.57421875 654.78515625 344.23828125 683.349609375 c 0,43,44
 399.90234375 711.9140625 399.90234375 711.9140625 466.796875 717.7734375 c 0,45,-1
 458.0078125 671.875 l 0,0,1
EndSplineSet
EndChar

StartChar: parenright
Encoding: 12 41 12
Width: 417
VWidth: 488
Flags: W
LayerCount: 2
Fore
SplineSet
347.16796875 443.84765625 m 0,0,1
 347.16796875 360.83984375 347.16796875 360.83984375 333.251953125 287.109375 c 0,2,3
 319.3359375 213.37890625 319.3359375 213.37890625 294.189453125 150.390625 c 0,4,5
 269.04296875 87.40234375 269.04296875 87.40234375 233.154296875 35.888671875 c 0,6,7
 197.265625 -15.625 197.265625 -15.625 153.564453125 -53.22265625 c 0,8,9
 109.86328125 -90.8203125 109.86328125 -90.8203125 58.837890625 -114.013671875 c 0,10,11
 7.8125 -137.20703125 7.8125 -137.20703125 -47.8515625 -144.04296875 c 0,12,-1
 -39.0625 -96.19140625 l 0,13,14
 4.39453125 -90.33203125 4.39453125 -90.33203125 39.794921875 -68.603515625 c 0,15,16
 75.1953125 -46.875 75.1953125 -46.875 103.759765625 -14.16015625 c 0,17,18
 132.32421875 18.5546875 132.32421875 18.5546875 154.052734375 59.814453125 c 0,19,20
 175.78125 101.07421875 175.78125 101.07421875 191.89453125 145.751953125 c 0,21,22
 208.0078125 190.4296875 208.0078125 190.4296875 218.994140625 236.083984375 c 0,23,24
 229.98046875 281.73828125 229.98046875 281.73828125 236.572265625 323.486328125 c 0,25,26
 243.1640625 365.234375 243.1640625 365.234375 246.09375 400.634765625 c 0,27,28
 249.0234375 436.03515625 249.0234375 436.03515625 249.0234375 459.9609375 c 0,29,30
 249.0234375 475.09765625 249.0234375 475.09765625 247.0703125 495.1171875 c 0,31,32
 245.1171875 515.13671875 245.1171875 515.13671875 239.990234375 537.109375 c 0,33,34
 234.86328125 559.08203125 234.86328125 559.08203125 225.09765625 581.0546875 c 0,35,36
 215.33203125 603.02734375 215.33203125 603.02734375 199.70703125 621.58203125 c 0,37,38
 184.08203125 640.13671875 184.08203125 640.13671875 161.376953125 653.564453125 c 0,39,40
 138.671875 666.9921875 138.671875 666.9921875 107.91015625 671.875 c 0,41,-1
 117.1875 717.7734375 l 0,42,43
 170.41015625 711.9140625 170.41015625 711.9140625 208.251953125 692.87109375 c 0,44,45
 246.09375 673.828125 246.09375 673.828125 271.728515625 647.94921875 c 0,46,47
 297.36328125 622.0703125 297.36328125 622.0703125 312.255859375 591.796875 c 0,48,49
 327.1484375 561.5234375 327.1484375 561.5234375 334.9609375 533.203125 c 0,50,51
 342.7734375 504.8828125 342.7734375 504.8828125 344.970703125 480.95703125 c 0,52,53
 347.16796875 457.03125 347.16796875 457.03125 347.16796875 443.84765625 c 0,0,1
EndSplineSet
EndChar

StartChar: asterisk
Encoding: 13 42 13
Width: 500
VWidth: 488
Flags: W
LayerCount: 2
Fore
SplineSet
464.84375 513.18359375 m 0,0,-1
 335.9375 505.859375 l 0,1,-1
 332.03125 520.01953125 l 0,2,-1
 438.96484375 590.8203125 l 0,3,-1
 509.765625 569.82421875 l 0,4,-1
 464.84375 513.18359375 l 0,0,-1
319.82421875 529.78515625 m 0,5,-1
 307.12890625 529.78515625 l 0,6,-1
 271.97265625 654.78515625 l 0,7,-1
 312.98828125 715.8203125 l 0,8,-1
 354.98046875 654.78515625 l 0,9,-1
 319.82421875 529.78515625 l 0,5,-1
365.234375 362.79296875 m 0,10,-1
 318.84765625 482.91015625 l 0,11,-1
 332.03125 492.1875 l 0,12,-1
 433.10546875 411.1328125 l 0,13,-1
 435.05859375 336.9140625 l 0,14,-1
 365.234375 362.79296875 l 0,10,-1
291.9921875 505.859375 m 0,15,-1
 162.109375 513.18359375 l 0,16,-1
 117.1875 569.82421875 l 0,17,-1
 187.01171875 590.8203125 l 0,18,-1
 294.921875 520.01953125 l 0,19,-1
 291.9921875 505.859375 l 0,15,-1
262.20703125 362.79296875 m 0,20,-1
 191.89453125 336.9140625 l 0,21,-1
 193.84765625 411.1328125 l 0,22,-1
 294.921875 492.1875 l 0,23,-1
 308.10546875 482.91015625 l 0,24,-1
 262.20703125 362.79296875 l 0,20,-1
EndSplineSet
EndChar

StartChar: plus
Encoding: 14 43 14
Width: 1000
VWidth: 488
Flags: W
LayerCount: 2
Fore
SplineSet
530.76171875 269.04296875 m 0,0,-1
 530.76171875 0 l 0,1,-1
 469.23828125 0 l 0,2,-1
 469.23828125 269.04296875 l 0,3,-1
 200.1953125 269.04296875 l 0,4,-1
 200.1953125 331.0546875 l 0,5,-1
 469.23828125 331.0546875 l 0,6,-1
 469.23828125 600.09765625 l 0,7,-1
 530.76171875 600.09765625 l 0,8,-1
 530.76171875 331.0546875 l 0,9,-1
 799.8046875 331.0546875 l 0,10,-1
 799.8046875 269.04296875 l 0,11,-1
 530.76171875 269.04296875 l 0,0,-1
EndSplineSet
EndChar

StartChar: comma
Encoding: 15 44 15
Width: 279
VWidth: 488
Flags: W
LayerCount: 2
Fore
SplineSet
159.1796875 46.875 m 0,0,1
 159.1796875 4.39453125 159.1796875 4.39453125 141.11328125 -33.203125 c 0,2,3
 123.046875 -70.80078125 123.046875 -70.80078125 93.017578125 -100.09765625 c 0,4,5
 62.98828125 -129.39453125 62.98828125 -129.39453125 24.4140625 -147.94921875 c 0,6,7
 -14.16015625 -166.50390625 -14.16015625 -166.50390625 -55.17578125 -169.921875 c 0,8,-1
 -47.8515625 -133.7890625 l 0,9,10
 -17.08984375 -127.44140625 -17.08984375 -127.44140625 6.103515625 -115.966796875 c 0,11,12
 29.296875 -104.4921875 29.296875 -104.4921875 46.142578125 -87.646484375 c 0,13,14
 62.98828125 -70.80078125 62.98828125 -70.80078125 73.73046875 -47.36328125 c 0,15,16
 84.47265625 -23.92578125 84.47265625 -23.92578125 89.84375 6.8359375 c 0,17,-1
 26.85546875 6.8359375 l 0,18,19
 21.484375 13.671875 21.484375 13.671875 19.287109375 22.216796875 c 0,20,21
 17.08984375 30.76171875 17.08984375 30.76171875 17.08984375 39.0625 c 0,22,23
 17.08984375 54.19921875 17.08984375 54.19921875 23.4375 69.091796875 c 0,24,25
 29.78515625 83.984375 29.78515625 83.984375 40.283203125 95.703125 c 0,26,27
 50.78125 107.421875 50.78125 107.421875 64.697265625 114.74609375 c 0,28,29
 78.61328125 122.0703125 78.61328125 122.0703125 94.23828125 122.0703125 c 0,30,31
 111.81640625 122.0703125 111.81640625 122.0703125 124.267578125 116.455078125 c 0,32,33
 136.71875 110.83984375 136.71875 110.83984375 144.287109375 100.5859375 c 0,34,35
 151.85546875 90.33203125 151.85546875 90.33203125 155.517578125 76.66015625 c 0,36,37
 159.1796875 62.98828125 159.1796875 62.98828125 159.1796875 46.875 c 0,0,1
EndSplineSet
EndChar

StartChar: hyphen
Encoding: 16 45 16
Width: 318
VWidth: 488
Flags: W
LayerCount: 2
Fore
SplineSet
270.01953125 207.03125 m 0,0,-1
 29.78515625 207.03125 l 0,1,-1
 42.96875 274.90234375 l 0,2,-1
 283.203125 274.90234375 l 0,3,-1
 270.01953125 207.03125 l 0,0,-1
EndSplineSet
EndChar

StartChar: period
Encoding: 17 46 17
Width: 279
VWidth: 488
Flags: W
LayerCount: 2
Fore
SplineSet
151.85546875 55.17578125 m 0,0,1
 151.85546875 41.015625 151.85546875 41.015625 146.484375 28.80859375 c 0,2,3
 141.11328125 16.6015625 141.11328125 16.6015625 131.8359375 7.568359375 c 0,4,5
 122.55859375 -1.46484375 122.55859375 -1.46484375 110.107421875 -6.8359375 c 0,6,7
 97.65625 -12.20703125 97.65625 -12.20703125 83.984375 -12.20703125 c 0,8,9
 69.82421875 -12.20703125 69.82421875 -12.20703125 57.861328125 -6.8359375 c 0,10,11
 45.8984375 -1.46484375 45.8984375 -1.46484375 37.109375 7.568359375 c 0,12,13
 28.3203125 16.6015625 28.3203125 16.6015625 23.193359375 28.80859375 c 0,14,15
 18.06640625 41.015625 18.06640625 41.015625 18.06640625 55.17578125 c 0,16,17
 18.06640625 68.84765625 18.06640625 68.84765625 23.193359375 81.0546875 c 0,18,19
 28.3203125 93.26171875 28.3203125 93.26171875 37.109375 102.294921875 c 0,20,21
 45.8984375 111.328125 45.8984375 111.328125 57.861328125 116.69921875 c 0,22,23
 69.82421875 122.0703125 69.82421875 122.0703125 83.984375 122.0703125 c 0,24,25
 97.65625 122.0703125 97.65625 122.0703125 110.107421875 116.69921875 c 0,26,27
 122.55859375 111.328125 122.55859375 111.328125 131.8359375 102.294921875 c 0,28,29
 141.11328125 93.26171875 141.11328125 93.26171875 146.484375 81.0546875 c 0,30,31
 151.85546875 68.84765625 151.85546875 68.84765625 151.85546875 55.17578125 c 0,0,1
EndSplineSet
EndChar

StartChar: slash
Encoding: 18 47 18
Width: 490
VWidth: 488
Flags: W
LayerCount: 2
Fore
SplineSet
63.96484375 -92.7734375 m 0,0,-1
 0 -92.7734375 l 0,1,-1
 425.78125 670.8984375 l 0,2,-1
 490.234375 670.8984375 l 0,3,-1
 63.96484375 -92.7734375 l 0,0,-1
EndSplineSet
EndChar

StartChar: zero
Encoding: 19 48 19
Width: 556
VWidth: 488
Flags: W
LayerCount: 2
Fore
SplineSet
550.78125 461.9140625 m 0,0,1
 550.78125 403.3203125 550.78125 403.3203125 540.52734375 345.21484375 c 0,2,3
 530.2734375 287.109375 530.2734375 287.109375 510.7421875 234.130859375 c 0,4,5
 491.2109375 181.15234375 491.2109375 181.15234375 463.134765625 135.25390625 c 0,6,7
 435.05859375 89.35546875 435.05859375 89.35546875 399.169921875 55.908203125 c 0,8,9
 363.28125 22.4609375 363.28125 22.4609375 320.3125 3.173828125 c 0,10,11
 277.34375 -16.11328125 277.34375 -16.11328125 228.02734375 -16.11328125 c 0,12,13
 181.640625 -16.11328125 181.640625 -16.11328125 145.5078125 -0.9765625 c 0,14,15
 109.375 14.16015625 109.375 14.16015625 84.716796875 42.724609375 c 0,16,17
 60.05859375 71.2890625 60.05859375 71.2890625 47.119140625 113.037109375 c 0,18,19
 34.1796875 154.78515625 34.1796875 154.78515625 34.1796875 208.0078125 c 0,20,21
 34.1796875 260.7421875 34.1796875 260.7421875 43.212890625 316.650390625 c 0,22,23
 52.24609375 372.55859375 52.24609375 372.55859375 70.3125 425.78125 c 0,24,25
 88.37890625 479.00390625 88.37890625 479.00390625 115.478515625 526.611328125 c 0,26,27
 142.578125 574.21875 142.578125 574.21875 178.7109375 609.86328125 c 0,28,29
 214.84375 645.5078125 214.84375 645.5078125 260.009765625 666.259765625 c 0,30,31
 305.17578125 687.01171875 305.17578125 687.01171875 358.88671875 687.01171875 c 0,32,33
 408.69140625 687.01171875 408.69140625 687.01171875 444.82421875 669.677734375 c 0,34,35
 480.95703125 652.34375 480.95703125 652.34375 504.39453125 622.0703125 c 0,36,37
 527.83203125 591.796875 527.83203125 591.796875 539.306640625 550.537109375 c 0,38,39
 550.78125 509.27734375 550.78125 509.27734375 550.78125 461.9140625 c 0,0,1
442.87109375 479.00390625 m 0,40,41
 442.87109375 520.01953125 442.87109375 520.01953125 435.546875 549.560546875 c 0,42,43
 428.22265625 579.1015625 428.22265625 579.1015625 415.52734375 598.388671875 c 0,44,45
 402.83203125 617.67578125 402.83203125 617.67578125 385.7421875 626.953125 c 0,46,47
 368.65234375 636.23046875 368.65234375 636.23046875 349.12109375 636.23046875 c 0,48,49
 317.87109375 636.23046875 317.87109375 636.23046875 290.771484375 616.2109375 c 0,50,51
 263.671875 596.19140625 263.671875 596.19140625 240.72265625 562.5 c 0,52,53
 217.7734375 528.80859375 217.7734375 528.80859375 199.70703125 484.130859375 c 0,54,55
 181.640625 439.453125 181.640625 439.453125 168.9453125 390.13671875 c 0,56,57
 156.25 340.8203125 156.25 340.8203125 149.658203125 289.794921875 c 0,58,59
 143.06640625 238.76953125 143.06640625 238.76953125 143.06640625 191.89453125 c 0,60,61
 143.06640625 140.625 143.06640625 140.625 152.83203125 109.86328125 c 0,62,63
 162.59765625 79.1015625 162.59765625 79.1015625 176.7578125 62.744140625 c 0,64,65
 190.91796875 46.38671875 190.91796875 46.38671875 207.51953125 41.259765625 c 0,66,67
 224.12109375 36.1328125 224.12109375 36.1328125 237.79296875 36.1328125 c 0,68,69
 267.08984375 36.1328125 267.08984375 36.1328125 293.9453125 55.908203125 c 0,70,71
 320.80078125 75.68359375 320.80078125 75.68359375 343.505859375 109.130859375 c 0,72,73
 366.2109375 142.578125 366.2109375 142.578125 384.521484375 187.01171875 c 0,74,75
 402.83203125 231.4453125 402.83203125 231.4453125 415.771484375 280.76171875 c 0,76,77
 428.7109375 330.078125 428.7109375 330.078125 435.791015625 381.103515625 c 0,78,79
 442.87109375 432.12890625 442.87109375 432.12890625 442.87109375 479.00390625 c 0,40,41
EndSplineSet
EndChar

StartChar: one
Encoding: 20 49 20
Width: 556
VWidth: 488
Flags: W
LayerCount: 2
Fore
SplineSet
304.19921875 71.77734375 m 0,0,1
 302.24609375 63.4765625 302.24609375 63.4765625 306.640625 58.10546875 c 0,2,3
 311.03515625 52.734375 311.03515625 52.734375 323.2421875 51.7578125 c 0,4,-1
 397.94921875 46.875 l 0,5,-1
 397.94921875 0 l 0,6,-1
 83.984375 0 l 0,7,-1
 83.984375 46.875 l 0,8,-1
 185.05859375 51.7578125 l 0,9,10
 193.359375 52.734375 193.359375 52.734375 197.998046875 58.59375 c 0,11,12
 202.63671875 64.453125 202.63671875 64.453125 204.1015625 71.77734375 c 0,13,-1
 306.15234375 595.21484375 l 0,14,-1
 148.92578125 575.1953125 l 0,15,-1
 148.92578125 620.1171875 l 0,16,-1
 386.23046875 687.01171875 l 0,17,-1
 422.8515625 687.01171875 l 0,18,-1
 304.19921875 71.77734375 l 0,0,1
EndSplineSet
EndChar

StartChar: two
Encoding: 21 50 21
Width: 556
VWidth: 488
Flags: W
LayerCount: 2
Fore
SplineSet
535.15625 538.0859375 m 0,0,1
 535.15625 503.90625 535.15625 503.90625 523.193359375 470.21484375 c 0,2,3
 511.23046875 436.5234375 511.23046875 436.5234375 490.72265625 403.80859375 c 0,4,5
 470.21484375 371.09375 470.21484375 371.09375 442.138671875 340.087890625 c 0,6,7
 414.0625 309.08203125 414.0625 309.08203125 381.8359375 280.76171875 c 0,8,9
 350.5859375 252.9296875 350.5859375 252.9296875 318.115234375 227.5390625 c 0,10,11
 285.64453125 202.1484375 285.64453125 202.1484375 251.953125 177.978515625 c 0,12,13
 218.26171875 153.80859375 218.26171875 153.80859375 184.326171875 130.37109375 c 0,14,15
 150.390625 106.93359375 150.390625 106.93359375 116.2109375 83.0078125 c 0,16,-1
 395.99609375 83.0078125 l 0,17,-1
 430.17578125 167.96875 l 0,18,-1
 490.234375 167.96875 l 0,19,-1
 458.984375 0 l 0,20,-1
 -20.99609375 0 l 0,21,-1
 -7.8125 64.94140625 l 0,22,23
 64.453125 116.2109375 64.453125 116.2109375 124.0234375 160.400390625 c 0,24,25
 183.59375 204.58984375 183.59375 204.58984375 231.201171875 243.65234375 c 0,26,27
 278.80859375 282.71484375 278.80859375 282.71484375 314.208984375 317.87109375 c 0,28,29
 349.609375 353.02734375 349.609375 353.02734375 373.046875 387.20703125 c 0,30,31
 396.484375 421.38671875 396.484375 421.38671875 408.203125 455.322265625 c 0,32,33
 419.921875 489.2578125 419.921875 489.2578125 419.921875 525.87890625 c 0,34,35
 419.921875 554.19921875 419.921875 554.19921875 412.109375 574.462890625 c 0,36,37
 404.296875 594.7265625 404.296875 594.7265625 390.380859375 607.421875 c 0,38,39
 376.46484375 620.1171875 376.46484375 620.1171875 357.91015625 625.9765625 c 0,40,41
 339.35546875 631.8359375 339.35546875 631.8359375 317.87109375 631.8359375 c 0,42,43
 304.6875 631.8359375 304.6875 631.8359375 291.9921875 629.39453125 c 0,44,45
 279.296875 626.953125 279.296875 626.953125 268.5546875 623.291015625 c 0,46,47
 257.8125 619.62890625 257.8125 619.62890625 249.267578125 615.72265625 c 0,48,49
 240.72265625 611.81640625 240.72265625 611.81640625 234.86328125 608.88671875 c 0,50,-1
 213.8671875 502.9296875 l 0,51,52
 211.42578125 500.9765625 211.42578125 500.9765625 206.787109375 498.046875 c 0,53,54
 202.1484375 495.1171875 202.1484375 495.1171875 195.068359375 492.1875 c 0,55,56
 187.98828125 489.2578125 187.98828125 489.2578125 178.955078125 487.060546875 c 0,57,58
 169.921875 484.86328125 169.921875 484.86328125 158.203125 484.86328125 c 0,59,60
 149.90234375 484.86328125 149.90234375 484.86328125 140.380859375 486.81640625 c 0,61,62
 130.859375 488.76953125 130.859375 488.76953125 122.55859375 493.65234375 c 0,63,64
 114.2578125 498.53515625 114.2578125 498.53515625 108.642578125 507.080078125 c 0,65,66
 103.02734375 515.625 103.02734375 515.625 103.02734375 528.80859375 c 0,67,68
 103.02734375 556.640625 103.02734375 556.640625 122.802734375 584.716796875 c 0,69,70
 142.578125 612.79296875 142.578125 612.79296875 176.26953125 635.498046875 c 0,71,72
 209.9609375 658.203125 209.9609375 658.203125 254.8828125 672.607421875 c 0,73,74
 299.8046875 687.01171875 299.8046875 687.01171875 350.09765625 687.01171875 c 0,75,76
 389.16015625 687.01171875 389.16015625 687.01171875 422.8515625 678.7109375 c 0,77,78
 456.54296875 670.41015625 456.54296875 670.41015625 481.4453125 652.587890625 c 0,79,80
 506.34765625 634.765625 506.34765625 634.765625 520.751953125 606.4453125 c 0,81,82
 535.15625 578.125 535.15625 578.125 535.15625 538.0859375 c 0,0,1
EndSplineSet
EndChar

StartChar: three
Encoding: 22 51 22
Width: 556
VWidth: 488
Flags: W
LayerCount: 2
Fore
SplineSet
535.15625 544.921875 m 0,0,1
 535.15625 518.5546875 535.15625 518.5546875 524.169921875 491.455078125 c 0,2,3
 513.18359375 464.35546875 513.18359375 464.35546875 490.72265625 439.453125 c 0,4,5
 468.26171875 414.55078125 468.26171875 414.55078125 433.349609375 393.5546875 c 0,6,7
 398.4375 372.55859375 398.4375 372.55859375 351.07421875 357.91015625 c 0,8,9
 383.7890625 353.02734375 383.7890625 353.02734375 410.15625 343.505859375 c 0,10,11
 436.5234375 333.984375 436.5234375 333.984375 455.078125 318.359375 c 0,12,13
 473.6328125 302.734375 473.6328125 302.734375 483.88671875 280.76171875 c 0,14,15
 494.140625 258.7890625 494.140625 258.7890625 494.140625 229.00390625 c 0,16,17
 494.140625 181.15234375 494.140625 181.15234375 471.19140625 136.962890625 c 0,18,19
 448.2421875 92.7734375 448.2421875 92.7734375 407.71484375 58.837890625 c 0,20,21
 367.1875 24.90234375 367.1875 24.90234375 312.01171875 4.39453125 c 0,22,23
 256.8359375 -16.11328125 256.8359375 -16.11328125 192.87109375 -16.11328125 c 0,24,25
 142.08984375 -16.11328125 142.08984375 -16.11328125 106.689453125 -5.126953125 c 0,26,27
 71.2890625 5.859375 71.2890625 5.859375 49.31640625 22.4609375 c 0,28,29
 27.34375 39.0625 27.34375 39.0625 17.578125 58.349609375 c 0,30,31
 7.8125 77.63671875 7.8125 77.63671875 7.8125 94.23828125 c 0,32,33
 7.8125 101.07421875 7.8125 101.07421875 10.986328125 111.083984375 c 0,34,35
 14.16015625 121.09375 14.16015625 121.09375 21.240234375 130.126953125 c 0,36,37
 28.3203125 139.16015625 28.3203125 139.16015625 40.283203125 145.5078125 c 0,38,39
 52.24609375 151.85546875 52.24609375 151.85546875 69.82421875 151.85546875 c 0,40,41
 82.51953125 151.85546875 82.51953125 151.85546875 93.75 149.4140625 c 0,42,43
 104.98046875 146.97265625 104.98046875 146.97265625 113.76953125 143.06640625 c 0,44,-1
 128.90625 58.10546875 l 0,45,46
 132.32421875 55.6640625 132.32421875 55.6640625 139.404296875 51.7578125 c 0,47,48
 146.484375 47.8515625 146.484375 47.8515625 156.25 44.189453125 c 0,49,50
 166.015625 40.52734375 166.015625 40.52734375 177.978515625 37.841796875 c 0,51,52
 189.94140625 35.15625 189.94140625 35.15625 204.1015625 35.15625 c 0,53,54
 240.234375 35.15625 240.234375 35.15625 272.705078125 49.072265625 c 0,55,56
 305.17578125 62.98828125 305.17578125 62.98828125 329.58984375 87.158203125 c 0,57,58
 354.00390625 111.328125 354.00390625 111.328125 368.408203125 143.798828125 c 0,59,60
 382.8125 176.26953125 382.8125 176.26953125 382.8125 213.8671875 c 0,61,62
 382.8125 249.0234375 382.8125 249.0234375 370.361328125 270.5078125 c 0,63,64
 357.91015625 291.9921875 357.91015625 291.9921875 340.33203125 303.22265625 c 0,65,66
 322.75390625 314.453125 322.75390625 314.453125 303.7109375 318.115234375 c 0,67,68
 284.66796875 321.77734375 284.66796875 321.77734375 270.99609375 321.77734375 c 0,69,70
 252.44140625 321.77734375 252.44140625 321.77734375 235.3515625 319.82421875 c 0,71,72
 218.26171875 317.87109375 218.26171875 317.87109375 201.171875 314.94140625 c 0,73,-1
 209.9609375 376.953125 l 0,74,75
 257.8125 374.51171875 257.8125 374.51171875 296.875 385.7421875 c 0,76,77
 335.9375 396.97265625 335.9375 396.97265625 363.76953125 417.96875 c 0,78,79
 391.6015625 438.96484375 391.6015625 438.96484375 406.73828125 468.26171875 c 0,80,81
 421.875 497.55859375 421.875 497.55859375 421.875 532.2265625 c 0,82,83
 421.875 561.5234375 421.875 561.5234375 411.62109375 581.298828125 c 0,84,85
 401.3671875 601.07421875 401.3671875 601.07421875 385.986328125 613.28125 c 0,86,87
 370.60546875 625.48828125 370.60546875 625.48828125 353.02734375 630.859375 c 0,88,89
 335.44921875 636.23046875 335.44921875 636.23046875 320.80078125 636.23046875 c 0,90,91
 304.6875 636.23046875 304.6875 636.23046875 290.52734375 632.8125 c 0,92,93
 276.3671875 629.39453125 276.3671875 629.39453125 265.13671875 624.51171875 c 0,94,95
 253.90625 619.62890625 253.90625 619.62890625 245.361328125 614.2578125 c 0,96,97
 236.81640625 608.88671875 236.81640625 608.88671875 231.93359375 604.98046875 c 0,98,-1
 216.796875 509.765625 l 0,99,100
 213.37890625 508.7890625 213.37890625 508.7890625 207.03125 506.591796875 c 0,101,102
 200.68359375 504.39453125 200.68359375 504.39453125 192.87109375 502.197265625 c 0,103,104
 185.05859375 500 185.05859375 500 177.001953125 498.53515625 c 0,105,106
 168.9453125 497.0703125 168.9453125 497.0703125 162.109375 497.0703125 c 0,107,108
 152.83203125 497.0703125 152.83203125 497.0703125 143.5546875 500 c 0,109,110
 134.27734375 502.9296875 134.27734375 502.9296875 126.708984375 509.033203125 c 0,111,112
 119.140625 515.13671875 119.140625 515.13671875 114.501953125 524.4140625 c 0,113,114
 109.86328125 533.69140625 109.86328125 533.69140625 109.86328125 545.8984375 c 0,115,116
 109.86328125 575.68359375 109.86328125 575.68359375 131.103515625 601.5625 c 0,117,118
 152.34375 627.44140625 152.34375 627.44140625 186.767578125 646.484375 c 0,119,120
 221.19140625 665.52734375 221.19140625 665.52734375 265.13671875 676.26953125 c 0,121,122
 309.08203125 687.01171875 309.08203125 687.01171875 354.00390625 687.01171875 c 0,123,124
 440.91796875 687.01171875 440.91796875 687.01171875 488.037109375 650.87890625 c 0,125,126
 535.15625 614.74609375 535.15625 614.74609375 535.15625 544.921875 c 0,0,1
EndSplineSet
EndChar

StartChar: four
Encoding: 23 52 23
Width: 556
VWidth: 488
Flags: W
LayerCount: 2
Fore
SplineSet
508.7890625 202.1484375 m 0,0,-1
 416.015625 202.1484375 l 0,1,-1
 372.0703125 -26.85546875 l 0,2,-1
 277.83203125 -26.85546875 l 0,3,-1
 323.2421875 202.1484375 l 0,4,-1
 20.99609375 202.1484375 l 0,5,-1
 34.1796875 269.04296875 l 0,6,-1
 437.01171875 687.01171875 l 0,7,-1
 511.23046875 687.01171875 l 0,8,-1
 431.15234375 270.99609375 l 0,9,-1
 521.97265625 270.99609375 l 0,10,-1
 508.7890625 202.1484375 l 0,0,-1
132.8125 270.99609375 m 0,11,-1
 336.9140625 270.99609375 l 0,12,-1
 390.13671875 536.1328125 l 0,13,-1
 132.8125 270.99609375 l 0,11,-1
EndSplineSet
EndChar

StartChar: five
Encoding: 24 53 24
Width: 556
VWidth: 488
Flags: W
LayerCount: 2
Fore
SplineSet
526.85546875 589.84375 m 0,0,-1
 235.83984375 589.84375 l 0,1,-1
 196.77734375 395.99609375 l 0,2,3
 215.33203125 401.3671875 215.33203125 401.3671875 240.966796875 406.25 c 0,4,5
 266.6015625 411.1328125 266.6015625 411.1328125 299.8046875 411.1328125 c 0,6,7
 333.984375 411.1328125 333.984375 411.1328125 367.919921875 403.076171875 c 0,8,9
 401.85546875 395.01953125 401.85546875 395.01953125 428.7109375 375.9765625 c 0,10,11
 455.56640625 356.93359375 455.56640625 356.93359375 472.16796875 326.171875 c 0,12,13
 488.76953125 295.41015625 488.76953125 295.41015625 488.76953125 250 c 0,14,15
 488.76953125 213.8671875 488.76953125 213.8671875 477.5390625 180.17578125 c 0,16,17
 466.30859375 146.484375 466.30859375 146.484375 446.044921875 116.943359375 c 0,18,19
 425.78125 87.40234375 425.78125 87.40234375 397.4609375 62.98828125 c 0,20,21
 369.140625 38.57421875 369.140625 38.57421875 334.47265625 20.99609375 c 0,22,23
 299.8046875 3.41796875 299.8046875 3.41796875 259.765625 -6.34765625 c 0,24,25
 219.7265625 -16.11328125 219.7265625 -16.11328125 176.7578125 -16.11328125 c 0,26,27
 97.16796875 -16.11328125 97.16796875 -16.11328125 53.466796875 9.033203125 c 0,28,29
 9.765625 34.1796875 9.765625 34.1796875 9.765625 77.1484375 c 0,30,31
 9.765625 88.8671875 9.765625 88.8671875 14.16015625 100.09765625 c 0,32,33
 18.5546875 111.328125 18.5546875 111.328125 27.099609375 119.62890625 c 0,34,35
 35.64453125 127.9296875 35.64453125 127.9296875 48.095703125 133.056640625 c 0,36,37
 60.546875 138.18359375 60.546875 138.18359375 77.1484375 138.18359375 c 0,38,39
 85.44921875 138.18359375 85.44921875 138.18359375 93.75 136.962890625 c 0,40,41
 102.05078125 135.7421875 102.05078125 135.7421875 107.91015625 133.7890625 c 0,42,-1
 134.765625 48.828125 l 0,43,44
 150.390625 43.45703125 150.390625 43.45703125 166.015625 39.306640625 c 0,45,46
 181.640625 35.15625 181.640625 35.15625 200.1953125 35.15625 c 0,47,48
 237.79296875 35.15625 237.79296875 35.15625 270.99609375 50.78125 c 0,49,50
 304.19921875 66.40625 304.19921875 66.40625 329.1015625 92.529296875 c 0,51,52
 354.00390625 118.65234375 354.00390625 118.65234375 368.408203125 152.83203125 c 0,53,54
 382.8125 187.01171875 382.8125 187.01171875 382.8125 224.12109375 c 0,55,56
 382.8125 261.71875 382.8125 261.71875 368.65234375 286.1328125 c 0,57,58
 354.4921875 310.546875 354.4921875 310.546875 331.0546875 324.951171875 c 0,59,60
 307.6171875 339.35546875 307.6171875 339.35546875 277.83203125 345.21484375 c 0,61,62
 248.046875 351.07421875 248.046875 351.07421875 216.796875 351.07421875 c 0,63,64
 206.54296875 351.07421875 206.54296875 351.07421875 192.138671875 350.09765625 c 0,65,66
 177.734375 349.12109375 177.734375 349.12109375 162.59765625 347.65625 c 0,67,68
 147.4609375 346.19140625 147.4609375 346.19140625 133.30078125 344.7265625 c 0,69,70
 119.140625 343.26171875 119.140625 343.26171875 108.88671875 341.796875 c 0,71,-1
 175.78125 670.8984375 l 0,72,-1
 541.9921875 670.8984375 l 0,73,-1
 526.85546875 589.84375 l 0,0,-1
EndSplineSet
EndChar

StartChar: six
Encoding: 25 54 25
Width: 556
VWidth: 488
Flags: W
LayerCount: 2
Fore
SplineSet
519.04296875 270.99609375 m 0,0,1
 519.04296875 212.890625 519.04296875 212.890625 497.802734375 160.888671875 c 0,2,3
 476.5625 108.88671875 476.5625 108.88671875 439.453125 69.580078125 c 0,4,5
 402.34375 30.2734375 402.34375 30.2734375 352.783203125 7.080078125 c 0,6,7
 303.22265625 -16.11328125 303.22265625 -16.11328125 246.09375 -16.11328125 c 0,8,9
 222.65625 -16.11328125 222.65625 -16.11328125 197.75390625 -11.962890625 c 0,10,11
 172.8515625 -7.8125 172.8515625 -7.8125 149.169921875 2.44140625 c 0,12,13
 125.48828125 12.6953125 125.48828125 12.6953125 104.736328125 29.78515625 c 0,14,15
 83.984375 46.875 83.984375 46.875 68.115234375 72.509765625 c 0,16,17
 52.24609375 98.14453125 52.24609375 98.14453125 43.212890625 133.30078125 c 0,18,19
 34.1796875 168.45703125 34.1796875 168.45703125 34.1796875 214.84375 c 0,20,21
 34.1796875 275.87890625 34.1796875 275.87890625 49.072265625 334.716796875 c 0,22,23
 63.96484375 393.5546875 63.96484375 393.5546875 92.28515625 446.77734375 c 0,24,25
 120.60546875 500 120.60546875 500 161.62109375 545.8984375 c 0,26,27
 202.63671875 591.796875 202.63671875 591.796875 255.126953125 627.197265625 c 0,28,29
 307.6171875 662.59765625 307.6171875 662.59765625 370.60546875 685.791015625 c 0,30,31
 433.59375 708.984375 433.59375 708.984375 505.859375 716.796875 c 0,32,-1
 506.8359375 662.109375 l 0,33,34
 441.89453125 654.78515625 441.89453125 654.78515625 387.20703125 631.8359375 c 0,35,36
 332.51953125 608.88671875 332.51953125 608.88671875 290.0390625 574.21875 c 0,37,38
 247.55859375 539.55078125 247.55859375 539.55078125 218.017578125 495.1171875 c 0,39,40
 188.4765625 450.68359375 188.4765625 450.68359375 174.8046875 400.87890625 c 0,41,42
 211.42578125 425.29296875 211.42578125 425.29296875 250.9765625 438.720703125 c 0,43,44
 290.52734375 452.1484375 290.52734375 452.1484375 335.9375 452.1484375 c 0,45,46
 375.9765625 452.1484375 375.9765625 452.1484375 409.66796875 439.697265625 c 0,47,48
 443.359375 427.24609375 443.359375 427.24609375 467.529296875 403.80859375 c 0,49,50
 491.69921875 380.37109375 491.69921875 380.37109375 505.37109375 346.923828125 c 0,51,52
 519.04296875 313.4765625 519.04296875 313.4765625 519.04296875 270.99609375 c 0,0,1
413.0859375 245.1171875 m 0,53,54
 413.0859375 277.83203125 413.0859375 277.83203125 406.005859375 304.19921875 c 0,55,56
 398.92578125 330.56640625 398.92578125 330.56640625 384.27734375 349.12109375 c 0,57,58
 369.62890625 367.67578125 369.62890625 367.67578125 346.923828125 377.9296875 c 0,59,60
 324.21875 388.18359375 324.21875 388.18359375 292.96875 388.18359375 c 0,61,62
 277.83203125 388.18359375 277.83203125 388.18359375 262.6953125 385.7421875 c 0,63,64
 247.55859375 383.30078125 247.55859375 383.30078125 231.4453125 377.197265625 c 0,65,66
 215.33203125 371.09375 215.33203125 371.09375 197.509765625 361.083984375 c 0,67,68
 179.6875 351.07421875 179.6875 351.07421875 160.15625 335.9375 c 0,69,70
 159.1796875 331.0546875 159.1796875 331.0546875 155.76171875 316.650390625 c 0,71,72
 152.34375 302.24609375 152.34375 302.24609375 148.92578125 283.203125 c 0,73,74
 145.5078125 264.16015625 145.5078125 264.16015625 142.822265625 243.1640625 c 0,75,76
 140.13671875 222.16796875 140.13671875 222.16796875 140.13671875 204.1015625 c 0,77,78
 140.13671875 178.7109375 140.13671875 178.7109375 144.53125 148.92578125 c 0,79,80
 148.92578125 119.140625 148.92578125 119.140625 161.1328125 93.75 c 0,81,82
 173.33984375 68.359375 173.33984375 68.359375 194.82421875 51.26953125 c 0,83,84
 216.30859375 34.1796875 216.30859375 34.1796875 250.9765625 34.1796875 c 0,85,86
 282.2265625 34.1796875 282.2265625 34.1796875 311.5234375 51.26953125 c 0,87,88
 340.8203125 68.359375 340.8203125 68.359375 363.525390625 97.412109375 c 0,89,90
 386.23046875 126.46484375 386.23046875 126.46484375 399.658203125 164.794921875 c 0,91,92
 413.0859375 203.125 413.0859375 203.125 413.0859375 245.1171875 c 0,53,54
EndSplineSet
EndChar

StartChar: seven
Encoding: 26 55 26
Width: 556
VWidth: 488
Flags: W
LayerCount: 2
Fore
SplineSet
596.19140625 627.9296875 m 0,0,-1
 141.11328125 -14.16015625 l 0,1,-1
 134.765625 -37.109375 l 0,2,-1
 36.1328125 -37.109375 l 0,3,-1
 480.95703125 589.84375 l 0,4,-1
 189.94140625 589.84375 l 0,5,-1
 158.203125 500 l 0,6,-1
 94.23828125 500 l 0,7,-1
 127.9296875 670.8984375 l 0,8,-1
 604.00390625 670.8984375 l 0,9,-1
 596.19140625 627.9296875 l 0,0,-1
EndSplineSet
EndChar

StartChar: eight
Encoding: 27 56 27
Width: 556
VWidth: 488
Flags: W
LayerCount: 2
Fore
SplineSet
529.78515625 545.8984375 m 0,0,1
 529.78515625 506.34765625 529.78515625 506.34765625 517.822265625 477.05078125 c 0,2,3
 505.859375 447.75390625 505.859375 447.75390625 485.3515625 425.78125 c 0,4,5
 464.84375 403.80859375 464.84375 403.80859375 437.5 387.20703125 c 0,6,7
 410.15625 370.60546875 410.15625 370.60546875 379.8828125 356.93359375 c 0,8,9
 399.4140625 348.14453125 399.4140625 348.14453125 421.38671875 335.693359375 c 0,10,11
 443.359375 323.2421875 443.359375 323.2421875 461.9140625 305.17578125 c 0,12,13
 480.46875 287.109375 480.46875 287.109375 492.67578125 263.427734375 c 0,14,15
 504.8828125 239.74609375 504.8828125 239.74609375 504.8828125 208.984375 c 0,16,17
 504.8828125 162.59765625 504.8828125 162.59765625 483.642578125 121.826171875 c 0,18,19
 462.40234375 81.0546875 462.40234375 81.0546875 425.048828125 50.29296875 c 0,20,21
 387.6953125 19.53125 387.6953125 19.53125 337.158203125 1.708984375 c 0,22,23
 286.62109375 -16.11328125 286.62109375 -16.11328125 228.02734375 -16.11328125 c 0,24,25
 176.7578125 -16.11328125 176.7578125 -16.11328125 136.962890625 -4.39453125 c 0,26,27
 97.16796875 7.32421875 97.16796875 7.32421875 70.068359375 29.052734375 c 0,28,29
 42.96875 50.78125 42.96875 50.78125 29.052734375 81.0546875 c 0,30,31
 15.13671875 111.328125 15.13671875 111.328125 15.13671875 147.94921875 c 0,32,33
 15.13671875 172.36328125 15.13671875 172.36328125 23.4375 199.70703125 c 0,34,35
 31.73828125 227.05078125 31.73828125 227.05078125 51.513671875 254.39453125 c 0,36,37
 71.2890625 281.73828125 71.2890625 281.73828125 103.759765625 307.373046875 c 0,38,39
 136.23046875 333.0078125 136.23046875 333.0078125 184.08203125 354.00390625 c 0,40,41
 158.69140625 367.67578125 158.69140625 367.67578125 142.822265625 383.056640625 c 0,42,43
 126.953125 398.4375 126.953125 398.4375 118.1640625 414.55078125 c 0,44,45
 109.375 430.6640625 109.375 430.6640625 106.201171875 446.77734375 c 0,46,47
 103.02734375 462.890625 103.02734375 462.890625 103.02734375 478.02734375 c 0,48,49
 103.02734375 519.04296875 103.02734375 519.04296875 119.873046875 556.884765625 c 0,50,51
 136.71875 594.7265625 136.71875 594.7265625 168.212890625 623.779296875 c 0,52,53
 199.70703125 652.83203125 199.70703125 652.83203125 245.1171875 669.921875 c 0,54,55
 290.52734375 687.01171875 290.52734375 687.01171875 347.16796875 687.01171875 c 0,56,57
 392.578125 687.01171875 392.578125 687.01171875 426.7578125 676.025390625 c 0,58,59
 460.9375 665.0390625 460.9375 665.0390625 483.88671875 645.99609375 c 0,60,61
 506.8359375 626.953125 506.8359375 626.953125 518.310546875 601.318359375 c 0,62,63
 529.78515625 575.68359375 529.78515625 575.68359375 529.78515625 545.8984375 c 0,0,1
435.05859375 537.109375 m 0,64,65
 435.05859375 560.05859375 435.05859375 560.05859375 428.22265625 578.857421875 c 0,66,67
 421.38671875 597.65625 421.38671875 597.65625 408.935546875 611.083984375 c 0,68,69
 396.484375 624.51171875 396.484375 624.51171875 378.41796875 631.8359375 c 0,70,71
 360.3515625 639.16015625 360.3515625 639.16015625 337.890625 639.16015625 c 0,72,73
 310.05859375 639.16015625 310.05859375 639.16015625 285.400390625 628.173828125 c 0,74,75
 260.7421875 617.1875 260.7421875 617.1875 242.431640625 598.14453125 c 0,76,77
 224.12109375 579.1015625 224.12109375 579.1015625 213.623046875 553.7109375 c 0,78,79
 203.125 528.3203125 203.125 528.3203125 203.125 500 c 0,80,81
 203.125 479.4921875 203.125 479.4921875 212.158203125 462.40234375 c 0,82,83
 221.19140625 445.3125 221.19140625 445.3125 237.79296875 430.6640625 c 0,84,85
 254.39453125 416.015625 254.39453125 416.015625 278.076171875 403.076171875 c 0,86,87
 301.7578125 390.13671875 301.7578125 390.13671875 331.0546875 377.9296875 c 0,88,89
 354.4921875 390.13671875 354.4921875 390.13671875 373.53515625 406.494140625 c 0,90,91
 392.578125 422.8515625 392.578125 422.8515625 406.25 442.626953125 c 0,92,93
 419.921875 462.40234375 419.921875 462.40234375 427.490234375 486.083984375 c 0,94,95
 435.05859375 509.765625 435.05859375 509.765625 435.05859375 537.109375 c 0,64,65
397.94921875 182.12890625 m 0,96,97
 397.94921875 205.56640625 397.94921875 205.56640625 383.544921875 225.5859375 c 0,98,99
 369.140625 245.60546875 369.140625 245.60546875 345.458984375 263.18359375 c 0,100,101
 321.77734375 280.76171875 321.77734375 280.76171875 291.259765625 296.630859375 c 0,102,103
 260.7421875 312.5 260.7421875 312.5 229.00390625 327.1484375 c 0,104,105
 204.58984375 313.96484375 204.58984375 313.96484375 183.837890625 297.36328125 c 0,106,107
 163.0859375 280.76171875 163.0859375 280.76171875 147.705078125 260.7421875 c 0,108,109
 132.32421875 240.72265625 132.32421875 240.72265625 123.779296875 217.041015625 c 0,110,111
 115.234375 193.359375 115.234375 193.359375 115.234375 166.015625 c 0,112,113
 115.234375 139.6484375 115.234375 139.6484375 124.0234375 116.455078125 c 0,114,115
 132.8125 93.26171875 132.8125 93.26171875 149.658203125 75.927734375 c 0,116,117
 166.50390625 58.59375 166.50390625 58.59375 190.673828125 48.33984375 c 0,118,119
 214.84375 38.0859375 214.84375 38.0859375 246.09375 38.0859375 c 0,120,121
 277.83203125 38.0859375 277.83203125 38.0859375 305.6640625 50.537109375 c 0,122,123
 333.49609375 62.98828125 333.49609375 62.98828125 354.00390625 83.0078125 c 0,124,125
 374.51171875 103.02734375 374.51171875 103.02734375 386.23046875 128.90625 c 0,126,127
 397.94921875 154.78515625 397.94921875 154.78515625 397.94921875 182.12890625 c 0,96,97
EndSplineSet
EndChar

StartChar: nine
Encoding: 28 57 28
Width: 556
VWidth: 488
Flags: W
LayerCount: 2
Fore
SplineSet
557.12890625 478.02734375 m 0,0,1
 557.12890625 404.296875 557.12890625 404.296875 536.376953125 341.064453125 c 0,2,3
 515.625 277.83203125 515.625 277.83203125 479.736328125 224.365234375 c 0,4,5
 443.84765625 170.8984375 443.84765625 170.8984375 395.751953125 127.197265625 c 0,6,7
 347.65625 83.49609375 347.65625 83.49609375 293.212890625 48.828125 c 0,8,9
 238.76953125 14.16015625 238.76953125 14.16015625 180.6640625 -11.71875 c 0,10,11
 122.55859375 -37.59765625 122.55859375 -37.59765625 66.89453125 -55.17578125 c 0,12,-1
 45.8984375 -7.8125 l 0,13,14
 99.12109375 12.6953125 99.12109375 12.6953125 147.4609375 36.376953125 c 0,15,16
 195.80078125 60.05859375 195.80078125 60.05859375 239.990234375 92.041015625 c 0,17,18
 284.1796875 124.0234375 284.1796875 124.0234375 324.21875 167.48046875 c 0,19,20
 364.2578125 210.9375 364.2578125 210.9375 400.87890625 270.99609375 c 0,21,22
 384.27734375 262.6953125 384.27734375 262.6953125 365.72265625 254.8828125 c 0,23,24
 347.16796875 247.0703125 347.16796875 247.0703125 327.63671875 241.2109375 c 0,25,26
 308.10546875 235.3515625 308.10546875 235.3515625 287.59765625 231.689453125 c 0,27,28
 267.08984375 228.02734375 267.08984375 228.02734375 247.0703125 228.02734375 c 0,29,30
 215.8203125 228.02734375 215.8203125 228.02734375 183.59375 237.548828125 c 0,31,32
 151.3671875 247.0703125 151.3671875 247.0703125 125 268.06640625 c 0,33,34
 98.6328125 289.0625 98.6328125 289.0625 81.787109375 322.75390625 c 0,35,36
 64.94140625 356.4453125 64.94140625 356.4453125 64.94140625 404.78515625 c 0,37,38
 64.94140625 463.37890625 64.94140625 463.37890625 86.9140625 514.892578125 c 0,39,40
 108.88671875 566.40625 108.88671875 566.40625 147.705078125 604.4921875 c 0,41,42
 186.5234375 642.578125 186.5234375 642.578125 239.2578125 664.794921875 c 0,43,44
 291.9921875 687.01171875 291.9921875 687.01171875 353.02734375 687.01171875 c 0,45,46
 370.1171875 687.01171875 370.1171875 687.01171875 392.08984375 684.5703125 c 0,47,48
 414.0625 682.12890625 414.0625 682.12890625 436.5234375 674.31640625 c 0,49,50
 458.984375 666.50390625 458.984375 666.50390625 480.712890625 652.34375 c 0,51,52
 502.44140625 638.18359375 502.44140625 638.18359375 519.53125 614.990234375 c 0,53,54
 536.62109375 591.796875 536.62109375 591.796875 546.875 558.10546875 c 0,55,56
 557.12890625 524.4140625 557.12890625 524.4140625 557.12890625 478.02734375 c 0,0,1
451.171875 477.05078125 m 0,57,58
 451.171875 525.87890625 451.171875 525.87890625 439.94140625 557.373046875 c 0,59,60
 428.7109375 588.8671875 428.7109375 588.8671875 411.62109375 607.177734375 c 0,61,62
 394.53125 625.48828125 394.53125 625.48828125 374.267578125 632.32421875 c 0,63,64
 354.00390625 639.16015625 354.00390625 639.16015625 335.9375 639.16015625 c 0,65,66
 302.734375 639.16015625 302.734375 639.16015625 273.4375 621.58203125 c 0,67,68
 244.140625 604.00390625 244.140625 604.00390625 221.923828125 574.462890625 c 0,69,70
 199.70703125 544.921875 199.70703125 544.921875 186.767578125 506.103515625 c 0,71,72
 173.828125 467.28515625 173.828125 467.28515625 173.828125 424.8046875 c 0,73,74
 173.828125 387.6953125 173.828125 387.6953125 185.05859375 361.81640625 c 0,75,76
 196.2890625 335.9375 196.2890625 335.9375 213.623046875 319.580078125 c 0,77,78
 230.95703125 303.22265625 230.95703125 303.22265625 251.708984375 295.654296875 c 0,79,80
 272.4609375 288.0859375 272.4609375 288.0859375 291.9921875 288.0859375 c 0,81,82
 318.84765625 288.0859375 318.84765625 288.0859375 342.7734375 296.142578125 c 0,83,84
 366.69921875 304.19921875 366.69921875 304.19921875 385.498046875 314.697265625 c 0,85,86
 404.296875 325.1953125 404.296875 325.1953125 416.50390625 335.205078125 c 0,87,88
 428.7109375 345.21484375 428.7109375 345.21484375 432.12890625 349.12109375 c 0,89,90
 437.5 379.8828125 437.5 379.8828125 444.3359375 412.59765625 c 0,91,92
 451.171875 445.3125 451.171875 445.3125 451.171875 477.05078125 c 0,57,58
EndSplineSet
EndChar

StartChar: colon
Encoding: 29 58 29
Width: 279
VWidth: 488
Flags: W
LayerCount: 2
Fore
SplineSet
225.09765625 426.7578125 m 0,0,1
 225.09765625 413.0859375 225.09765625 413.0859375 219.7265625 400.87890625 c 0,2,3
 214.35546875 388.671875 214.35546875 388.671875 205.078125 379.638671875 c 0,4,5
 195.80078125 370.60546875 195.80078125 370.60546875 183.349609375 365.234375 c 0,6,7
 170.8984375 359.86328125 170.8984375 359.86328125 157.2265625 359.86328125 c 0,8,9
 143.06640625 359.86328125 143.06640625 359.86328125 130.859375 365.234375 c 0,10,11
 118.65234375 370.60546875 118.65234375 370.60546875 109.619140625 379.638671875 c 0,12,13
 100.5859375 388.671875 100.5859375 388.671875 95.21484375 400.87890625 c 0,14,15
 89.84375 413.0859375 89.84375 413.0859375 89.84375 426.7578125 c 0,16,17
 89.84375 440.4296875 89.84375 440.4296875 95.21484375 452.880859375 c 0,18,19
 100.5859375 465.33203125 100.5859375 465.33203125 109.619140625 474.365234375 c 0,20,21
 118.65234375 483.3984375 118.65234375 483.3984375 130.859375 488.76953125 c 0,22,23
 143.06640625 494.140625 143.06640625 494.140625 157.2265625 494.140625 c 0,24,25
 170.8984375 494.140625 170.8984375 494.140625 183.349609375 488.76953125 c 0,26,27
 195.80078125 483.3984375 195.80078125 483.3984375 205.078125 474.365234375 c 0,28,29
 214.35546875 465.33203125 214.35546875 465.33203125 219.7265625 452.880859375 c 0,30,31
 225.09765625 440.4296875 225.09765625 440.4296875 225.09765625 426.7578125 c 0,0,1
151.85546875 55.17578125 m 0,32,33
 151.85546875 41.015625 151.85546875 41.015625 146.484375 28.80859375 c 0,34,35
 141.11328125 16.6015625 141.11328125 16.6015625 131.8359375 7.568359375 c 0,36,37
 122.55859375 -1.46484375 122.55859375 -1.46484375 110.107421875 -6.8359375 c 0,38,39
 97.65625 -12.20703125 97.65625 -12.20703125 83.984375 -12.20703125 c 0,40,41
 69.82421875 -12.20703125 69.82421875 -12.20703125 57.861328125 -6.8359375 c 0,42,43
 45.8984375 -1.46484375 45.8984375 -1.46484375 36.62109375 7.568359375 c 0,44,45
 27.34375 16.6015625 27.34375 16.6015625 22.216796875 28.80859375 c 0,46,47
 17.08984375 41.015625 17.08984375 41.015625 17.08984375 55.17578125 c 0,48,49
 17.08984375 68.84765625 17.08984375 68.84765625 22.216796875 81.0546875 c 0,50,51
 27.34375 93.26171875 27.34375 93.26171875 36.62109375 102.294921875 c 0,52,53
 45.8984375 111.328125 45.8984375 111.328125 57.861328125 116.69921875 c 0,54,55
 69.82421875 122.0703125 69.82421875 122.0703125 83.984375 122.0703125 c 0,56,57
 97.65625 122.0703125 97.65625 122.0703125 110.107421875 116.69921875 c 0,58,59
 122.55859375 111.328125 122.55859375 111.328125 131.8359375 102.294921875 c 0,60,61
 141.11328125 93.26171875 141.11328125 93.26171875 146.484375 81.0546875 c 0,62,63
 151.85546875 68.84765625 151.85546875 68.84765625 151.85546875 55.17578125 c 0,32,33
EndSplineSet
EndChar

StartChar: semicolon
Encoding: 30 59 30
Width: 279
VWidth: 488
Flags: W
LayerCount: 2
Fore
SplineSet
225.09765625 426.7578125 m 0,0,1
 225.09765625 413.0859375 225.09765625 413.0859375 219.7265625 400.87890625 c 0,2,3
 214.35546875 388.671875 214.35546875 388.671875 205.078125 379.638671875 c 0,4,5
 195.80078125 370.60546875 195.80078125 370.60546875 183.349609375 365.234375 c 0,6,7
 170.8984375 359.86328125 170.8984375 359.86328125 157.2265625 359.86328125 c 0,8,9
 143.06640625 359.86328125 143.06640625 359.86328125 130.859375 365.234375 c 0,10,11
 118.65234375 370.60546875 118.65234375 370.60546875 109.619140625 379.638671875 c 0,12,13
 100.5859375 388.671875 100.5859375 388.671875 95.21484375 400.87890625 c 0,14,15
 89.84375 413.0859375 89.84375 413.0859375 89.84375 426.7578125 c 0,16,17
 89.84375 440.4296875 89.84375 440.4296875 95.21484375 452.880859375 c 0,18,19
 100.5859375 465.33203125 100.5859375 465.33203125 109.619140625 474.365234375 c 0,20,21
 118.65234375 483.3984375 118.65234375 483.3984375 130.859375 488.76953125 c 0,22,23
 143.06640625 494.140625 143.06640625 494.140625 157.2265625 494.140625 c 0,24,25
 170.8984375 494.140625 170.8984375 494.140625 183.349609375 488.76953125 c 0,26,27
 195.80078125 483.3984375 195.80078125 483.3984375 205.078125 474.365234375 c 0,28,29
 214.35546875 465.33203125 214.35546875 465.33203125 219.7265625 452.880859375 c 0,30,31
 225.09765625 440.4296875 225.09765625 440.4296875 225.09765625 426.7578125 c 0,0,1
159.1796875 47.8515625 m 0,32,33
 159.1796875 5.37109375 159.1796875 5.37109375 141.11328125 -32.71484375 c 0,34,35
 123.046875 -70.80078125 123.046875 -70.80078125 93.017578125 -100.09765625 c 0,36,37
 62.98828125 -129.39453125 62.98828125 -129.39453125 24.4140625 -147.94921875 c 0,38,39
 -14.16015625 -166.50390625 -14.16015625 -166.50390625 -55.17578125 -169.921875 c 0,40,-1
 -47.8515625 -133.7890625 l 0,41,42
 -17.08984375 -127.44140625 -17.08984375 -127.44140625 6.103515625 -116.2109375 c 0,43,44
 29.296875 -104.98046875 29.296875 -104.98046875 46.142578125 -88.134765625 c 0,45,46
 62.98828125 -71.2890625 62.98828125 -71.2890625 73.73046875 -47.8515625 c 0,47,48
 84.47265625 -24.4140625 84.47265625 -24.4140625 89.84375 6.8359375 c 0,49,-1
 26.85546875 6.8359375 l 0,50,51
 21.484375 13.671875 21.484375 13.671875 19.287109375 23.193359375 c 0,52,53
 17.08984375 32.71484375 17.08984375 32.71484375 17.08984375 41.015625 c 0,54,55
 17.08984375 55.6640625 17.08984375 55.6640625 23.4375 70.068359375 c 0,56,57
 29.78515625 84.47265625 29.78515625 84.47265625 40.52734375 96.19140625 c 0,58,59
 51.26953125 107.91015625 51.26953125 107.91015625 65.185546875 114.990234375 c 0,60,61
 79.1015625 122.0703125 79.1015625 122.0703125 94.23828125 122.0703125 c 0,62,63
 111.328125 122.0703125 111.328125 122.0703125 123.779296875 116.455078125 c 0,64,65
 136.23046875 110.83984375 136.23046875 110.83984375 144.04296875 100.830078125 c 0,66,67
 151.85546875 90.8203125 151.85546875 90.8203125 155.517578125 77.1484375 c 0,68,69
 159.1796875 63.4765625 159.1796875 63.4765625 159.1796875 47.8515625 c 0,32,33
EndSplineSet
EndChar

StartChar: less
Encoding: 31 60 31
Width: 1000
VWidth: 488
Flags: W
LayerCount: 2
Fore
SplineSet
200.1953125 269.04296875 m 0,0,-1
 200.1953125 331.0546875 l 0,1,-1
 799.8046875 561.03515625 l 0,2,-1
 799.8046875 499.0234375 l 0,3,-1
 264.16015625 299.8046875 l 0,4,-1
 799.8046875 101.07421875 l 0,5,-1
 799.8046875 39.0625 l 0,6,-1
 200.1953125 269.04296875 l 0,0,-1
EndSplineSet
EndChar

StartChar: equal
Encoding: 32 61 32
Width: 1000
VWidth: 488
Flags: W
LayerCount: 2
Fore
SplineSet
200.1953125 359.86328125 m 0,0,-1
 200.1953125 421.875 l 0,1,-1
 799.8046875 421.875 l 0,2,-1
 799.8046875 359.86328125 l 0,3,-1
 200.1953125 359.86328125 l 0,0,-1
200.1953125 178.22265625 m 0,4,-1
 200.1953125 240.234375 l 0,5,-1
 799.8046875 240.234375 l 0,6,-1
 799.8046875 178.22265625 l 0,7,-1
 200.1953125 178.22265625 l 0,4,-1
EndSplineSet
EndChar

StartChar: greater
Encoding: 33 62 33
Width: 1000
VWidth: 488
Flags: W
LayerCount: 2
Fore
SplineSet
200.1953125 39.0625 m 0,0,-1
 200.1953125 101.07421875 l 0,1,-1
 735.83984375 299.8046875 l 0,2,-1
 200.1953125 499.0234375 l 0,3,-1
 200.1953125 561.03515625 l 0,4,-1
 799.8046875 331.0546875 l 0,5,-1
 799.8046875 269.04296875 l 0,6,-1
 200.1953125 39.0625 l 0,0,-1
EndSplineSet
EndChar

StartChar: question
Encoding: 34 63 34
Width: 485
VWidth: 488
Flags: W
LayerCount: 2
Fore
SplineSet
462.890625 542.96875 m 0,0,1
 462.890625 492.67578125 462.890625 492.67578125 442.626953125 452.880859375 c 0,2,3
 422.36328125 413.0859375 422.36328125 413.0859375 389.892578125 382.080078125 c 0,4,5
 357.421875 351.07421875 357.421875 351.07421875 316.650390625 327.880859375 c 0,6,7
 275.87890625 304.6875 275.87890625 304.6875 234.86328125 288.0859375 c 0,8,-1
 211.9140625 168.9453125 l 0,9,-1
 145.01953125 168.9453125 l 0,10,-1
 171.875 317.87109375 l 0,11,12
 206.0546875 328.61328125 206.0546875 328.61328125 238.76953125 347.900390625 c 0,13,14
 271.484375 367.1875 271.484375 367.1875 297.119140625 394.287109375 c 0,15,16
 322.75390625 421.38671875 322.75390625 421.38671875 338.37890625 456.298828125 c 0,17,18
 354.00390625 491.2109375 354.00390625 491.2109375 354.00390625 533.203125 c 0,19,20
 354.00390625 584.47265625 354.00390625 584.47265625 326.171875 610.83984375 c 0,21,22
 298.33984375 637.20703125 298.33984375 637.20703125 250 637.20703125 c 0,23,-1
 188.96484375 538.0859375 l 0,24,-1
 160.15625 538.0859375 l 0,25,26
 134.27734375 538.0859375 134.27734375 538.0859375 119.62890625 548.828125 c 0,27,28
 104.98046875 559.5703125 104.98046875 559.5703125 104.98046875 579.1015625 c 0,29,30
 104.98046875 593.75 104.98046875 593.75 113.525390625 612.548828125 c 0,31,32
 122.0703125 631.34765625 122.0703125 631.34765625 142.578125 647.705078125 c 0,33,34
 163.0859375 664.0625 163.0859375 664.0625 196.533203125 675.537109375 c 0,35,36
 229.98046875 687.01171875 229.98046875 687.01171875 279.78515625 687.01171875 c 0,37,38
 324.21875 687.01171875 324.21875 687.01171875 358.3984375 677.001953125 c 0,39,40
 392.578125 666.9921875 392.578125 666.9921875 415.771484375 648.193359375 c 0,41,42
 438.96484375 629.39453125 438.96484375 629.39453125 450.927734375 602.783203125 c 0,43,44
 462.890625 576.171875 462.890625 576.171875 462.890625 542.96875 c 0,0,1
227.05078125 43.9453125 m 0,45,46
 227.05078125 32.2265625 227.05078125 32.2265625 222.900390625 21.484375 c 0,47,48
 218.75 10.7421875 218.75 10.7421875 210.44921875 2.44140625 c 0,49,50
 202.1484375 -5.859375 202.1484375 -5.859375 190.185546875 -10.986328125 c 0,51,52
 178.22265625 -16.11328125 178.22265625 -16.11328125 163.0859375 -16.11328125 c 0,53,54
 147.4609375 -16.11328125 147.4609375 -16.11328125 135.009765625 -11.23046875 c 0,55,56
 122.55859375 -6.34765625 122.55859375 -6.34765625 114.013671875 1.953125 c 0,57,58
 105.46875 10.25390625 105.46875 10.25390625 100.830078125 20.751953125 c 0,59,60
 96.19140625 31.25 96.19140625 31.25 96.19140625 42.96875 c 0,61,62
 96.19140625 54.6875 96.19140625 54.6875 100.830078125 65.673828125 c 0,63,64
 105.46875 76.66015625 105.46875 76.66015625 114.013671875 85.205078125 c 0,65,66
 122.55859375 93.75 122.55859375 93.75 135.009765625 98.876953125 c 0,67,68
 147.4609375 104.00390625 147.4609375 104.00390625 163.0859375 104.00390625 c 0,69,70
 178.22265625 104.00390625 178.22265625 104.00390625 190.185546875 99.12109375 c 0,71,72
 202.1484375 94.23828125 202.1484375 94.23828125 210.44921875 85.693359375 c 0,73,74
 218.75 77.1484375 218.75 77.1484375 222.900390625 66.40625 c 0,75,76
 227.05078125 55.6640625 227.05078125 55.6640625 227.05078125 43.9453125 c 0,45,46
EndSplineSet
EndChar

StartChar: at
Encoding: 35 64 35
Width: 936
VWidth: 488
Flags: W
LayerCount: 2
Fore
SplineSet
874.0234375 373.046875 m 0,0,1
 874.0234375 322.265625 874.0234375 322.265625 862.79296875 279.052734375 c 0,2,3
 851.5625 235.83984375 851.5625 235.83984375 832.763671875 200.68359375 c 0,4,5
 813.96484375 165.52734375 813.96484375 165.52734375 789.0625 138.427734375 c 0,6,7
 764.16015625 111.328125 764.16015625 111.328125 736.81640625 93.017578125 c 0,8,9
 709.47265625 74.70703125 709.47265625 74.70703125 681.640625 65.4296875 c 0,10,11
 653.80859375 56.15234375 653.80859375 56.15234375 628.90625 56.15234375 c 0,12,13
 587.40234375 56.15234375 587.40234375 56.15234375 569.091796875 76.904296875 c 0,14,15
 550.78125 97.65625 550.78125 97.65625 550.78125 139.16015625 c 0,16,17
 511.71875 99.609375 511.71875 99.609375 477.05078125 78.369140625 c 0,18,19
 442.3828125 57.12890625 442.3828125 57.12890625 407.2265625 57.12890625 c 0,20,21
 379.8828125 57.12890625 379.8828125 57.12890625 356.93359375 68.603515625 c 0,22,23
 333.984375 80.078125 333.984375 80.078125 317.3828125 101.318359375 c 0,24,25
 300.78125 122.55859375 300.78125 122.55859375 291.50390625 152.587890625 c 0,26,27
 282.2265625 182.6171875 282.2265625 182.6171875 282.2265625 220.21484375 c 0,28,29
 282.2265625 277.34375 282.2265625 277.34375 303.22265625 327.1484375 c 0,30,31
 324.21875 376.953125 324.21875 376.953125 358.88671875 413.57421875 c 0,32,33
 393.5546875 450.1953125 393.5546875 450.1953125 437.98828125 471.19140625 c 0,34,35
 482.421875 492.1875 482.421875 492.1875 529.78515625 492.1875 c 0,36,37
 540.52734375 492.1875 540.52734375 492.1875 553.22265625 490.234375 c 0,38,39
 565.91796875 488.28125 565.91796875 488.28125 578.857421875 484.619140625 c 0,40,41
 591.796875 480.95703125 591.796875 480.95703125 604.4921875 475.830078125 c 0,42,43
 617.1875 470.703125 617.1875 470.703125 627.9296875 464.84375 c 0,44,-1
 645.99609375 487.79296875 l 0,45,-1
 703.125 487.79296875 l 0,46,47
 702.1484375 484.86328125 702.1484375 484.86328125 698.73046875 470.458984375 c 0,48,49
 695.3125 456.0546875 695.3125 456.0546875 690.185546875 434.814453125 c 0,50,51
 685.05859375 413.57421875 685.05859375 413.57421875 678.955078125 386.962890625 c 0,52,53
 672.8515625 360.3515625 672.8515625 360.3515625 666.50390625 333.49609375 c 0,54,55
 651.85546875 270.01953125 651.85546875 270.01953125 633.7890625 190.91796875 c 0,56,57
 629.8828125 173.828125 629.8828125 173.828125 629.8828125 159.423828125 c 0,58,59
 629.8828125 145.01953125 629.8828125 145.01953125 634.27734375 134.765625 c 0,60,61
 638.671875 124.51171875 638.671875 124.51171875 647.705078125 118.65234375 c 0,62,63
 656.73828125 112.79296875 656.73828125 112.79296875 670.8984375 112.79296875 c 0,64,65
 685.546875 112.79296875 685.546875 112.79296875 702.880859375 120.849609375 c 0,66,67
 720.21484375 128.90625 720.21484375 128.90625 737.3046875 144.53125 c 0,68,69
 754.39453125 160.15625 754.39453125 160.15625 770.263671875 182.6171875 c 0,70,71
 786.1328125 205.078125 786.1328125 205.078125 798.33984375 233.88671875 c 0,72,73
 810.546875 262.6953125 810.546875 262.6953125 817.87109375 297.36328125 c 0,74,75
 825.1953125 332.03125 825.1953125 332.03125 825.1953125 372.0703125 c 0,76,77
 825.1953125 418.9453125 825.1953125 418.9453125 814.208984375 457.763671875 c 0,78,79
 803.22265625 496.58203125 803.22265625 496.58203125 783.69140625 527.099609375 c 0,80,81
 764.16015625 557.6171875 764.16015625 557.6171875 737.548828125 580.078125 c 0,82,83
 710.9375 602.5390625 710.9375 602.5390625 679.6875 617.431640625 c 0,84,85
 648.4375 632.32421875 648.4375 632.32421875 613.76953125 639.6484375 c 0,86,87
 579.1015625 646.97265625 579.1015625 646.97265625 543.9453125 646.97265625 c 0,88,89
 486.81640625 646.97265625 486.81640625 646.97265625 435.791015625 633.544921875 c 0,90,91
 384.765625 620.1171875 384.765625 620.1171875 341.552734375 595.458984375 c 0,92,93
 298.33984375 570.80078125 298.33984375 570.80078125 263.427734375 535.64453125 c 0,94,95
 228.515625 500.48828125 228.515625 500.48828125 204.345703125 457.03125 c 0,96,97
 180.17578125 413.57421875 180.17578125 413.57421875 166.9921875 363.037109375 c 0,98,99
 153.80859375 312.5 153.80859375 312.5 153.80859375 256.8359375 c 0,100,101
 153.80859375 180.6640625 153.80859375 180.6640625 177.490234375 114.74609375 c 0,102,103
 201.171875 48.828125 201.171875 48.828125 246.09375 0.48828125 c 0,104,105
 291.015625 -47.8515625 291.015625 -47.8515625 355.95703125 -75.439453125 c 0,106,107
 420.8984375 -103.02734375 420.8984375 -103.02734375 503.90625 -103.02734375 c 0,108,109
 547.8515625 -103.02734375 547.8515625 -103.02734375 586.181640625 -96.19140625 c 0,110,111
 624.51171875 -89.35546875 624.51171875 -89.35546875 657.470703125 -78.61328125 c 0,112,113
 690.4296875 -67.87109375 690.4296875 -67.87109375 718.26171875 -54.6875 c 0,114,115
 746.09375 -41.50390625 746.09375 -41.50390625 769.04296875 -28.80859375 c 0,116,-1
 783.203125 -64.94140625 l 0,117,118
 749.51171875 -83.0078125 749.51171875 -83.0078125 714.111328125 -98.876953125 c 0,119,120
 678.7109375 -114.74609375 678.7109375 -114.74609375 641.357421875 -126.708984375 c 0,121,122
 604.00390625 -138.671875 604.00390625 -138.671875 563.720703125 -145.751953125 c 0,123,124
 523.4375 -152.83203125 523.4375 -152.83203125 479.98046875 -152.83203125 c 0,125,126
 426.26953125 -152.83203125 426.26953125 -152.83203125 376.220703125 -140.625 c 0,127,128
 326.171875 -128.41796875 326.171875 -128.41796875 281.982421875 -105.224609375 c 0,129,130
 237.79296875 -82.03125 237.79296875 -82.03125 201.171875 -48.095703125 c 0,131,132
 164.55078125 -14.16015625 164.55078125 -14.16015625 138.427734375 29.296875 c 0,133,134
 112.3046875 72.75390625 112.3046875 72.75390625 97.65625 125.48828125 c 0,135,136
 83.0078125 178.22265625 83.0078125 178.22265625 83.0078125 238.76953125 c 0,137,138
 83.0078125 312.98828125 83.0078125 312.98828125 100.830078125 375.244140625 c 0,139,140
 118.65234375 437.5 118.65234375 437.5 149.90234375 487.79296875 c 0,141,142
 181.15234375 538.0859375 181.15234375 538.0859375 223.876953125 576.171875 c 0,143,144
 266.6015625 614.2578125 266.6015625 614.2578125 316.650390625 639.6484375 c 0,145,146
 366.69921875 665.0390625 366.69921875 665.0390625 421.630859375 677.978515625 c 0,147,148
 476.5625 690.91796875 476.5625 690.91796875 532.2265625 690.91796875 c 0,149,150
 606.4453125 690.91796875 606.4453125 690.91796875 669.189453125 670.166015625 c 0,151,152
 731.93359375 649.4140625 731.93359375 649.4140625 777.34375 609.130859375 c 0,153,154
 822.75390625 568.84765625 822.75390625 568.84765625 848.388671875 509.521484375 c 0,155,156
 874.0234375 450.1953125 874.0234375 450.1953125 874.0234375 373.046875 c 0,0,1
594.23828125 393.06640625 m 0,157,158
 595.703125 399.4140625 595.703125 399.4140625 591.552734375 409.1796875 c 0,159,160
 587.40234375 418.9453125 587.40234375 418.9453125 579.345703125 427.978515625 c 0,161,162
 571.2890625 437.01171875 571.2890625 437.01171875 559.814453125 443.603515625 c 0,163,164
 548.33984375 450.1953125 548.33984375 450.1953125 535.15625 450.1953125 c 0,165,166
 498.046875 450.1953125 498.046875 450.1953125 468.26171875 432.861328125 c 0,167,168
 438.4765625 415.52734375 438.4765625 415.52734375 417.48046875 385.498046875 c 0,169,170
 396.484375 355.46875 396.484375 355.46875 385.25390625 315.185546875 c 0,171,172
 374.0234375 274.90234375 374.0234375 274.90234375 374.0234375 229.00390625 c 0,173,174
 374.0234375 174.8046875 374.0234375 174.8046875 394.04296875 147.94921875 c 0,175,176
 414.0625 121.09375 414.0625 121.09375 452.1484375 121.09375 c 0,177,178
 468.75 121.09375 468.75 121.09375 483.88671875 127.685546875 c 0,179,180
 499.0234375 134.27734375 499.0234375 134.27734375 511.962890625 144.04296875 c 0,181,182
 524.90234375 153.80859375 524.90234375 153.80859375 535.64453125 165.0390625 c 0,183,184
 546.38671875 176.26953125 546.38671875 176.26953125 554.19921875 186.03515625 c 0,185,-1
 594.23828125 393.06640625 l 0,157,158
EndSplineSet
EndChar

StartChar: A
Encoding: 36 65 36
Width: 672
VWidth: 488
Flags: W
LayerCount: 2
Fore
SplineSet
391.11328125 0 m 0,0,-1
 391.11328125 41.9921875 l 0,1,-1
 437.01171875 46.875 l 0,2,3
 458.984375 49.8046875 458.984375 49.8046875 456.0546875 65.91796875 c 0,4,-1
 425.78125 256.8359375 l 0,5,-1
 199.21875 256.8359375 l 0,6,-1
 97.16796875 65.91796875 l 0,7,8
 91.796875 56.15234375 91.796875 56.15234375 96.923828125 52.24609375 c 0,9,10
 102.05078125 48.33984375 102.05078125 48.33984375 116.2109375 46.875 c 0,11,-1
 162.109375 41.9921875 l 0,12,-1
 162.109375 0 l 0,13,-1
 -53.22265625 0 l 0,14,-1
 -53.22265625 41.9921875 l 0,15,-1
 2.9296875 47.8515625 l 0,16,-1
 372.0703125 687.01171875 l 0,17,-1
 452.1484375 687.01171875 l 0,18,-1
 560.05859375 65.91796875 l 0,19,20
 561.5234375 56.15234375 561.5234375 56.15234375 565.4296875 52.001953125 c 0,21,22
 569.3359375 47.8515625 569.3359375 47.8515625 580.078125 46.875 c 0,23,-1
 625.9765625 41.9921875 l 0,24,-1
 625.9765625 0 l 0,25,-1
 391.11328125 0 l 0,0,-1
374.0234375 563.96484375 m 0,26,-1
 226.07421875 304.19921875 l 0,27,-1
 416.9921875 304.19921875 l 0,28,-1
 374.0234375 563.96484375 l 0,26,-1
EndSplineSet
EndChar

StartChar: B
Encoding: 37 66 37
Width: 606
VWidth: 488
Flags: W
LayerCount: 2
Fore
SplineSet
462.890625 536.1328125 m 0,0,1
 462.890625 583.49609375 462.890625 583.49609375 427.001953125 605.712890625 c 0,2,3
 391.11328125 627.9296875 391.11328125 627.9296875 327.1484375 627.9296875 c 0,4,5
 311.5234375 627.9296875 311.5234375 627.9296875 297.8515625 626.953125 c 0,6,7
 284.1796875 625.9765625 284.1796875 625.9765625 275.87890625 625 c 0,8,-1
 227.05078125 371.09375 l 0,9,10
 232.91015625 370.60546875 232.91015625 370.60546875 239.2578125 370.1171875 c 0,11,-1
 252.44140625 369.62890625 l 0,12,13
 259.27734375 369.62890625 259.27734375 369.62890625 264.892578125 369.384765625 c 0,14,15
 270.5078125 369.140625 270.5078125 369.140625 273.92578125 369.140625 c 0,16,17
 320.80078125 369.140625 320.80078125 369.140625 356.201171875 382.568359375 c 0,18,19
 391.6015625 395.99609375 391.6015625 395.99609375 415.283203125 418.701171875 c 0,20,21
 438.96484375 441.40625 438.96484375 441.40625 450.927734375 471.923828125 c 0,22,23
 462.890625 502.44140625 462.890625 502.44140625 462.890625 536.1328125 c 0,0,1
444.82421875 213.8671875 m 0,24,25
 444.82421875 244.62890625 444.82421875 244.62890625 434.08203125 265.869140625 c 0,26,27
 423.33984375 287.109375 423.33984375 287.109375 403.564453125 300.29296875 c 0,28,29
 383.7890625 313.4765625 383.7890625 313.4765625 355.46875 319.3359375 c 0,30,31
 327.1484375 325.1953125 327.1484375 325.1953125 291.9921875 325.1953125 c 0,32,33
 273.4375 325.1953125 273.4375 325.1953125 253.41796875 323.73046875 c 0,34,35
 233.3984375 322.265625 233.3984375 322.265625 216.796875 319.82421875 c 0,36,-1
 164.0625 47.8515625 l 0,37,38
 169.921875 47.36328125 169.921875 47.36328125 177.978515625 46.875 c 0,39,40
 186.03515625 46.38671875 186.03515625 46.38671875 194.580078125 45.8984375 c 0,41,42
 203.125 45.41015625 203.125 45.41015625 211.42578125 45.166015625 c 0,43,44
 219.7265625 44.921875 219.7265625 44.921875 226.07421875 44.921875 c 0,45,46
 333.49609375 44.921875 333.49609375 44.921875 389.16015625 89.599609375 c 0,47,48
 444.82421875 134.27734375 444.82421875 134.27734375 444.82421875 213.8671875 c 0,24,25
574.21875 542.96875 m 0,49,50
 574.21875 504.39453125 574.21875 504.39453125 561.03515625 474.609375 c 0,51,52
 547.8515625 444.82421875 547.8515625 444.82421875 525.146484375 422.607421875 c 0,53,54
 502.44140625 400.390625 502.44140625 400.390625 471.923828125 384.27734375 c 0,55,56
 441.40625 368.1640625 441.40625 368.1640625 407.2265625 356.93359375 c 0,57,58
 439.94140625 352.5390625 439.94140625 352.5390625 466.796875 343.505859375 c 0,59,60
 493.65234375 334.47265625 493.65234375 334.47265625 513.18359375 318.84765625 c 0,61,62
 532.71484375 303.22265625 532.71484375 303.22265625 543.45703125 280.029296875 c 0,63,64
 554.19921875 256.8359375 554.19921875 256.8359375 554.19921875 224.12109375 c 0,65,66
 554.19921875 162.59765625 554.19921875 162.59765625 531.73828125 119.873046875 c 0,67,68
 509.27734375 77.1484375 509.27734375 77.1484375 469.482421875 50.537109375 c 0,69,70
 429.6875 23.92578125 429.6875 23.92578125 375.732421875 11.962890625 c 0,71,72
 321.77734375 0 321.77734375 0 258.7890625 0 c 0,73,-1
 -15.13671875 0 l 0,74,-1
 -15.13671875 41.9921875 l 0,75,-1
 47.8515625 46.875 l 0,76,77
 57.12890625 47.8515625 57.12890625 47.8515625 61.279296875 52.490234375 c 0,78,79
 65.4296875 57.12890625 65.4296875 57.12890625 66.89453125 65.91796875 c 0,80,-1
 170.8984375 604.00390625 l 0,81,82
 172.36328125 612.3046875 172.36328125 612.3046875 168.45703125 617.67578125 c 0,83,84
 164.55078125 623.046875 164.55078125 623.046875 150.87890625 624.0234375 c 0,85,-1
 95.21484375 628.90625 l 0,86,-1
 95.21484375 670.8984375 l 0,87,-1
 375.9765625 670.8984375 l 0,88,89
 430.17578125 670.8984375 430.17578125 670.8984375 468.017578125 661.865234375 c 0,90,91
 505.859375 652.83203125 505.859375 652.83203125 529.541015625 635.986328125 c 0,92,93
 553.22265625 619.140625 553.22265625 619.140625 563.720703125 595.458984375 c 0,94,95
 574.21875 571.77734375 574.21875 571.77734375 574.21875 542.96875 c 0,49,50
EndSplineSet
EndChar

StartChar: C
Encoding: 38 67 38
Width: 629
VWidth: 488
Flags: W
LayerCount: 2
Fore
SplineSet
617.1875 491.2109375 m 0,0,-1
 558.10546875 491.2109375 l 0,1,-1
 558.10546875 583.984375 l 0,2,3
 558.10546875 591.796875 558.10546875 591.796875 552.490234375 600.09765625 c 0,4,5
 546.875 608.3984375 546.875 608.3984375 540.0390625 610.83984375 c 0,6,7
 538.0859375 611.81640625 538.0859375 611.81640625 531.25 615.966796875 c 0,8,9
 524.4140625 620.1171875 524.4140625 620.1171875 513.427734375 624.51171875 c 0,10,11
 502.44140625 628.90625 502.44140625 628.90625 487.79296875 632.568359375 c 0,12,13
 473.14453125 636.23046875 473.14453125 636.23046875 455.078125 636.23046875 c 0,14,15
 416.50390625 636.23046875 416.50390625 636.23046875 379.39453125 624.0234375 c 0,16,17
 342.28515625 611.81640625 342.28515625 611.81640625 308.837890625 588.8671875 c 0,18,19
 275.390625 565.91796875 275.390625 565.91796875 247.0703125 532.71484375 c 0,20,21
 218.75 499.51171875 218.75 499.51171875 197.998046875 457.275390625 c 0,22,23
 177.24609375 415.0390625 177.24609375 415.0390625 165.52734375 364.2578125 c 0,24,25
 153.80859375 313.4765625 153.80859375 313.4765625 153.80859375 255.859375 c 0,26,27
 153.80859375 199.21875 153.80859375 199.21875 170.166015625 157.71484375 c 0,28,29
 186.5234375 116.2109375 186.5234375 116.2109375 214.35546875 88.8671875 c 0,30,31
 242.1875 61.5234375 242.1875 61.5234375 279.541015625 48.33984375 c 0,32,33
 316.89453125 35.15625 316.89453125 35.15625 358.88671875 35.15625 c 0,34,35
 375 35.15625 375 35.15625 388.18359375 37.353515625 c 0,36,37
 401.3671875 39.55078125 401.3671875 39.55078125 410.888671875 42.48046875 c 0,38,39
 420.41015625 45.41015625 420.41015625 45.41015625 426.26953125 48.095703125 c 0,40,41
 432.12890625 50.78125 432.12890625 50.78125 434.08203125 51.7578125 c 0,42,43
 439.94140625 52.734375 439.94140625 52.734375 447.021484375 58.837890625 c 0,44,45
 454.1015625 64.94140625 454.1015625 64.94140625 457.03125 71.77734375 c 0,46,-1
 500 186.03515625 l 0,47,-1
 559.08203125 186.03515625 l 0,48,-1
 532.2265625 23.92578125 l 0,49,50
 526.3671875 21.97265625 526.3671875 21.97265625 507.080078125 15.625 c 0,51,52
 487.79296875 9.27734375 487.79296875 9.27734375 459.716796875 2.197265625 c 0,53,54
 431.640625 -4.8828125 431.640625 -4.8828125 396.97265625 -10.498046875 c 0,55,56
 362.3046875 -16.11328125 362.3046875 -16.11328125 326.171875 -16.11328125 c 0,57,58
 276.3671875 -16.11328125 276.3671875 -16.11328125 236.328125 -4.8828125 c 0,59,60
 196.2890625 6.34765625 196.2890625 6.34765625 165.52734375 25.87890625 c 0,61,62
 134.765625 45.41015625 134.765625 45.41015625 112.3046875 72.265625 c 0,63,64
 89.84375 99.12109375 89.84375 99.12109375 75.68359375 130.615234375 c 0,65,66
 61.5234375 162.109375 61.5234375 162.109375 54.6875 196.77734375 c 0,67,68
 47.8515625 231.4453125 47.8515625 231.4453125 47.8515625 267.08984375 c 0,69,70
 47.8515625 320.3125 47.8515625 320.3125 61.03515625 372.0703125 c 0,71,72
 74.21875 423.828125 74.21875 423.828125 99.12109375 470.458984375 c 0,73,74
 124.0234375 517.08984375 124.0234375 517.08984375 159.66796875 556.884765625 c 0,75,76
 195.3125 596.6796875 195.3125 596.6796875 239.990234375 625.48828125 c 0,77,78
 284.66796875 654.296875 284.66796875 654.296875 337.646484375 670.654296875 c 0,79,80
 390.625 687.01171875 390.625 687.01171875 450.1953125 687.01171875 c 0,81,82
 474.609375 687.01171875 474.609375 687.01171875 497.0703125 684.326171875 c 0,83,84
 519.53125 681.640625 519.53125 681.640625 542.48046875 676.513671875 c 0,85,86
 565.4296875 671.38671875 565.4296875 671.38671875 590.33203125 663.818359375 c 0,87,88
 615.234375 656.25 615.234375 656.25 644.04296875 646.97265625 c 0,89,-1
 617.1875 491.2109375 l 0,0,-1
EndSplineSet
EndChar

StartChar: D
Encoding: 39 68 39
Width: 670
VWidth: 488
Flags: W
LayerCount: 2
Fore
SplineSet
652.83203125 415.0390625 m 0,0,1
 652.83203125 353.515625 652.83203125 353.515625 638.671875 298.828125 c 0,2,3
 624.51171875 244.140625 624.51171875 244.140625 597.65625 197.998046875 c 0,4,5
 570.80078125 151.85546875 570.80078125 151.85546875 532.470703125 115.234375 c 0,6,7
 494.140625 78.61328125 494.140625 78.61328125 446.044921875 52.978515625 c 0,8,9
 397.94921875 27.34375 397.94921875 27.34375 341.064453125 13.671875 c 0,10,11
 284.1796875 0 284.1796875 0 220.21484375 0 c 0,12,-1
 -15.13671875 0 l 0,13,-1
 -15.13671875 41.9921875 l 0,14,-1
 46.875 46.875 l 0,15,16
 56.640625 47.8515625 56.640625 47.8515625 60.546875 52.490234375 c 0,17,18
 64.453125 57.12890625 64.453125 57.12890625 66.89453125 65.91796875 c 0,19,-1
 170.8984375 604.00390625 l 0,20,21
 172.36328125 612.3046875 172.36328125 612.3046875 168.45703125 617.67578125 c 0,22,23
 164.55078125 623.046875 164.55078125 623.046875 150.87890625 624.0234375 c 0,24,-1
 95.21484375 628.90625 l 0,25,-1
 95.21484375 670.8984375 l 0,26,-1
 333.984375 670.8984375 l 0,27,28
 402.34375 670.8984375 402.34375 670.8984375 460.693359375 657.71484375 c 0,29,30
 519.04296875 644.53125 519.04296875 644.53125 561.767578125 614.2578125 c 0,31,32
 604.4921875 583.984375 604.4921875 583.984375 628.662109375 535.15625 c 0,33,34
 652.83203125 486.328125 652.83203125 486.328125 652.83203125 415.0390625 c 0,0,1
544.921875 423.828125 m 0,35,36
 544.921875 486.328125 544.921875 486.328125 525.87890625 524.4140625 c 0,37,38
 506.8359375 562.5 506.8359375 562.5 474.609375 583.49609375 c 0,39,40
 442.3828125 604.4921875 442.3828125 604.4921875 399.90234375 612.060546875 c 0,41,42
 357.421875 619.62890625 357.421875 619.62890625 311.03515625 621.09375 c 0,43,-1
 274.90234375 621.09375 l 0,44,-1
 165.0390625 51.7578125 l 0,45,-1
 237.79296875 51.7578125 l 0,46,47
 313.4765625 52.734375 313.4765625 52.734375 371.09375 84.228515625 c 0,48,49
 428.7109375 115.72265625 428.7109375 115.72265625 467.28515625 167.48046875 c 0,50,51
 505.859375 219.23828125 505.859375 219.23828125 525.390625 285.888671875 c 0,52,53
 544.921875 352.5390625 544.921875 352.5390625 544.921875 423.828125 c 0,35,36
EndSplineSet
EndChar

StartChar: E
Encoding: 40 69 40
Width: 558
VWidth: 488
Flags: W
LayerCount: 2
Fore
SplineSet
549.8046875 520.99609375 m 0,0,-1
 485.83984375 520.99609375 l 0,1,-1
 485.83984375 602.05078125 l 0,2,3
 485.83984375 612.79296875 485.83984375 612.79296875 481.93359375 616.943359375 c 0,4,5
 478.02734375 621.09375 478.02734375 621.09375 466.796875 621.09375 c 0,6,-1
 274.90234375 621.09375 l 0,7,-1
 229.00390625 375 l 0,8,-1
 362.79296875 375 l 0,9,10
 373.53515625 375 373.53515625 375 379.150390625 379.150390625 c 0,11,12
 384.765625 383.30078125 384.765625 383.30078125 388.18359375 394.04296875 c 0,13,-1
 407.2265625 460.9375 l 0,14,-1
 462.890625 460.9375 l 0,15,-1
 418.9453125 231.93359375 l 0,16,-1
 361.81640625 231.93359375 l 0,17,-1
 372.0703125 303.22265625 l 0,18,19
 375 323.2421875 375 323.2421875 353.02734375 323.2421875 c 0,20,-1
 217.7734375 323.2421875 l 0,21,-1
 166.015625 49.8046875 l 0,22,-1
 400.87890625 49.8046875 l 0,23,24
 411.62109375 49.8046875 411.62109375 49.8046875 417.236328125 55.419921875 c 0,25,26
 422.8515625 61.03515625 422.8515625 61.03515625 425.78125 69.82421875 c 0,27,-1
 457.03125 166.015625 l 0,28,-1
 518.06640625 166.015625 l 0,29,-1
 484.86328125 0 l 0,30,-1
 -15.13671875 0 l 0,31,-1
 -15.13671875 41.9921875 l 0,32,-1
 42.96875 46.875 l 0,33,34
 63.96484375 48.33984375 63.96484375 48.33984375 66.89453125 65.91796875 c 0,35,-1
 170.8984375 604.00390625 l 0,36,37
 172.36328125 612.3046875 172.36328125 612.3046875 168.45703125 617.67578125 c 0,38,39
 164.55078125 623.046875 164.55078125 623.046875 151.85546875 624.0234375 c 0,40,-1
 96.19140625 628.90625 l 0,41,-1
 96.19140625 670.8984375 l 0,42,-1
 580.078125 670.8984375 l 0,43,-1
 549.8046875 520.99609375 l 0,0,-1
EndSplineSet
EndChar

StartChar: F
Encoding: 41 70 41
Width: 514
VWidth: 488
Flags: W
LayerCount: 2
Fore
SplineSet
538.0859375 509.765625 m 0,0,-1
 474.12109375 509.765625 l 0,1,-1
 474.12109375 602.05078125 l 0,2,3
 474.12109375 612.79296875 474.12109375 612.79296875 469.7265625 616.943359375 c 0,4,5
 465.33203125 621.09375 465.33203125 621.09375 454.1015625 621.09375 c 0,6,-1
 274.90234375 621.09375 l 0,7,-1
 226.07421875 363.76953125 l 0,8,-1
 354.00390625 363.76953125 l 0,9,10
 364.74609375 363.76953125 364.74609375 363.76953125 370.1171875 368.1640625 c 0,11,12
 375.48828125 372.55859375 375.48828125 372.55859375 377.9296875 382.8125 c 0,13,-1
 396.97265625 451.171875 l 0,14,-1
 454.1015625 451.171875 l 0,15,-1
 410.15625 223.14453125 l 0,16,-1
 353.02734375 223.14453125 l 0,17,-1
 362.79296875 292.96875 l 0,18,19
 364.74609375 302.734375 364.74609375 302.734375 359.130859375 307.861328125 c 0,20,21
 353.515625 312.98828125 353.515625 312.98828125 342.7734375 312.98828125 c 0,22,-1
 215.8203125 312.98828125 l 0,23,-1
 167.96875 65.91796875 l 0,24,25
 166.50390625 58.59375 166.50390625 58.59375 170.41015625 53.22265625 c 0,26,27
 174.31640625 47.8515625 174.31640625 47.8515625 187.01171875 46.875 c 0,28,-1
 251.953125 41.9921875 l 0,29,-1
 251.953125 0 l 0,30,-1
 -15.13671875 0 l 0,31,-1
 -15.13671875 41.9921875 l 0,32,-1
 41.9921875 46.875 l 0,33,34
 62.5 48.33984375 62.5 48.33984375 66.89453125 65.91796875 c 0,35,-1
 170.8984375 604.00390625 l 0,36,37
 172.36328125 612.3046875 172.36328125 612.3046875 168.45703125 617.67578125 c 0,38,39
 164.55078125 623.046875 164.55078125 623.046875 150.87890625 624.0234375 c 0,40,-1
 95.21484375 628.90625 l 0,41,-1
 95.21484375 670.8984375 l 0,42,-1
 568.84765625 670.8984375 l 0,43,-1
 538.0859375 509.765625 l 0,0,-1
EndSplineSet
EndChar

StartChar: G
Encoding: 42 71 42
Width: 687
VWidth: 488
Flags: W
LayerCount: 2
Fore
SplineSet
618.1640625 276.85546875 m 0,0,1
 608.3984375 275.87890625 608.3984375 275.87890625 601.806640625 271.728515625 c 0,2,3
 595.21484375 267.578125 595.21484375 267.578125 592.7734375 257.8125 c 0,4,-1
 547.8515625 22.94921875 l 0,5,6
 542.96875 21.484375 542.96875 21.484375 530.76171875 18.310546875 c 0,7,8
 518.5546875 15.13671875 518.5546875 15.13671875 501.46484375 10.7421875 c 0,9,10
 484.375 6.34765625 484.375 6.34765625 463.623046875 1.708984375 c 0,11,12
 442.87109375 -2.9296875 442.87109375 -2.9296875 420.41015625 -7.080078125 c 0,13,14
 397.94921875 -11.23046875 397.94921875 -11.23046875 375.244140625 -13.671875 c 0,15,16
 352.5390625 -16.11328125 352.5390625 -16.11328125 332.03125 -16.11328125 c 0,17,18
 274.90234375 -16.11328125 274.90234375 -16.11328125 231.689453125 -2.9296875 c 0,19,20
 188.4765625 10.25390625 188.4765625 10.25390625 156.982421875 32.470703125 c 0,21,22
 125.48828125 54.6875 125.48828125 54.6875 104.4921875 83.740234375 c 0,23,24
 83.49609375 112.79296875 83.49609375 112.79296875 70.80078125 144.53125 c 0,25,26
 58.10546875 176.26953125 58.10546875 176.26953125 52.978515625 208.0078125 c 0,27,28
 47.8515625 239.74609375 47.8515625 239.74609375 47.8515625 268.06640625 c 0,29,30
 47.8515625 332.03125 47.8515625 332.03125 64.94140625 387.939453125 c 0,31,32
 82.03125 443.84765625 82.03125 443.84765625 112.060546875 490.478515625 c 0,33,34
 142.08984375 537.109375 142.08984375 537.109375 182.861328125 573.486328125 c 0,35,36
 223.6328125 609.86328125 223.6328125 609.86328125 271.728515625 635.25390625 c 0,37,38
 319.82421875 660.64453125 319.82421875 660.64453125 372.55859375 673.828125 c 0,39,40
 425.29296875 687.01171875 425.29296875 687.01171875 479.00390625 687.01171875 c 0,41,42
 503.41796875 687.01171875 503.41796875 687.01171875 524.658203125 685.05859375 c 0,43,44
 545.8984375 683.10546875 545.8984375 683.10546875 567.3828125 678.955078125 c 0,45,46
 588.8671875 674.8046875 588.8671875 674.8046875 612.548828125 668.212890625 c 0,47,48
 636.23046875 661.62109375 636.23046875 661.62109375 665.0390625 652.83203125 c 0,49,-1
 633.7890625 492.1875 l 0,50,-1
 565.91796875 492.1875 l 0,51,-1
 568.84765625 583.984375 l 0,52,53
 569.82421875 595.21484375 569.82421875 595.21484375 564.453125 602.294921875 c 0,54,55
 559.08203125 609.375 559.08203125 609.375 549.8046875 611.81640625 c 0,56,57
 547.8515625 612.3046875 547.8515625 612.3046875 541.50390625 615.72265625 c 0,58,59
 535.15625 619.140625 535.15625 619.140625 524.658203125 623.046875 c 0,60,61
 514.16015625 626.953125 514.16015625 626.953125 499.51171875 629.8828125 c 0,62,63
 484.86328125 632.8125 484.86328125 632.8125 466.796875 632.8125 c 0,64,65
 429.19921875 632.8125 429.19921875 632.8125 391.845703125 620.60546875 c 0,66,67
 354.4921875 608.3984375 354.4921875 608.3984375 320.068359375 585.44921875 c 0,68,69
 285.64453125 562.5 285.64453125 562.5 256.103515625 529.052734375 c 0,70,71
 226.5625 495.60546875 226.5625 495.60546875 204.833984375 453.369140625 c 0,72,73
 183.10546875 411.1328125 183.10546875 411.1328125 170.654296875 360.3515625 c 0,74,75
 158.203125 309.5703125 158.203125 309.5703125 158.203125 251.953125 c 0,76,77
 158.203125 211.42578125 158.203125 211.42578125 167.48046875 179.931640625 c 0,78,79
 176.7578125 148.4375 176.7578125 148.4375 192.3828125 124.51171875 c 0,80,81
 208.0078125 100.5859375 208.0078125 100.5859375 228.02734375 83.984375 c 0,82,83
 248.046875 67.3828125 248.046875 67.3828125 269.53125 56.884765625 c 0,84,85
 291.015625 46.38671875 291.015625 46.38671875 312.5 41.748046875 c 0,86,87
 333.984375 37.109375 333.984375 37.109375 352.05078125 37.109375 c 0,88,89
 367.1875 37.109375 367.1875 37.109375 382.568359375 39.0625 c 0,90,91
 397.94921875 41.015625 397.94921875 41.015625 411.62109375 43.9453125 c 0,92,93
 425.29296875 46.875 425.29296875 46.875 436.279296875 49.8046875 c 0,94,95
 447.265625 52.734375 447.265625 52.734375 453.125 54.19921875 c 0,96,-1
 492.1875 257.8125 l 0,97,98
 493.65234375 266.11328125 493.65234375 266.11328125 489.74609375 270.99609375 c 0,99,100
 485.83984375 275.87890625 485.83984375 275.87890625 472.16796875 276.85546875 c 0,101,-1
 416.9921875 282.2265625 l 0,102,-1
 416.9921875 324.21875 l 0,103,-1
 674.8046875 324.21875 l 0,104,-1
 674.8046875 282.2265625 l 0,105,-1
 618.1640625 276.85546875 l 0,0,1
EndSplineSet
EndChar

StartChar: H
Encoding: 43 72 43
Width: 725
VWidth: 488
Flags: W
LayerCount: 2
Fore
SplineSet
708.984375 624.0234375 m 0,0,1
 699.70703125 623.046875 699.70703125 623.046875 693.603515625 618.408203125 c 0,2,3
 687.5 613.76953125 687.5 613.76953125 685.05859375 604.00390625 c 0,4,-1
 581.0546875 65.91796875 l 0,5,6
 579.58984375 58.59375 579.58984375 58.59375 583.49609375 53.22265625 c 0,7,8
 587.40234375 47.8515625 587.40234375 47.8515625 601.07421875 46.875 c 0,9,-1
 657.2265625 41.9921875 l 0,10,-1
 657.2265625 0 l 0,11,-1
 395.99609375 0 l 0,12,-1
 395.99609375 41.9921875 l 0,13,-1
 456.0546875 46.875 l 0,14,15
 464.84375 47.8515625 464.84375 47.8515625 471.6796875 52.490234375 c 0,16,17
 478.515625 57.12890625 478.515625 57.12890625 479.98046875 65.91796875 c 0,18,-1
 529.78515625 326.171875 l 0,19,-1
 217.7734375 326.171875 l 0,20,-1
 167.96875 65.91796875 l 0,21,22
 166.50390625 58.59375 166.50390625 58.59375 170.41015625 53.22265625 c 0,23,24
 174.31640625 47.8515625 174.31640625 47.8515625 187.01171875 46.875 c 0,25,-1
 245.1171875 41.9921875 l 0,26,-1
 245.1171875 0 l 0,27,-1
 -15.13671875 0 l 0,28,-1
 -15.13671875 41.9921875 l 0,29,-1
 41.9921875 46.875 l 0,30,31
 62.5 48.33984375 62.5 48.33984375 66.89453125 65.91796875 c 0,32,-1
 170.8984375 604.00390625 l 0,33,34
 172.36328125 612.3046875 172.36328125 612.3046875 168.45703125 617.67578125 c 0,35,36
 164.55078125 623.046875 164.55078125 623.046875 150.87890625 624.0234375 c 0,37,-1
 95.21484375 628.90625 l 0,38,-1
 95.21484375 670.8984375 l 0,39,-1
 354.98046875 670.8984375 l 0,40,-1
 354.98046875 628.90625 l 0,41,-1
 295.8984375 624.0234375 l 0,42,43
 287.109375 623.046875 287.109375 623.046875 280.2734375 618.408203125 c 0,44,45
 273.4375 613.76953125 273.4375 613.76953125 271.97265625 604.00390625 c 0,46,-1
 228.02734375 375.9765625 l 0,47,-1
 540.0390625 375.9765625 l 0,48,-1
 583.984375 604.00390625 l 0,49,50
 585.44921875 612.3046875 585.44921875 612.3046875 581.54296875 617.67578125 c 0,51,52
 577.63671875 623.046875 577.63671875 623.046875 563.96484375 624.0234375 c 0,53,-1
 506.8359375 628.90625 l 0,54,-1
 506.8359375 670.8984375 l 0,55,-1
 767.08984375 670.8984375 l 0,56,-1
 767.08984375 628.90625 l 0,57,-1
 708.984375 624.0234375 l 0,0,1
EndSplineSet
EndChar

StartChar: I
Encoding: 44 73 44
Width: 313
VWidth: 488
Flags: W
LayerCount: 2
Fore
SplineSet
291.9921875 624.0234375 m 0,0,1
 282.2265625 623.046875 282.2265625 623.046875 278.3203125 618.408203125 c 0,2,3
 274.4140625 613.76953125 274.4140625 613.76953125 271.97265625 604.00390625 c 0,4,-1
 167.96875 65.91796875 l 0,5,6
 166.50390625 58.59375 166.50390625 58.59375 170.41015625 53.22265625 c 0,7,8
 174.31640625 47.8515625 174.31640625 47.8515625 187.98828125 46.875 c 0,9,-1
 246.09375 41.9921875 l 0,10,-1
 246.09375 0 l 0,11,-1
 -15.13671875 0 l 0,12,-1
 -15.13671875 41.9921875 l 0,13,-1
 47.8515625 46.875 l 0,14,15
 57.12890625 47.8515625 57.12890625 47.8515625 61.279296875 52.490234375 c 0,16,17
 65.4296875 57.12890625 65.4296875 57.12890625 66.89453125 65.91796875 c 0,18,-1
 170.8984375 604.00390625 l 0,19,20
 172.36328125 612.3046875 172.36328125 612.3046875 168.45703125 617.67578125 c 0,21,22
 164.55078125 623.046875 164.55078125 623.046875 151.85546875 624.0234375 c 0,23,-1
 96.19140625 628.90625 l 0,24,-1
 96.19140625 670.8984375 l 0,25,-1
 355.95703125 670.8984375 l 0,26,-1
 355.95703125 628.90625 l 0,27,-1
 291.9921875 624.0234375 l 0,0,1
EndSplineSet
EndChar

StartChar: J
Encoding: 45 74 45
Width: 467
VWidth: 488
Flags: W
LayerCount: 2
Fore
SplineSet
450.1953125 624.0234375 m 0,0,1
 429.6875 622.55859375 429.6875 622.55859375 424.8046875 604.00390625 c 0,2,-1
 360.83984375 255.859375 l 0,3,4
 349.609375 193.84765625 349.609375 193.84765625 333.49609375 143.5546875 c 0,5,6
 317.3828125 93.26171875 317.3828125 93.26171875 289.55078125 57.861328125 c 0,7,8
 261.71875 22.4609375 261.71875 22.4609375 218.994140625 3.173828125 c 0,9,10
 176.26953125 -16.11328125 176.26953125 -16.11328125 111.81640625 -16.11328125 c 0,11,12
 82.51953125 -16.11328125 82.51953125 -16.11328125 59.5703125 -12.20703125 c 0,13,14
 36.62109375 -8.30078125 36.62109375 -8.30078125 20.263671875 -3.173828125 c 0,15,16
 3.90625 1.953125 3.90625 1.953125 -6.103515625 7.080078125 c 0,17,18
 -16.11328125 12.20703125 -16.11328125 12.20703125 -20.01953125 14.16015625 c 0,19,-1
 13.18359375 185.05859375 l 0,20,-1
 79.1015625 185.05859375 l 0,21,-1
 79.1015625 62.98828125 l 0,22,23
 79.1015625 50.29296875 79.1015625 50.29296875 91.30859375 43.212890625 c 0,24,25
 103.515625 36.1328125 103.515625 36.1328125 119.140625 36.1328125 c 0,26,27
 150.87890625 36.1328125 150.87890625 36.1328125 173.33984375 50.29296875 c 0,28,29
 195.80078125 64.453125 195.80078125 64.453125 211.42578125 91.30859375 c 0,30,31
 227.05078125 118.1640625 227.05078125 118.1640625 238.037109375 157.470703125 c 0,32,33
 249.0234375 196.77734375 249.0234375 196.77734375 257.8125 247.0703125 c 0,34,-1
 324.21875 604.00390625 l 0,35,36
 325.68359375 612.3046875 325.68359375 612.3046875 321.77734375 617.67578125 c 0,37,38
 317.87109375 623.046875 317.87109375 623.046875 305.17578125 624.0234375 c 0,39,-1
 247.0703125 628.90625 l 0,40,-1
 247.0703125 670.8984375 l 0,41,-1
 506.8359375 670.8984375 l 0,42,-1
 506.8359375 628.90625 l 0,43,-1
 450.1953125 624.0234375 l 0,0,1
EndSplineSet
EndChar

StartChar: K
Encoding: 46 75 46
Width: 655
VWidth: 488
Flags: W
LayerCount: 2
Fore
SplineSet
607.91015625 621.09375 m 0,0,-1
 346.19140625 368.1640625 l 0,1,-1
 484.86328125 99.12109375 l 0,2,3
 494.140625 80.56640625 494.140625 80.56640625 502.685546875 69.091796875 c 0,4,5
 511.23046875 57.6171875 511.23046875 57.6171875 520.5078125 51.025390625 c 0,6,7
 529.78515625 44.43359375 529.78515625 44.43359375 540.283203125 42.236328125 c 0,8,9
 550.78125 40.0390625 550.78125 40.0390625 563.96484375 40.0390625 c 0,10,11
 573.2421875 40.0390625 573.2421875 40.0390625 583.49609375 40.52734375 c 0,12,13
 593.75 41.015625 593.75 41.015625 605.95703125 41.9921875 c 0,14,-1
 605.95703125 0 l 0,15,16
 582.51953125 -6.8359375 582.51953125 -6.8359375 557.12890625 -11.474609375 c 0,17,18
 531.73828125 -16.11328125 531.73828125 -16.11328125 512.20703125 -16.11328125 c 0,19,20
 490.234375 -16.11328125 490.234375 -16.11328125 473.876953125 -12.6953125 c 0,21,22
 457.51953125 -9.27734375 457.51953125 -9.27734375 443.84765625 -0.732421875 c 0,23,24
 430.17578125 7.8125 430.17578125 7.8125 418.9453125 21.97265625 c 0,25,26
 407.71484375 36.1328125 407.71484375 36.1328125 395.99609375 58.10546875 c 0,27,-1
 272.94921875 294.921875 l 0,28,-1
 211.9140625 294.921875 l 0,29,-1
 166.9921875 65.91796875 l 0,30,31
 165.52734375 58.59375 165.52734375 58.59375 169.921875 53.22265625 c 0,32,33
 174.31640625 47.8515625 174.31640625 47.8515625 187.01171875 46.875 c 0,34,-1
 245.1171875 41.9921875 l 0,35,-1
 245.1171875 0 l 0,36,-1
 -16.11328125 0 l 0,37,-1
 -16.11328125 41.9921875 l 0,38,-1
 41.9921875 46.875 l 0,39,40
 62.98828125 48.33984375 62.98828125 48.33984375 65.91796875 65.91796875 c 0,41,-1
 170.8984375 604.00390625 l 0,42,43
 172.36328125 612.3046875 172.36328125 612.3046875 168.45703125 617.67578125 c 0,44,45
 164.55078125 623.046875 164.55078125 623.046875 151.85546875 624.0234375 c 0,46,-1
 96.19140625 628.90625 l 0,47,-1
 96.19140625 670.8984375 l 0,48,-1
 355.95703125 670.8984375 l 0,49,-1
 355.95703125 628.90625 l 0,50,-1
 296.875 624.0234375 l 0,51,52
 287.109375 623.046875 287.109375 623.046875 280.76171875 618.408203125 c 0,53,54
 274.4140625 613.76953125 274.4140625 613.76953125 271.97265625 604.00390625 c 0,55,-1
 221.19140625 341.796875 l 0,56,-1
 237.79296875 341.796875 l 0,57,-1
 503.90625 604.00390625 l 0,58,59
 510.25390625 609.86328125 510.25390625 609.86328125 509.033203125 616.455078125 c 0,60,61
 507.8125 623.046875 507.8125 623.046875 497.0703125 624.0234375 c 0,62,-1
 433.10546875 628.90625 l 0,63,-1
 433.10546875 670.8984375 l 0,64,-1
 691.89453125 670.8984375 l 0,65,-1
 691.89453125 628.90625 l 0,66,-1
 607.91015625 621.09375 l 0,0,-1
EndSplineSet
EndChar

StartChar: L
Encoding: 47 76 47
Width: 518
VWidth: 488
Flags: W
LayerCount: 2
Fore
SplineSet
446.77734375 0 m 0,0,-1
 -15.13671875 0 l 0,1,-1
 -15.13671875 41.9921875 l 0,2,-1
 42.96875 46.875 l 0,3,4
 63.96484375 48.33984375 63.96484375 48.33984375 66.89453125 65.91796875 c 0,5,-1
 170.8984375 604.00390625 l 0,6,7
 172.36328125 612.3046875 172.36328125 612.3046875 168.45703125 617.67578125 c 0,8,9
 164.55078125 623.046875 164.55078125 623.046875 151.85546875 624.0234375 c 0,10,-1
 96.19140625 628.90625 l 0,11,-1
 96.19140625 670.8984375 l 0,12,-1
 355.95703125 670.8984375 l 0,13,-1
 355.95703125 628.90625 l 0,14,-1
 296.875 624.0234375 l 0,15,16
 285.64453125 623.046875 285.64453125 623.046875 279.541015625 617.1875 c 0,17,18
 273.4375 611.328125 273.4375 611.328125 271.97265625 604.00390625 c 0,19,-1
 166.015625 49.8046875 l 0,20,-1
 362.79296875 49.8046875 l 0,21,22
 372.55859375 49.8046875 372.55859375 49.8046875 378.662109375 55.419921875 c 0,23,24
 384.765625 61.03515625 384.765625 61.03515625 388.18359375 69.82421875 c 0,25,-1
 423.828125 185.05859375 l 0,26,-1
 482.91015625 185.05859375 l 0,27,-1
 446.77734375 0 l 0,0,-1
EndSplineSet
EndChar

StartChar: M
Encoding: 48 77 48
Width: 861
VWidth: 488
Flags: W
LayerCount: 2
Fore
SplineSet
846.19140625 624.0234375 m 0,0,1
 825.68359375 622.55859375 825.68359375 622.55859375 820.80078125 604.00390625 c 0,2,-1
 717.7734375 65.91796875 l 0,3,4
 716.30859375 58.59375 716.30859375 58.59375 720.458984375 53.22265625 c 0,5,6
 724.609375 47.8515625 724.609375 47.8515625 737.79296875 46.875 c 0,7,-1
 793.9453125 41.9921875 l 0,8,-1
 793.9453125 0 l 0,9,-1
 534.1796875 0 l 0,10,-1
 534.1796875 41.9921875 l 0,11,-1
 592.7734375 46.875 l 0,12,13
 602.05078125 47.8515625 602.05078125 47.8515625 608.88671875 52.490234375 c 0,14,15
 615.72265625 57.12890625 615.72265625 57.12890625 617.1875 65.91796875 c 0,16,-1
 713.8671875 573.2421875 l 0,17,-1
 393.06640625 0 l 0,18,-1
 333.0078125 0 l 0,19,-1
 232.91015625 567.87109375 l 0,20,-1
 140.13671875 65.91796875 l 0,21,22
 138.671875 58.59375 138.671875 58.59375 142.578125 53.22265625 c 0,23,24
 146.484375 47.8515625 146.484375 47.8515625 159.1796875 46.875 c 0,25,-1
 214.84375 41.9921875 l 0,26,-1
 214.84375 0 l 0,27,-1
 -14.16015625 0 l 0,28,-1
 -14.16015625 41.9921875 l 0,29,-1
 42.96875 46.875 l 0,30,31
 63.4765625 48.33984375 63.4765625 48.33984375 67.87109375 65.91796875 c 0,32,-1
 170.8984375 604.00390625 l 0,33,34
 172.36328125 612.3046875 172.36328125 612.3046875 168.45703125 617.67578125 c 0,35,36
 164.55078125 623.046875 164.55078125 623.046875 150.87890625 624.0234375 c 0,37,-1
 95.21484375 628.90625 l 0,38,-1
 95.21484375 670.8984375 l 0,39,-1
 318.84765625 670.8984375 l 0,40,-1
 318.84765625 643.06640625 l 0,41,-1
 404.78515625 159.1796875 l 0,42,-1
 671.875 638.18359375 l 0,43,-1
 671.875 670.8984375 l 0,44,-1
 902.83203125 670.8984375 l 0,45,-1
 902.83203125 628.90625 l 0,46,-1
 846.19140625 624.0234375 l 0,0,1
EndSplineSet
EndChar

StartChar: N
Encoding: 49 78 49
Width: 710
VWidth: 488
Flags: W
LayerCount: 2
Fore
SplineSet
698.2421875 624.0234375 m 0,0,1
 688.4765625 623.046875 688.4765625 623.046875 681.884765625 618.408203125 c 0,2,3
 675.29296875 613.76953125 675.29296875 613.76953125 672.8515625 604.00390625 c 0,4,-1
 555.17578125 0 l 0,5,-1
 482.91015625 0 l 0,6,-1
 230.95703125 530.76171875 l 0,7,-1
 142.08984375 65.91796875 l 0,8,9
 140.625 58.59375 140.625 58.59375 144.53125 53.22265625 c 0,10,11
 148.4375 47.8515625 148.4375 47.8515625 162.109375 46.875 c 0,12,-1
 217.7734375 41.9921875 l 0,13,-1
 217.7734375 0 l 0,14,-1
 -14.16015625 0 l 0,15,-1
 -14.16015625 41.9921875 l 0,16,-1
 42.96875 46.875 l 0,17,18
 63.4765625 48.33984375 63.4765625 48.33984375 67.87109375 65.91796875 c 0,19,-1
 170.8984375 604.00390625 l 0,20,21
 172.36328125 612.3046875 172.36328125 612.3046875 168.45703125 617.67578125 c 0,22,23
 164.55078125 623.046875 164.55078125 623.046875 151.85546875 624.0234375 c 0,24,-1
 96.19140625 628.90625 l 0,25,-1
 96.19140625 670.8984375 l 0,26,-1
 289.0625 670.8984375 l 0,27,-1
 289.0625 645.01953125 l 0,28,-1
 514.16015625 167.96875 l 0,29,-1
 599.12109375 604.00390625 l 0,30,31
 600.5859375 612.3046875 600.5859375 612.3046875 596.6796875 617.67578125 c 0,32,33
 592.7734375 623.046875 592.7734375 623.046875 580.078125 624.0234375 c 0,34,-1
 522.94921875 628.90625 l 0,35,-1
 522.94921875 670.8984375 l 0,36,-1
 754.8828125 670.8984375 l 0,37,-1
 754.8828125 628.90625 l 0,38,-1
 698.2421875 624.0234375 l 0,0,1
EndSplineSet
EndChar

StartChar: O
Encoding: 50 79 50
Width: 709
VWidth: 488
Flags: W
LayerCount: 2
Fore
SplineSet
690.91796875 416.9921875 m 0,0,1
 690.91796875 364.2578125 690.91796875 364.2578125 679.6875 311.767578125 c 0,2,3
 668.45703125 259.27734375 668.45703125 259.27734375 646.97265625 210.9375 c 0,4,5
 625.48828125 162.59765625 625.48828125 162.59765625 593.75 121.337890625 c 0,6,7
 562.01171875 80.078125 562.01171875 80.078125 520.751953125 49.31640625 c 0,8,9
 479.4921875 18.5546875 479.4921875 18.5546875 428.955078125 1.220703125 c 0,10,11
 378.41796875 -16.11328125 378.41796875 -16.11328125 319.82421875 -16.11328125 c 0,12,13
 259.765625 -16.11328125 259.765625 -16.11328125 209.9609375 3.662109375 c 0,14,15
 160.15625 23.4375 160.15625 23.4375 124.0234375 60.05859375 c 0,16,17
 87.890625 96.6796875 87.890625 96.6796875 67.87109375 147.94921875 c 0,18,19
 47.8515625 199.21875 47.8515625 199.21875 47.8515625 262.20703125 c 0,20,21
 47.8515625 315.91796875 47.8515625 315.91796875 60.05859375 368.1640625 c 0,22,23
 72.265625 420.41015625 72.265625 420.41015625 95.458984375 467.7734375 c 0,24,25
 118.65234375 515.13671875 118.65234375 515.13671875 151.611328125 555.17578125 c 0,26,27
 184.5703125 595.21484375 184.5703125 595.21484375 225.830078125 624.51171875 c 0,28,29
 267.08984375 653.80859375 267.08984375 653.80859375 316.162109375 670.41015625 c 0,30,31
 365.234375 687.01171875 365.234375 687.01171875 419.921875 687.01171875 c 0,32,33
 481.93359375 687.01171875 481.93359375 687.01171875 532.2265625 665.771484375 c 0,34,35
 582.51953125 644.53125 582.51953125 644.53125 617.67578125 607.91015625 c 0,36,37
 652.83203125 571.2890625 652.83203125 571.2890625 671.875 521.97265625 c 0,38,39
 690.91796875 472.65625 690.91796875 472.65625 690.91796875 416.9921875 c 0,0,1
577.1484375 416.9921875 m 0,40,41
 577.1484375 466.796875 577.1484375 466.796875 564.697265625 507.32421875 c 0,42,43
 552.24609375 547.8515625 552.24609375 547.8515625 530.029296875 576.904296875 c 0,44,45
 507.8125 605.95703125 507.8125 605.95703125 477.294921875 621.58203125 c 0,46,47
 446.77734375 637.20703125 446.77734375 637.20703125 411.1328125 637.20703125 c 0,48,49
 374.51171875 637.20703125 374.51171875 637.20703125 341.796875 621.09375 c 0,50,51
 309.08203125 604.98046875 309.08203125 604.98046875 281.25 577.1484375 c 0,52,53
 253.41796875 549.31640625 253.41796875 549.31640625 231.201171875 511.962890625 c 0,54,55
 208.984375 474.609375 208.984375 474.609375 193.359375 432.12890625 c 0,56,57
 177.734375 389.6484375 177.734375 389.6484375 169.43359375 343.994140625 c 0,58,59
 161.1328125 298.33984375 161.1328125 298.33984375 161.1328125 253.90625 c 0,60,61
 161.1328125 203.125 161.1328125 203.125 174.072265625 162.841796875 c 0,62,63
 187.01171875 122.55859375 187.01171875 122.55859375 209.228515625 94.482421875 c 0,64,65
 231.4453125 66.40625 231.4453125 66.40625 261.71875 51.26953125 c 0,66,67
 291.9921875 36.1328125 291.9921875 36.1328125 327.1484375 36.1328125 c 0,68,69
 363.76953125 36.1328125 363.76953125 36.1328125 396.484375 52.490234375 c 0,70,71
 429.19921875 68.84765625 429.19921875 68.84765625 457.03125 97.16796875 c 0,72,73
 484.86328125 125.48828125 484.86328125 125.48828125 507.080078125 162.841796875 c 0,74,75
 529.296875 200.1953125 529.296875 200.1953125 544.921875 242.67578125 c 0,76,77
 560.546875 285.15625 560.546875 285.15625 568.84765625 329.833984375 c 0,78,79
 577.1484375 374.51171875 577.1484375 374.51171875 577.1484375 416.9921875 c 0,40,41
EndSplineSet
EndChar

StartChar: P
Encoding: 51 80 51
Width: 565
VWidth: 488
Flags: W
LayerCount: 2
Fore
SplineSet
570.80078125 511.23046875 m 0,0,1
 570.80078125 450.68359375 570.80078125 450.68359375 547.8515625 402.34375 c 0,2,3
 524.90234375 354.00390625 524.90234375 354.00390625 484.130859375 320.068359375 c 0,4,5
 443.359375 286.1328125 443.359375 286.1328125 387.451171875 268.06640625 c 0,6,7
 331.54296875 250 331.54296875 250 266.11328125 250 c 0,8,9
 258.30078125 250 258.30078125 250 247.55859375 250.244140625 c 0,10,11
 236.81640625 250.48828125 236.81640625 250.48828125 227.05078125 250.9765625 c 0,12,13
 215.33203125 251.46484375 215.33203125 251.46484375 203.125 251.953125 c 0,14,-1
 166.015625 65.91796875 l 0,15,16
 164.55078125 58.59375 164.55078125 58.59375 168.45703125 53.22265625 c 0,17,18
 172.36328125 47.8515625 172.36328125 47.8515625 186.03515625 46.875 c 0,19,-1
 243.1640625 41.9921875 l 0,20,-1
 243.1640625 0 l 0,21,-1
 -17.08984375 0 l 0,22,-1
 -17.08984375 41.9921875 l 0,23,-1
 41.015625 46.875 l 0,24,25
 60.546875 48.33984375 60.546875 48.33984375 64.94140625 65.91796875 c 0,26,-1
 169.921875 604.00390625 l 0,27,28
 171.38671875 612.3046875 171.38671875 612.3046875 167.48046875 617.67578125 c 0,29,30
 163.57421875 623.046875 163.57421875 623.046875 149.90234375 624.0234375 c 0,31,-1
 94.23828125 628.90625 l 0,32,-1
 94.23828125 670.8984375 l 0,33,-1
 342.7734375 670.8984375 l 0,34,35
 404.296875 670.8984375 404.296875 670.8984375 447.509765625 658.935546875 c 0,36,37
 490.72265625 646.97265625 490.72265625 646.97265625 518.310546875 625.732421875 c 0,38,39
 545.8984375 604.4921875 545.8984375 604.4921875 558.349609375 575.1953125 c 0,40,41
 570.80078125 545.8984375 570.80078125 545.8984375 570.80078125 511.23046875 c 0,0,1
466.796875 494.140625 m 0,42,43
 466.796875 522.94921875 466.796875 522.94921875 458.740234375 546.875 c 0,44,45
 450.68359375 570.80078125 450.68359375 570.80078125 432.373046875 587.890625 c 0,46,47
 414.0625 604.98046875 414.0625 604.98046875 384.521484375 614.501953125 c 0,48,49
 354.98046875 624.0234375 354.98046875 624.0234375 312.01171875 624.0234375 c 0,50,51
 302.734375 624.0234375 302.734375 624.0234375 292.236328125 623.53515625 c 0,52,53
 281.73828125 623.046875 281.73828125 623.046875 273.92578125 622.0703125 c 0,54,-1
 211.9140625 304.19921875 l 0,55,56
 233.88671875 302.24609375 233.88671875 302.24609375 256.103515625 302.978515625 c 0,57,58
 278.3203125 303.7109375 278.3203125 303.7109375 299.8046875 307.373046875 c 0,59,60
 321.2890625 311.03515625 321.2890625 311.03515625 341.30859375 318.115234375 c 0,61,62
 361.328125 325.1953125 361.328125 325.1953125 378.90625 335.9375 c 0,63,64
 397.94921875 347.16796875 397.94921875 347.16796875 414.0625 362.3046875 c 0,65,66
 430.17578125 377.44140625 430.17578125 377.44140625 441.89453125 396.97265625 c 0,67,68
 453.61328125 416.50390625 453.61328125 416.50390625 460.205078125 440.673828125 c 0,69,70
 466.796875 464.84375 466.796875 464.84375 466.796875 494.140625 c 0,42,43
EndSplineSet
EndChar

StartChar: Q
Encoding: 52 81 52
Width: 709
VWidth: 488
Flags: W
LayerCount: 2
Fore
SplineSet
722.16796875 -110.83984375 m 0,0,1
 716.30859375 -113.76953125 716.30859375 -113.76953125 699.21875 -122.0703125 c 0,2,3
 682.12890625 -130.37109375 682.12890625 -130.37109375 658.203125 -138.671875 c 0,4,5
 634.27734375 -146.97265625 634.27734375 -146.97265625 606.93359375 -153.564453125 c 0,6,7
 579.58984375 -160.15625 579.58984375 -160.15625 553.22265625 -160.15625 c 0,8,9
 514.6484375 -160.15625 514.6484375 -160.15625 485.83984375 -148.92578125 c 0,10,11
 457.03125 -137.6953125 457.03125 -137.6953125 435.302734375 -117.67578125 c 0,12,13
 413.57421875 -97.65625 413.57421875 -97.65625 397.216796875 -70.80078125 c 0,14,15
 380.859375 -43.9453125 380.859375 -43.9453125 367.1875 -12.20703125 c 0,16,17
 355.95703125 -13.18359375 355.95703125 -13.18359375 342.529296875 -14.6484375 c 0,18,19
 329.1015625 -16.11328125 329.1015625 -16.11328125 316.89453125 -16.11328125 c 0,20,21
 261.71875 -16.11328125 261.71875 -16.11328125 212.40234375 2.197265625 c 0,22,23
 163.0859375 20.5078125 163.0859375 20.5078125 126.220703125 55.6640625 c 0,24,25
 89.35546875 90.8203125 89.35546875 90.8203125 67.626953125 142.08984375 c 0,26,27
 45.8984375 193.359375 45.8984375 193.359375 45.8984375 258.7890625 c 0,28,29
 45.8984375 310.546875 45.8984375 310.546875 58.349609375 362.3046875 c 0,30,31
 70.80078125 414.0625 70.80078125 414.0625 93.994140625 461.669921875 c 0,32,33
 117.1875 509.27734375 117.1875 509.27734375 150.390625 550.537109375 c 0,34,35
 183.59375 591.796875 183.59375 591.796875 225.09765625 622.0703125 c 0,36,37
 266.6015625 652.34375 266.6015625 652.34375 316.162109375 669.677734375 c 0,38,39
 365.72265625 687.01171875 365.72265625 687.01171875 420.8984375 687.01171875 c 0,40,41
 481.93359375 687.01171875 481.93359375 687.01171875 531.73828125 666.50390625 c 0,42,43
 581.54296875 645.99609375 581.54296875 645.99609375 616.69921875 609.86328125 c 0,44,45
 651.85546875 573.73046875 651.85546875 573.73046875 670.8984375 524.4140625 c 0,46,47
 689.94140625 475.09765625 689.94140625 475.09765625 689.94140625 417.96875 c 0,48,49
 689.94140625 391.11328125 689.94140625 391.11328125 686.5234375 358.3984375 c 0,50,51
 683.10546875 325.68359375 683.10546875 325.68359375 674.31640625 290.283203125 c 0,52,53
 665.52734375 254.8828125 665.52734375 254.8828125 649.90234375 218.26171875 c 0,54,55
 634.27734375 181.640625 634.27734375 181.640625 609.86328125 146.240234375 c 0,56,57
 585.44921875 110.83984375 585.44921875 110.83984375 551.26953125 78.61328125 c 0,58,59
 517.08984375 46.38671875 517.08984375 46.38671875 471.19140625 20.01953125 c 0,60,61
 486.328125 -7.8125 486.328125 -7.8125 500 -30.2734375 c 0,62,63
 513.671875 -52.734375 513.671875 -52.734375 529.296875 -68.84765625 c 0,64,65
 544.921875 -84.9609375 544.921875 -84.9609375 563.4765625 -93.505859375 c 0,66,67
 582.03125 -102.05078125 582.03125 -102.05078125 606.93359375 -102.05078125 c 0,68,69
 621.58203125 -102.05078125 621.58203125 -102.05078125 636.962890625 -98.876953125 c 0,70,71
 652.34375 -95.703125 652.34375 -95.703125 667.48046875 -90.8203125 c 0,72,73
 682.6171875 -85.9375 682.6171875 -85.9375 696.533203125 -80.078125 c 0,74,75
 710.44921875 -74.21875 710.44921875 -74.21875 722.16796875 -68.84765625 c 0,76,-1
 722.16796875 -110.83984375 l 0,0,1
577.1484375 417.96875 m 0,77,78
 577.1484375 465.33203125 577.1484375 465.33203125 565.4296875 505.37109375 c 0,79,80
 553.7109375 545.41015625 553.7109375 545.41015625 532.470703125 574.462890625 c 0,81,82
 511.23046875 603.515625 511.23046875 603.515625 481.689453125 619.873046875 c 0,83,84
 452.1484375 636.23046875 452.1484375 636.23046875 416.015625 636.23046875 c 0,85,86
 378.90625 636.23046875 378.90625 636.23046875 345.21484375 620.849609375 c 0,87,88
 311.5234375 605.46875 311.5234375 605.46875 282.958984375 578.61328125 c 0,89,90
 254.39453125 551.7578125 254.39453125 551.7578125 231.201171875 515.13671875 c 0,91,92
 208.0078125 478.515625 208.0078125 478.515625 191.89453125 436.03515625 c 0,93,94
 175.78125 393.5546875 175.78125 393.5546875 166.9921875 347.16796875 c 0,95,96
 158.203125 300.78125 158.203125 300.78125 158.203125 253.90625 c 0,97,98
 158.203125 207.03125 158.203125 207.03125 169.921875 167.236328125 c 0,99,100
 181.640625 127.44140625 181.640625 127.44140625 203.369140625 98.6328125 c 0,101,102
 225.09765625 69.82421875 225.09765625 69.82421875 256.103515625 53.466796875 c 0,103,104
 287.109375 37.109375 287.109375 37.109375 326.171875 37.109375 c 0,105,106
 361.81640625 37.109375 361.81640625 37.109375 394.287109375 53.22265625 c 0,107,108
 426.7578125 69.3359375 426.7578125 69.3359375 454.833984375 97.16796875 c 0,109,110
 482.91015625 125 482.91015625 125 505.37109375 162.353515625 c 0,111,112
 527.83203125 199.70703125 527.83203125 199.70703125 543.9453125 241.943359375 c 0,113,114
 560.05859375 284.1796875 560.05859375 284.1796875 568.603515625 329.345703125 c 0,115,116
 577.1484375 374.51171875 577.1484375 374.51171875 577.1484375 417.96875 c 0,77,78
EndSplineSet
EndChar

StartChar: R
Encoding: 53 82 53
Width: 641
VWidth: 488
Flags: W
LayerCount: 2
Fore
SplineSet
615.234375 0 m 0,0,1
 594.7265625 -9.27734375 594.7265625 -9.27734375 576.904296875 -12.6953125 c 0,2,3
 559.08203125 -16.11328125 559.08203125 -16.11328125 541.9921875 -16.11328125 c 0,4,5
 496.58203125 -16.11328125 496.58203125 -16.11328125 468.994140625 -1.46484375 c 0,6,7
 441.40625 13.18359375 441.40625 13.18359375 425.537109375 36.62109375 c 0,8,9
 409.66796875 60.05859375 409.66796875 60.05859375 402.099609375 88.623046875 c 0,10,11
 394.53125 117.1875 394.53125 117.1875 389.16015625 145.01953125 c 0,12,13
 383.30078125 172.8515625 383.30078125 172.8515625 376.220703125 199.951171875 c 0,14,15
 369.140625 227.05078125 369.140625 227.05078125 356.201171875 248.291015625 c 0,16,17
 343.26171875 269.53125 343.26171875 269.53125 321.77734375 282.71484375 c 0,18,19
 300.29296875 295.8984375 300.29296875 295.8984375 265.13671875 295.8984375 c 0,20,21
 258.30078125 295.8984375 258.30078125 295.8984375 249.51171875 295.654296875 c 0,22,23
 240.72265625 295.41015625 240.72265625 295.41015625 232.421875 295.41015625 c 0,24,25
 223.14453125 294.921875 223.14453125 294.921875 212.890625 294.921875 c 0,26,-1
 169.921875 65.91796875 l 0,27,28
 168.45703125 58.59375 168.45703125 58.59375 172.36328125 53.22265625 c 0,29,30
 176.26953125 47.8515625 176.26953125 47.8515625 188.96484375 46.875 c 0,31,-1
 247.0703125 41.9921875 l 0,32,-1
 247.0703125 0 l 0,33,-1
 -13.18359375 0 l 0,34,-1
 -13.18359375 41.9921875 l 0,35,-1
 43.9453125 46.875 l 0,36,37
 64.453125 48.33984375 64.453125 48.33984375 68.84765625 65.91796875 c 0,38,-1
 170.8984375 604.00390625 l 0,39,40
 172.36328125 612.3046875 172.36328125 612.3046875 168.45703125 617.67578125 c 0,41,42
 164.55078125 623.046875 164.55078125 623.046875 151.85546875 624.0234375 c 0,43,-1
 96.19140625 628.90625 l 0,44,-1
 96.19140625 670.8984375 l 0,45,-1
 363.76953125 670.8984375 l 0,46,47
 405.2734375 670.8984375 405.2734375 670.8984375 444.580078125 664.0625 c 0,48,49
 483.88671875 657.2265625 483.88671875 657.2265625 514.16015625 640.13671875 c 0,50,51
 544.43359375 623.046875 544.43359375 623.046875 562.744140625 594.482421875 c 0,52,53
 581.0546875 565.91796875 581.0546875 565.91796875 581.0546875 522.94921875 c 0,54,55
 581.0546875 482.421875 581.0546875 482.421875 564.94140625 449.70703125 c 0,56,57
 548.828125 416.9921875 548.828125 416.9921875 520.99609375 391.357421875 c 0,58,59
 493.1640625 365.72265625 493.1640625 365.72265625 456.0546875 347.16796875 c 0,60,61
 418.9453125 328.61328125 418.9453125 328.61328125 376.953125 316.89453125 c 0,62,63
 407.71484375 303.7109375 407.71484375 303.7109375 426.025390625 287.353515625 c 0,64,65
 444.3359375 270.99609375 444.3359375 270.99609375 455.56640625 250.9765625 c 0,66,67
 466.796875 230.95703125 466.796875 230.95703125 473.14453125 206.54296875 c 0,68,69
 479.4921875 182.12890625 479.4921875 182.12890625 486.81640625 153.80859375 c 0,70,71
 494.140625 125.9765625 494.140625 125.9765625 502.9296875 104.736328125 c 0,72,73
 511.71875 83.49609375 511.71875 83.49609375 526.123046875 69.3359375 c 0,74,75
 540.52734375 55.17578125 540.52734375 55.17578125 561.767578125 48.095703125 c 0,76,77
 583.0078125 41.015625 583.0078125 41.015625 615.234375 41.015625 c 0,78,-1
 615.234375 0 l 0,0,1
467.7734375 508.7890625 m 0,79,80
 467.7734375 545.41015625 467.7734375 545.41015625 451.904296875 567.87109375 c 0,81,82
 436.03515625 590.33203125 436.03515625 590.33203125 411.1328125 602.5390625 c 0,83,84
 386.23046875 614.74609375 386.23046875 614.74609375 355.95703125 618.408203125 c 0,85,86
 325.68359375 622.0703125 325.68359375 622.0703125 296.875 621.09375 c 0,87,88
 292.96875 621.09375 292.96875 621.09375 286.1328125 620.60546875 c 0,89,90
 279.296875 620.1171875 279.296875 620.1171875 274.90234375 620.1171875 c 0,91,-1
 224.12109375 347.16796875 l 0,92,-1
 246.09375 347.16796875 l 0,93,94
 286.62109375 347.16796875 286.62109375 347.16796875 326.171875 354.4921875 c 0,95,96
 365.72265625 361.81640625 365.72265625 361.81640625 397.216796875 380.37109375 c 0,97,98
 428.7109375 398.92578125 428.7109375 398.92578125 448.2421875 429.931640625 c 0,99,100
 467.7734375 460.9375 467.7734375 460.9375 467.7734375 508.7890625 c 0,79,80
EndSplineSet
EndChar

StartChar: S
Encoding: 54 83 54
Width: 520
VWidth: 488
Flags: W
LayerCount: 2
Fore
SplineSet
480.95703125 498.046875 m 0,0,-1
 421.875 498.046875 l 0,1,-1
 425.78125 599.12109375 l 0,2,3
 425.78125 604.00390625 425.78125 604.00390625 418.45703125 610.595703125 c 0,4,5
 411.1328125 617.1875 411.1328125 617.1875 398.681640625 623.291015625 c 0,6,7
 386.23046875 629.39453125 386.23046875 629.39453125 370.1171875 633.7890625 c 0,8,9
 354.00390625 638.18359375 354.00390625 638.18359375 335.9375 638.18359375 c 0,10,11
 307.12890625 638.18359375 307.12890625 638.18359375 280.029296875 627.9296875 c 0,12,13
 252.9296875 617.67578125 252.9296875 617.67578125 231.93359375 599.365234375 c 0,14,15
 210.9375 581.0546875 210.9375 581.0546875 198.486328125 555.908203125 c 0,16,17
 186.03515625 530.76171875 186.03515625 530.76171875 186.03515625 500.9765625 c 0,18,19
 186.03515625 474.12109375 186.03515625 474.12109375 200.68359375 453.857421875 c 0,20,21
 215.33203125 433.59375 215.33203125 433.59375 236.81640625 417.96875 c 0,22,23
 258.30078125 402.34375 258.30078125 402.34375 282.71484375 390.625 c 0,24,25
 307.12890625 378.90625 307.12890625 378.90625 327.1484375 369.140625 c 0,26,27
 353.515625 355.46875 353.515625 355.46875 378.662109375 340.33203125 c 0,28,29
 403.80859375 325.1953125 403.80859375 325.1953125 423.33984375 306.15234375 c 0,30,31
 442.87109375 287.109375 442.87109375 287.109375 454.833984375 262.451171875 c 0,32,33
 466.796875 237.79296875 466.796875 237.79296875 466.796875 205.078125 c 0,34,35
 466.796875 168.9453125 466.796875 168.9453125 451.904296875 129.8828125 c 0,36,37
 437.01171875 90.8203125 437.01171875 90.8203125 403.80859375 58.349609375 c 0,38,39
 370.60546875 25.87890625 370.60546875 25.87890625 317.626953125 4.8828125 c 0,40,41
 264.6484375 -16.11328125 264.6484375 -16.11328125 187.98828125 -16.11328125 c 0,42,43
 149.4140625 -16.11328125 149.4140625 -16.11328125 116.455078125 -9.033203125 c 0,44,45
 83.49609375 -1.953125 83.49609375 -1.953125 58.349609375 7.080078125 c 0,46,47
 33.203125 16.11328125 33.203125 16.11328125 16.845703125 24.658203125 c 0,48,49
 0.48828125 33.203125 0.48828125 33.203125 -4.8828125 36.1328125 c 0,50,-1
 28.80859375 196.77734375 l 0,51,-1
 97.16796875 196.77734375 l 0,52,-1
 85.9375 82.03125 l 0,53,54
 85.44921875 76.171875 85.44921875 76.171875 92.7734375 70.3125 c 0,55,56
 100.09765625 64.453125 100.09765625 64.453125 111.81640625 59.326171875 c 0,57,58
 123.53515625 54.19921875 123.53515625 54.19921875 137.6953125 50.048828125 c 0,59,60
 151.85546875 45.8984375 151.85546875 45.8984375 164.794921875 42.724609375 c 0,61,62
 177.734375 39.55078125 177.734375 39.55078125 187.744140625 37.841796875 c 0,63,64
 197.75390625 36.1328125 197.75390625 36.1328125 201.171875 36.1328125 c 0,65,66
 233.3984375 36.1328125 233.3984375 36.1328125 262.6953125 46.142578125 c 0,67,68
 291.9921875 56.15234375 291.9921875 56.15234375 314.208984375 74.951171875 c 0,69,70
 336.42578125 93.75 336.42578125 93.75 349.609375 120.849609375 c 0,71,72
 362.79296875 147.94921875 362.79296875 147.94921875 362.79296875 182.12890625 c 0,73,74
 362.79296875 207.51953125 362.79296875 207.51953125 347.900390625 227.294921875 c 0,75,76
 333.0078125 247.0703125 333.0078125 247.0703125 311.279296875 262.6953125 c 0,77,78
 289.55078125 278.3203125 289.55078125 278.3203125 265.13671875 290.283203125 c 0,79,80
 240.72265625 302.24609375 240.72265625 302.24609375 222.16796875 312.01171875 c 0,81,82
 195.80078125 325.68359375 195.80078125 325.68359375 170.8984375 340.576171875 c 0,83,84
 145.99609375 355.46875 145.99609375 355.46875 126.708984375 373.779296875 c 0,85,86
 107.421875 392.08984375 107.421875 392.08984375 95.703125 415.0390625 c 0,87,88
 83.984375 437.98828125 83.984375 437.98828125 83.984375 467.7734375 c 0,89,90
 83.984375 517.578125 83.984375 517.578125 103.515625 558.10546875 c 0,91,92
 123.046875 598.6328125 123.046875 598.6328125 157.958984375 627.197265625 c 0,93,94
 192.87109375 655.76171875 192.87109375 655.76171875 240.478515625 671.38671875 c 0,95,96
 288.0859375 687.01171875 288.0859375 687.01171875 344.23828125 687.01171875 c 0,97,98
 377.9296875 687.01171875 377.9296875 687.01171875 406.73828125 682.373046875 c 0,99,100
 435.546875 677.734375 435.546875 677.734375 457.51953125 671.38671875 c 0,101,102
 479.4921875 665.0390625 479.4921875 665.0390625 493.896484375 659.1796875 c 0,103,104
 508.30078125 653.3203125 508.30078125 653.3203125 513.18359375 650.87890625 c 0,105,-1
 480.95703125 498.046875 l 0,0,-1
EndSplineSet
EndChar

StartChar: T
Encoding: 55 84 55
Width: 585
VWidth: 488
Flags: W
LayerCount: 2
Fore
SplineSet
618.1640625 518.06640625 m 0,0,-1
 555.17578125 518.06640625 l 0,1,-1
 559.08203125 605.95703125 l 0,2,3
 560.546875 625.9765625 560.546875 625.9765625 540.0390625 625.9765625 c 0,4,-1
 411.1328125 625.9765625 l 0,5,-1
 307.12890625 65.91796875 l 0,6,7
 305.6640625 58.59375 305.6640625 58.59375 309.5703125 53.22265625 c 0,8,9
 313.4765625 47.8515625 313.4765625 47.8515625 327.1484375 46.875 c 0,10,-1
 383.7890625 41.9921875 l 0,11,-1
 383.7890625 0 l 0,12,-1
 124.0234375 0 l 0,13,-1
 124.0234375 41.9921875 l 0,14,-1
 182.12890625 46.875 l 0,15,16
 190.91796875 47.8515625 190.91796875 47.8515625 197.75390625 52.490234375 c 0,17,18
 204.58984375 57.12890625 204.58984375 57.12890625 206.0546875 65.91796875 c 0,19,-1
 310.05859375 625.9765625 l 0,20,-1
 185.05859375 625.9765625 l 0,21,22
 166.015625 625.9765625 166.015625 625.9765625 160.15625 605.95703125 c 0,23,-1
 128.90625 518.06640625 l 0,24,-1
 65.91796875 518.06640625 l 0,25,-1
 95.21484375 670.8984375 l 0,26,-1
 648.92578125 670.8984375 l 0,27,-1
 618.1640625 518.06640625 l 0,0,-1
EndSplineSet
EndChar

StartChar: U
Encoding: 56 85 56
Width: 707
VWidth: 488
Flags: W
LayerCount: 2
Fore
SplineSet
690.91796875 624.0234375 m 0,0,1
 682.12890625 623.046875 682.12890625 623.046875 675.29296875 618.408203125 c 0,2,3
 668.45703125 613.76953125 668.45703125 613.76953125 666.9921875 604.00390625 c 0,4,-1
 589.84375 213.8671875 l 0,5,6
 579.58984375 159.66796875 579.58984375 159.66796875 557.12890625 116.943359375 c 0,7,8
 534.66796875 74.21875 534.66796875 74.21875 499.755859375 44.677734375 c 0,9,10
 464.84375 15.13671875 464.84375 15.13671875 417.724609375 -0.48828125 c 0,11,12
 370.60546875 -16.11328125 370.60546875 -16.11328125 311.03515625 -16.11328125 c 0,13,14
 264.6484375 -16.11328125 264.6484375 -16.11328125 224.853515625 -6.591796875 c 0,15,16
 185.05859375 2.9296875 185.05859375 2.9296875 155.2734375 23.92578125 c 0,17,18
 125.48828125 44.921875 125.48828125 44.921875 108.642578125 78.125 c 0,19,20
 91.796875 111.328125 91.796875 111.328125 91.796875 159.1796875 c 0,21,22
 91.796875 174.31640625 91.796875 174.31640625 94.970703125 201.66015625 c 0,23,24
 98.14453125 229.00390625 98.14453125 229.00390625 104.98046875 264.16015625 c 0,25,-1
 174.8046875 604.00390625 l 0,26,27
 176.26953125 612.3046875 176.26953125 612.3046875 172.36328125 617.67578125 c 0,28,29
 168.45703125 623.046875 168.45703125 623.046875 154.78515625 624.0234375 c 0,30,-1
 99.12109375 628.90625 l 0,31,-1
 99.12109375 670.8984375 l 0,32,-1
 358.88671875 670.8984375 l 0,33,-1
 358.88671875 628.90625 l 0,34,-1
 299.8046875 624.0234375 l 0,35,36
 291.015625 623.046875 291.015625 623.046875 284.1796875 618.408203125 c 0,37,38
 277.34375 613.76953125 277.34375 613.76953125 275.87890625 604.00390625 c 0,39,-1
 207.03125 264.16015625 l 0,40,41
 201.171875 234.86328125 201.171875 234.86328125 198.486328125 211.669921875 c 0,42,43
 195.80078125 188.4765625 195.80078125 188.4765625 195.80078125 174.8046875 c 0,44,45
 195.80078125 143.06640625 195.80078125 143.06640625 205.810546875 119.62890625 c 0,46,47
 215.8203125 96.19140625 215.8203125 96.19140625 234.130859375 80.322265625 c 0,48,49
 252.44140625 64.453125 252.44140625 64.453125 278.564453125 56.640625 c 0,50,51
 304.6875 48.828125 304.6875 48.828125 336.9140625 48.828125 c 0,52,53
 385.7421875 48.828125 385.7421875 48.828125 418.701171875 65.185546875 c 0,54,55
 451.66015625 81.54296875 451.66015625 81.54296875 473.6328125 108.88671875 c 0,56,57
 495.60546875 136.23046875 495.60546875 136.23046875 508.30078125 172.607421875 c 0,58,59
 520.99609375 208.984375 520.99609375 208.984375 528.80859375 249.0234375 c 0,60,-1
 599.12109375 604.00390625 l 0,61,62
 600.5859375 612.3046875 600.5859375 612.3046875 596.6796875 617.67578125 c 0,63,64
 592.7734375 623.046875 592.7734375 623.046875 579.1015625 624.0234375 c 0,65,-1
 522.94921875 628.90625 l 0,66,-1
 522.94921875 670.8984375 l 0,67,-1
 749.0234375 670.8984375 l 0,68,-1
 749.0234375 628.90625 l 0,69,-1
 690.91796875 624.0234375 l 0,0,1
EndSplineSet
EndChar

StartChar: V
Encoding: 57 86 57
Width: 643
VWidth: 488
Flags: W
LayerCount: 2
Fore
SplineSet
663.0859375 623.046875 m 0,0,-1
 317.87109375 -16.11328125 l 0,1,-1
 242.1875 -16.11328125 l 0,2,-1
 145.01953125 606.93359375 l 0,3,4
 143.5546875 616.69921875 143.5546875 616.69921875 137.20703125 621.337890625 c 0,5,6
 130.859375 625.9765625 130.859375 625.9765625 121.09375 626.953125 c 0,7,-1
 83.0078125 628.90625 l 0,8,-1
 83.0078125 670.8984375 l 0,9,-1
 310.05859375 670.8984375 l 0,10,-1
 310.05859375 628.90625 l 0,11,-1
 267.08984375 626.953125 l 0,12,13
 255.859375 625.9765625 255.859375 625.9765625 250.732421875 621.826171875 c 0,14,15
 245.60546875 617.67578125 245.60546875 617.67578125 247.0703125 606.93359375 c 0,16,-1
 321.77734375 123.046875 l 0,17,-1
 576.171875 606.93359375 l 0,18,19
 580.078125 614.74609375 580.078125 614.74609375 577.63671875 620.361328125 c 0,20,21
 575.1953125 625.9765625 575.1953125 625.9765625 561.03515625 626.953125 c 0,22,-1
 512.20703125 628.90625 l 0,23,-1
 512.20703125 670.8984375 l 0,24,-1
 715.8203125 670.8984375 l 0,25,-1
 715.8203125 628.90625 l 0,26,-1
 663.0859375 623.046875 l 0,0,-1
EndSplineSet
EndChar

StartChar: W
Encoding: 58 87 58
Width: 926
VWidth: 488
Flags: W
LayerCount: 2
Fore
SplineSet
940.91796875 623.046875 m 0,0,-1
 641.11328125 -16.11328125 l 0,1,-1
 577.1484375 -16.11328125 l 0,2,-1
 519.04296875 518.06640625 l 0,3,-1
 269.04296875 -16.11328125 l 0,4,-1
 199.21875 -16.11328125 l 0,5,-1
 148.92578125 606.93359375 l 0,6,7
 147.94921875 616.69921875 147.94921875 616.69921875 142.822265625 621.337890625 c 0,8,9
 137.6953125 625.9765625 137.6953125 625.9765625 125 626.953125 c 0,10,-1
 83.0078125 628.90625 l 0,11,-1
 83.0078125 670.8984375 l 0,12,-1
 313.96484375 670.8984375 l 0,13,-1
 313.96484375 628.90625 l 0,14,-1
 270.01953125 626.953125 l 0,15,16
 258.7890625 625.9765625 258.7890625 625.9765625 254.39453125 621.09375 c 0,17,18
 250 616.2109375 250 616.2109375 250 606.93359375 c 0,19,-1
 285.15625 172.8515625 l 0,20,-1
 520.01953125 670.8984375 l 0,21,-1
 601.07421875 670.8984375 l 0,22,-1
 651.85546875 166.015625 l 0,23,-1
 854.98046875 606.93359375 l 0,24,25
 863.76953125 625.48828125 863.76953125 625.48828125 835.9375 626.953125 c 0,26,-1
 791.015625 628.90625 l 0,27,-1
 791.015625 670.8984375 l 0,28,-1
 1000 670.8984375 l 0,29,-1
 1000 628.90625 l 0,30,-1
 940.91796875 623.046875 l 0,0,-1
EndSplineSet
EndChar

StartChar: X
Encoding: 59 88 59
Width: 632
VWidth: 488
Flags: W
LayerCount: 2
Fore
SplineSet
618.1640625 625 m 0,0,1
 610.3515625 624.0234375 610.3515625 624.0234375 603.759765625 618.896484375 c 0,2,3
 597.16796875 613.76953125 597.16796875 613.76953125 594.23828125 609.86328125 c 0,4,-1
 374.0234375 359.86328125 l 0,5,-1
 504.8828125 61.03515625 l 0,6,7
 509.765625 51.7578125 509.765625 51.7578125 514.6484375 49.31640625 c 0,8,9
 519.53125 46.875 519.53125 46.875 524.90234375 45.8984375 c 0,10,-1
 579.1015625 41.9921875 l 0,11,-1
 579.1015625 0 l 0,12,-1
 320.80078125 0 l 0,13,-1
 320.80078125 41.9921875 l 0,14,-1
 384.765625 45.8984375 l 0,15,16
 393.06640625 46.875 393.06640625 46.875 397.94921875 52.734375 c 0,17,18
 402.83203125 58.59375 402.83203125 58.59375 398.92578125 65.91796875 c 0,19,-1
 309.08203125 275.87890625 l 0,20,-1
 120.1171875 65.91796875 l 0,21,22
 113.76953125 60.05859375 113.76953125 60.05859375 114.990234375 53.466796875 c 0,23,24
 116.2109375 46.875 116.2109375 46.875 128.90625 45.8984375 c 0,25,-1
 188.96484375 41.9921875 l 0,26,-1
 188.96484375 0 l 0,27,-1
 -43.9453125 0 l 0,28,-1
 -43.9453125 41.9921875 l 0,29,-1
 3.90625 45.8984375 l 0,30,31
 12.20703125 46.875 12.20703125 46.875 18.5546875 52.001953125 c 0,32,33
 24.90234375 57.12890625 24.90234375 57.12890625 27.83203125 61.03515625 c 0,34,-1
 276.85546875 339.84375 l 0,35,-1
 157.2265625 609.86328125 l 0,36,37
 153.3203125 619.140625 153.3203125 619.140625 148.4375 621.58203125 c 0,38,39
 143.5546875 624.0234375 143.5546875 624.0234375 138.18359375 625 c 0,40,-1
 83.0078125 628.90625 l 0,41,-1
 83.0078125 670.8984375 l 0,42,-1
 342.7734375 670.8984375 l 0,43,-1
 342.7734375 628.90625 l 0,44,-1
 277.83203125 625 l 0,45,46
 269.53125 624.0234375 269.53125 624.0234375 264.6484375 618.408203125 c 0,47,48
 259.765625 612.79296875 259.765625 612.79296875 263.18359375 604.98046875 c 0,49,-1
 345.21484375 417.96875 l 0,50,-1
 508.7890625 604.98046875 l 0,51,52
 514.16015625 610.83984375 514.16015625 610.83984375 513.427734375 617.431640625 c 0,53,54
 512.6953125 624.0234375 512.6953125 624.0234375 500 625 c 0,55,-1
 452.1484375 628.90625 l 0,56,-1
 452.1484375 670.8984375 l 0,57,-1
 678.22265625 670.8984375 l 0,58,-1
 678.22265625 628.90625 l 0,59,-1
 618.1640625 625 l 0,0,1
EndSplineSet
EndChar

StartChar: Y
Encoding: 60 89 60
Width: 639
VWidth: 488
Flags: W
LayerCount: 2
Fore
SplineSet
654.78515625 625 m 0,0,1
 647.4609375 624.0234375 647.4609375 624.0234375 640.13671875 618.896484375 c 0,2,3
 632.8125 613.76953125 632.8125 613.76953125 628.90625 609.86328125 c 0,4,-1
 375 280.76171875 l 0,5,-1
 333.0078125 65.91796875 l 0,6,7
 330.56640625 58.59375 330.56640625 58.59375 334.9609375 53.22265625 c 0,8,9
 339.35546875 47.8515625 339.35546875 47.8515625 352.05078125 46.875 c 0,10,-1
 408.203125 41.9921875 l 0,11,-1
 408.203125 0 l 0,12,-1
 147.94921875 0 l 0,13,-1
 147.94921875 41.9921875 l 0,14,-1
 206.0546875 46.875 l 0,15,16
 214.84375 47.8515625 214.84375 47.8515625 221.19140625 52.490234375 c 0,17,18
 227.5390625 57.12890625 227.5390625 57.12890625 229.98046875 65.91796875 c 0,19,-1
 270.99609375 271.97265625 l 0,20,-1
 159.1796875 609.86328125 l 0,21,22
 155.76171875 619.62890625 155.76171875 619.62890625 150.634765625 621.826171875 c 0,23,24
 145.5078125 624.0234375 145.5078125 624.0234375 140.13671875 625 c 0,25,-1
 83.984375 628.90625 l 0,26,-1
 83.984375 670.8984375 l 0,27,-1
 342.7734375 670.8984375 l 0,28,-1
 342.7734375 628.90625 l 0,29,-1
 278.80859375 625 l 0,30,31
 270.5078125 624.0234375 270.5078125 624.0234375 266.357421875 618.65234375 c 0,32,33
 262.20703125 613.28125 262.20703125 613.28125 265.13671875 604.98046875 c 0,34,-1
 347.16796875 345.21484375 l 0,35,-1
 540.0390625 604.98046875 l 0,36,37
 541.9921875 608.3984375 541.9921875 608.3984375 543.45703125 611.81640625 c 0,38,39
 544.921875 615.234375 544.921875 615.234375 544.43359375 617.919921875 c 0,40,41
 543.9453125 620.60546875 543.9453125 620.60546875 541.259765625 622.55859375 c 0,42,43
 538.57421875 624.51171875 538.57421875 624.51171875 532.2265625 625 c 0,44,-1
 470.21484375 628.90625 l 0,45,-1
 470.21484375 670.8984375 l 0,46,-1
 710.9375 670.8984375 l 0,47,-1
 710.9375 628.90625 l 0,48,-1
 654.78515625 625 l 0,0,1
EndSplineSet
EndChar

StartChar: Z
Encoding: 61 90 61
Width: 562
VWidth: 488
Flags: W
LayerCount: 2
Fore
SplineSet
585.9375 625.9765625 m 0,0,-1
 115.234375 53.22265625 l 0,1,-1
 387.20703125 53.22265625 l 0,2,3
 406.73828125 53.22265625 406.73828125 53.22265625 412.109375 73.2421875 c 0,4,-1
 441.89453125 185.05859375 l 0,5,-1
 509.765625 185.05859375 l 0,6,-1
 475.09765625 0 l 0,7,-1
 -20.01953125 0 l 0,8,-1
 -11.23046875 43.9453125 l 0,9,-1
 458.0078125 619.140625 l 0,10,-1
 224.12109375 619.140625 l 0,11,12
 213.37890625 619.140625 213.37890625 619.140625 208.251953125 614.501953125 c 0,13,14
 203.125 609.86328125 203.125 609.86328125 200.1953125 600.09765625 c 0,15,-1
 172.8515625 512.20703125 l 0,16,-1
 104.00390625 512.20703125 l 0,17,-1
 136.23046875 670.8984375 l 0,18,-1
 595.21484375 670.8984375 l 0,19,-1
 585.9375 625.9765625 l 0,0,-1
EndSplineSet
EndChar

StartChar: bracketleft
Encoding: 62 91 62
Width: 420
VWidth: 488
Flags: W
LayerCount: 2
Fore
SplineSet
308.10546875 661.1328125 m 0,0,-1
 159.1796875 -84.9609375 l 0,1,-1
 312.01171875 -84.9609375 l 0,2,-1
 312.01171875 -131.8359375 l 0,3,-1
 54.19921875 -131.8359375 l 0,4,-1
 222.16796875 708.0078125 l 0,5,-1
 471.19140625 708.0078125 l 0,6,-1
 471.19140625 661.1328125 l 0,7,-1
 308.10546875 661.1328125 l 0,0,-1
EndSplineSet
EndChar

StartChar: backslash
Encoding: 63 92 63
Width: 488
VWidth: 488
Flags: W
LayerCount: 2
Fore
SplineSet
424.8046875 -92.7734375 m 0,0,-1
 0 670.8984375 l 0,1,-1
 63.96484375 670.8984375 l 0,2,-1
 488.76953125 -92.7734375 l 0,3,-1
 424.8046875 -92.7734375 l 0,0,-1
EndSplineSet
EndChar

StartChar: bracketright
Encoding: 64 93 64
Width: 420
VWidth: 488
Flags: W
LayerCount: 2
Fore
SplineSet
208.0078125 -131.8359375 m 0,0,-1
 -41.015625 -131.8359375 l 0,1,-1
 -41.015625 -83.984375 l 0,2,-1
 123.046875 -83.984375 l 0,3,-1
 270.99609375 662.109375 l 0,4,-1
 118.1640625 662.109375 l 0,5,-1
 118.1640625 708.0078125 l 0,6,-1
 375.9765625 708.0078125 l 0,7,-1
 208.0078125 -131.8359375 l 0,0,-1
EndSplineSet
EndChar

StartChar: asciicircum
Encoding: 65 94 65
Width: 342
Flags: W
LayerCount: 2
Fore
SplineSet
330 550 m 1,0,-1
 248 642 l 1,1,-1
 128 550 l 1,2,-1
 59 550 l 1,3,-1
 224 719 l 1,4,-1
 302 719 l 1,5,-1
 400 550 l 1,6,-1
 330 550 l 1,0,-1
EndSplineSet
Refer: 360 770 N 1 0 0 1 413.574 0 2
EndChar

StartChar: underscore
Encoding: 66 95 66
Width: 303
VWidth: 488
Flags: W
LayerCount: 2
Fore
SplineSet
225.5859375 -153.80859375 m 0,0,-1
 -78.125 -153.80859375 l 0,1,-1
 -63.96484375 -87.890625 l 0,2,-1
 238.28125 -87.890625 l 0,3,-1
 225.5859375 -153.80859375 l 0,0,-1
EndSplineSet
EndChar

StartChar: grave
Encoding: 67 96 67
Width: 393
Flags: W
LayerCount: 2
Fore
SplineSet
256 550 m 1,0,-1
 111 645 l 2,1,2
 101 651 101 651 95 661 c 128,-1,3
 89 671 89 671 89 686 c 0,4,5
 89 693 89 693 91 700.5 c 128,-1,6
 93 708 93 708 98 714 c 128,-1,7
 103 720 103 720 111.5 724 c 128,-1,8
 120 728 120 728 133 728 c 0,9,10
 143 728 143 728 150.5 726.5 c 128,-1,11
 158 725 158 725 163.5 722 c 128,-1,12
 169 719 169 719 173.5 714.5 c 128,-1,13
 178 710 178 710 182 705 c 2,14,-1
 315 549 l 1,15,-1
 256 550 l 1,0,-1
EndSplineSet
Refer: 358 768 N 1 0 0 1 404.297 0 2
EndChar

StartChar: a
Encoding: 68 97 68
Width: 520
VWidth: 488
Flags: W
LayerCount: 2
Fore
SplineSet
518.06640625 26.85546875 m 0,0,1
 512.20703125 24.4140625 512.20703125 24.4140625 496.58203125 17.822265625 c 0,2,3
 480.95703125 11.23046875 480.95703125 11.23046875 461.669921875 4.638671875 c 0,4,5
 442.3828125 -1.953125 442.3828125 -1.953125 422.607421875 -7.080078125 c 0,6,7
 402.83203125 -12.20703125 402.83203125 -12.20703125 388.18359375 -12.20703125 c 0,8,9
 370.1171875 -12.20703125 370.1171875 -12.20703125 357.666015625 -7.8125 c 0,10,11
 345.21484375 -3.41796875 345.21484375 -3.41796875 337.158203125 5.37109375 c 0,12,13
 329.1015625 14.16015625 329.1015625 14.16015625 324.70703125 26.85546875 c 0,14,15
 320.3125 39.55078125 320.3125 39.55078125 318.84765625 56.15234375 c 0,16,17
 307.6171875 45.41015625 307.6171875 45.41015625 292.48046875 33.447265625 c 0,18,19
 277.34375 21.484375 277.34375 21.484375 259.033203125 11.23046875 c 0,20,21
 240.72265625 0.9765625 240.72265625 0.9765625 219.970703125 -5.615234375 c 0,22,23
 199.21875 -12.20703125 199.21875 -12.20703125 176.7578125 -12.20703125 c 0,24,25
 147.4609375 -12.20703125 147.4609375 -12.20703125 125.244140625 -3.90625 c 0,26,27
 103.02734375 4.39453125 103.02734375 4.39453125 86.9140625 18.310546875 c 0,28,29
 70.80078125 32.2265625 70.80078125 32.2265625 60.302734375 50.537109375 c 0,30,31
 49.8046875 68.84765625 49.8046875 68.84765625 43.45703125 88.623046875 c 0,32,33
 37.109375 108.3984375 37.109375 108.3984375 34.66796875 128.662109375 c 0,34,35
 32.2265625 148.92578125 32.2265625 148.92578125 32.2265625 166.9921875 c 0,36,37
 32.2265625 205.56640625 32.2265625 205.56640625 40.52734375 244.873046875 c 0,38,39
 48.828125 284.1796875 48.828125 284.1796875 65.185546875 320.556640625 c 0,40,41
 81.54296875 356.93359375 81.54296875 356.93359375 105.95703125 388.671875 c 0,42,43
 130.37109375 420.41015625 130.37109375 420.41015625 162.353515625 443.84765625 c 0,44,45
 194.3359375 467.28515625 194.3359375 467.28515625 233.642578125 480.712890625 c 0,46,47
 272.94921875 494.140625 272.94921875 494.140625 319.82421875 494.140625 c 0,48,49
 333.49609375 494.140625 333.49609375 494.140625 346.923828125 490.966796875 c 0,50,51
 360.3515625 487.79296875 360.3515625 487.79296875 372.0703125 482.666015625 c 0,52,53
 383.7890625 477.5390625 383.7890625 477.5390625 393.5546875 471.19140625 c 0,54,55
 403.3203125 464.84375 403.3203125 464.84375 410.15625 458.0078125 c 0,56,-1
 424.8046875 481.93359375 l 0,57,-1
 493.1640625 481.93359375 l 0,58,59
 490.72265625 476.07421875 490.72265625 476.07421875 487.79296875 468.017578125 c 0,60,61
 484.86328125 459.9609375 484.86328125 459.9609375 481.93359375 451.66015625 c 0,62,63
 479.00390625 443.359375 479.00390625 443.359375 476.806640625 436.03515625 c 0,64,65
 474.609375 428.7109375 474.609375 428.7109375 474.12109375 424.8046875 c 0,66,67
 470.703125 411.62109375 470.703125 411.62109375 464.35546875 385.009765625 c 0,68,69
 458.0078125 358.3984375 458.0078125 358.3984375 450.927734375 325.1953125 c 0,70,71
 443.84765625 291.9921875 443.84765625 291.9921875 436.279296875 255.615234375 c 0,72,73
 428.7109375 219.23828125 428.7109375 219.23828125 422.8515625 186.767578125 c 0,74,75
 416.9921875 154.296875 416.9921875 154.296875 413.0859375 129.150390625 c 0,76,77
 409.1796875 104.00390625 409.1796875 104.00390625 409.1796875 92.7734375 c 0,78,79
 409.1796875 66.40625 409.1796875 66.40625 420.41015625 56.640625 c 0,80,81
 431.640625 46.875 431.640625 46.875 452.1484375 46.875 c 0,82,83
 457.03125 46.875 457.03125 46.875 466.552734375 49.072265625 c 0,84,85
 476.07421875 51.26953125 476.07421875 51.26953125 486.328125 54.19921875 c 0,86,87
 496.58203125 57.12890625 496.58203125 57.12890625 505.37109375 59.5703125 c 0,88,89
 514.16015625 62.01171875 514.16015625 62.01171875 518.06640625 62.98828125 c 0,90,-1
 518.06640625 26.85546875 l 0,0,1
371.09375 392.08984375 m 0,91,92
 371.58203125 394.53125 371.58203125 394.53125 367.431640625 403.3203125 c 0,93,94
 363.28125 412.109375 363.28125 412.109375 357.421875 421.630859375 c 0,95,96
 351.5625 431.15234375 351.5625 431.15234375 344.970703125 438.4765625 c 0,97,98
 338.37890625 445.80078125 338.37890625 445.80078125 333.984375 445.80078125 c 0,99,100
 295.8984375 445.80078125 295.8984375 445.80078125 265.869140625 433.349609375 c 0,101,102
 235.83984375 420.8984375 235.83984375 420.8984375 213.37890625 399.658203125 c 0,103,104
 190.91796875 378.41796875 190.91796875 378.41796875 175.048828125 350.5859375 c 0,105,106
 159.1796875 322.75390625 159.1796875 322.75390625 149.4140625 292.48046875 c 0,107,108
 139.6484375 262.20703125 139.6484375 262.20703125 135.25390625 231.4453125 c 0,109,110
 130.859375 200.68359375 130.859375 200.68359375 130.859375 172.8515625 c 0,111,112
 130.859375 151.85546875 130.859375 151.85546875 134.27734375 130.859375 c 0,113,114
 137.6953125 109.86328125 137.6953125 109.86328125 146.240234375 92.7734375 c 0,115,116
 154.78515625 75.68359375 154.78515625 75.68359375 169.677734375 64.94140625 c 0,117,118
 184.5703125 54.19921875 184.5703125 54.19921875 208.0078125 54.19921875 c 0,119,120
 225.5859375 54.19921875 225.5859375 54.19921875 243.1640625 62.01171875 c 0,121,122
 260.7421875 69.82421875 260.7421875 69.82421875 275.87890625 80.078125 c 0,123,124
 291.015625 90.33203125 291.015625 90.33203125 302.24609375 100.5859375 c 0,125,126
 313.4765625 110.83984375 313.4765625 110.83984375 318.84765625 116.2109375 c 0,127,-1
 371.09375 392.08984375 l 0,91,92
EndSplineSet
EndChar

StartChar: b
Encoding: 69 98 69
Width: 492
VWidth: 488
Flags: W
LayerCount: 2
Fore
SplineSet
459.9609375 310.05859375 m 0,0,1
 459.9609375 278.80859375 459.9609375 278.80859375 453.125 242.919921875 c 0,2,3
 446.2890625 207.03125 446.2890625 207.03125 431.884765625 171.38671875 c 0,4,5
 417.48046875 135.7421875 417.48046875 135.7421875 395.01953125 102.5390625 c 0,6,7
 372.55859375 69.3359375 372.55859375 69.3359375 341.30859375 43.9453125 c 0,8,9
 310.05859375 18.5546875 310.05859375 18.5546875 269.53125 3.173828125 c 0,10,11
 229.00390625 -12.20703125 229.00390625 -12.20703125 178.22265625 -12.20703125 c 0,12,13
 135.7421875 -12.20703125 135.7421875 -12.20703125 94.482421875 -0.48828125 c 0,14,15
 53.22265625 11.23046875 53.22265625 11.23046875 18.06640625 34.1796875 c 0,16,-1
 136.23046875 667.96875 l 0,17,-1
 46.875 676.7578125 l 0,18,-1
 46.875 707.03125 l 0,19,-1
 203.125 736.81640625 l 0,20,-1
 242.1875 736.81640625 l 0,21,-1
 185.05859375 434.08203125 l 0,22,23
 198.73046875 446.2890625 198.73046875 446.2890625 215.087890625 457.275390625 c 0,24,25
 231.4453125 468.26171875 231.4453125 468.26171875 249.0234375 476.318359375 c 0,26,27
 266.6015625 484.375 266.6015625 484.375 285.15625 489.2578125 c 0,28,29
 303.7109375 494.140625 303.7109375 494.140625 321.77734375 494.140625 c 0,30,31
 360.3515625 494.140625 360.3515625 494.140625 386.71875 477.05078125 c 0,32,33
 413.0859375 459.9609375 413.0859375 459.9609375 429.443359375 433.10546875 c 0,34,35
 445.80078125 406.25 445.80078125 406.25 452.880859375 373.779296875 c 0,36,37
 459.9609375 341.30859375 459.9609375 341.30859375 459.9609375 310.05859375 c 0,0,1
360.83984375 306.15234375 m 0,38,39
 360.83984375 339.84375 360.83984375 339.84375 353.02734375 363.037109375 c 0,40,41
 345.21484375 386.23046875 345.21484375 386.23046875 333.984375 400.87890625 c 0,42,43
 322.75390625 415.52734375 322.75390625 415.52734375 310.302734375 421.875 c 0,44,45
 297.8515625 428.22265625 297.8515625 428.22265625 289.0625 428.22265625 c 0,46,47
 276.85546875 428.22265625 276.85546875 428.22265625 262.20703125 424.31640625 c 0,48,49
 247.55859375 420.41015625 247.55859375 420.41015625 232.177734375 413.330078125 c 0,50,51
 216.796875 406.25 216.796875 406.25 201.66015625 396.97265625 c 0,52,53
 186.5234375 387.6953125 186.5234375 387.6953125 173.828125 376.953125 c 0,54,-1
 118.1640625 74.21875 l 0,55,56
 123.046875 66.89453125 123.046875 66.89453125 131.34765625 60.05859375 c 0,57,58
 139.6484375 53.22265625 139.6484375 53.22265625 150.390625 47.607421875 c 0,59,60
 161.1328125 41.9921875 161.1328125 41.9921875 173.828125 38.57421875 c 0,61,62
 186.5234375 35.15625 186.5234375 35.15625 200.1953125 35.15625 c 0,63,64
 223.14453125 35.15625 223.14453125 35.15625 243.896484375 46.875 c 0,65,66
 264.6484375 58.59375 264.6484375 58.59375 282.470703125 78.61328125 c 0,67,68
 300.29296875 98.6328125 300.29296875 98.6328125 314.94140625 125.48828125 c 0,69,70
 329.58984375 152.34375 329.58984375 152.34375 339.599609375 182.373046875 c 0,71,72
 349.609375 212.40234375 349.609375 212.40234375 355.224609375 244.384765625 c 0,73,74
 360.83984375 276.3671875 360.83984375 276.3671875 360.83984375 306.15234375 c 0,38,39
EndSplineSet
EndChar

StartChar: c
Encoding: 70 99 70
Width: 435
VWidth: 488
Flags: W
LayerCount: 2
Fore
SplineSet
402.83203125 423.828125 m 0,0,1
 402.83203125 414.0625 402.83203125 414.0625 399.90234375 403.80859375 c 0,2,3
 396.97265625 393.5546875 396.97265625 393.5546875 388.427734375 384.765625 c 0,4,5
 379.8828125 375.9765625 379.8828125 375.9765625 364.990234375 368.896484375 c 0,6,7
 350.09765625 361.81640625 350.09765625 361.81640625 326.171875 358.88671875 c 0,8,-1
 269.04296875 436.03515625 l 0,9,10
 242.1875 434.5703125 242.1875 434.5703125 221.19140625 421.142578125 c 0,11,12
 200.1953125 407.71484375 200.1953125 407.71484375 184.326171875 386.71875 c 0,13,14
 168.45703125 365.72265625 168.45703125 365.72265625 157.470703125 339.111328125 c 0,15,16
 146.484375 312.5 146.484375 312.5 139.6484375 285.15625 c 0,17,18
 132.8125 257.8125 132.8125 257.8125 129.8828125 231.93359375 c 0,19,20
 126.953125 206.0546875 126.953125 206.0546875 126.953125 186.03515625 c 0,21,22
 126.953125 161.62109375 126.953125 161.62109375 131.591796875 137.939453125 c 0,23,24
 136.23046875 114.2578125 136.23046875 114.2578125 146.728515625 95.458984375 c 0,25,26
 157.2265625 76.66015625 157.2265625 76.66015625 174.072265625 64.94140625 c 0,27,28
 190.91796875 53.22265625 190.91796875 53.22265625 215.8203125 53.22265625 c 0,29,30
 235.83984375 53.22265625 235.83984375 53.22265625 256.34765625 60.302734375 c 0,31,32
 276.85546875 67.3828125 276.85546875 67.3828125 297.607421875 80.078125 c 0,33,34
 318.359375 92.7734375 318.359375 92.7734375 339.35546875 110.3515625 c 0,35,36
 360.3515625 127.9296875 360.3515625 127.9296875 381.8359375 148.92578125 c 0,37,-1
 381.8359375 85.9375 l 0,38,39
 366.2109375 70.80078125 366.2109375 70.80078125 346.19140625 53.7109375 c 0,40,41
 326.171875 36.62109375 326.171875 36.62109375 301.7578125 21.97265625 c 0,42,43
 277.34375 7.32421875 277.34375 7.32421875 248.291015625 -2.44140625 c 0,44,45
 219.23828125 -12.20703125 219.23828125 -12.20703125 186.03515625 -12.20703125 c 0,46,47
 150.390625 -12.20703125 150.390625 -12.20703125 121.826171875 0.244140625 c 0,48,49
 93.26171875 12.6953125 93.26171875 12.6953125 73.486328125 36.376953125 c 0,50,51
 53.7109375 60.05859375 53.7109375 60.05859375 42.96875 94.7265625 c 0,52,53
 32.2265625 129.39453125 32.2265625 129.39453125 32.2265625 173.828125 c 0,54,55
 32.2265625 218.75 32.2265625 218.75 42.724609375 259.765625 c 0,56,57
 53.22265625 300.78125 53.22265625 300.78125 71.77734375 336.42578125 c 0,58,59
 90.33203125 372.0703125 90.33203125 372.0703125 115.72265625 401.123046875 c 0,60,61
 141.11328125 430.17578125 141.11328125 430.17578125 170.8984375 450.927734375 c 0,62,63
 200.68359375 471.6796875 200.68359375 471.6796875 233.642578125 482.91015625 c 0,64,65
 266.6015625 494.140625 266.6015625 494.140625 300.78125 494.140625 c 0,66,67
 327.63671875 494.140625 327.63671875 494.140625 347.16796875 487.3046875 c 0,68,69
 366.69921875 480.46875 366.69921875 480.46875 378.90625 470.21484375 c 0,70,71
 391.11328125 459.9609375 391.11328125 459.9609375 396.97265625 447.509765625 c 0,72,73
 402.83203125 435.05859375 402.83203125 435.05859375 402.83203125 423.828125 c 0,0,1
EndSplineSet
EndChar

StartChar: d
Encoding: 71 100 71
Width: 525
VWidth: 488
Flags: W
LayerCount: 2
Fore
SplineSet
375.9765625 394.04296875 m 0,0,1
 376.46484375 395.99609375 376.46484375 395.99609375 370.361328125 405.029296875 c 0,2,3
 364.2578125 414.0625 364.2578125 414.0625 354.736328125 423.828125 c 0,4,5
 345.21484375 433.59375 345.21484375 433.59375 333.984375 441.40625 c 0,6,7
 322.75390625 449.21875 322.75390625 449.21875 312.98828125 449.21875 c 0,8,9
 276.3671875 449.21875 276.3671875 449.21875 243.1640625 427.978515625 c 0,10,11
 209.9609375 406.73828125 209.9609375 406.73828125 184.5703125 369.62890625 c 0,12,13
 159.1796875 332.51953125 159.1796875 332.51953125 144.04296875 281.982421875 c 0,14,15
 128.90625 231.4453125 128.90625 231.4453125 128.90625 172.8515625 c 0,16,17
 128.90625 140.625 128.90625 140.625 135.498046875 117.1875 c 0,18,19
 142.08984375 93.75 142.08984375 93.75 153.076171875 78.61328125 c 0,20,21
 164.0625 63.4765625 164.0625 63.4765625 178.22265625 56.15234375 c 0,22,23
 192.3828125 48.828125 192.3828125 48.828125 207.03125 48.828125 c 0,24,25
 220.703125 48.828125 220.703125 48.828125 236.572265625 55.6640625 c 0,26,27
 252.44140625 62.5 252.44140625 62.5 268.5546875 73.974609375 c 0,28,29
 284.66796875 85.44921875 284.66796875 85.44921875 300.537109375 100.341796875 c 0,30,31
 316.40625 115.234375 316.40625 115.234375 330.078125 130.859375 c 0,32,-1
 375.9765625 394.04296875 l 0,0,1
415.0390625 85.9375 m 0,33,34
 412.59765625 71.77734375 412.59765625 71.77734375 416.50390625 62.98828125 c 0,35,36
 420.41015625 54.19921875 420.41015625 54.19921875 427.001953125 49.072265625 c 0,37,38
 433.59375 43.9453125 433.59375 43.9453125 440.673828125 41.9921875 c 0,39,40
 447.75390625 40.0390625 447.75390625 40.0390625 451.171875 40.0390625 c 0,41,42
 454.58984375 40.0390625 454.58984375 40.0390625 465.087890625 42.724609375 c 0,43,44
 475.5859375 45.41015625 475.5859375 45.41015625 487.3046875 48.828125 c 0,45,46
 499.0234375 52.24609375 499.0234375 52.24609375 509.27734375 55.17578125 c 0,47,-1
 522.94921875 59.08203125 l 0,48,-1
 522.94921875 21.97265625 l 0,49,50
 517.08984375 19.53125 517.08984375 19.53125 501.46484375 13.916015625 c 0,51,52
 485.83984375 8.30078125 485.83984375 8.30078125 466.796875 2.44140625 c 0,53,54
 447.75390625 -3.41796875 447.75390625 -3.41796875 427.490234375 -7.8125 c 0,55,56
 407.2265625 -12.20703125 407.2265625 -12.20703125 392.08984375 -12.20703125 c 0,57,58
 369.140625 -12.20703125 369.140625 -12.20703125 354.4921875 -6.591796875 c 0,59,60
 339.84375 -0.9765625 339.84375 -0.9765625 331.54296875 9.033203125 c 0,61,62
 323.2421875 19.04296875 323.2421875 19.04296875 320.068359375 32.71484375 c 0,63,64
 316.89453125 46.38671875 316.89453125 46.38671875 316.89453125 62.98828125 c 0,65,66
 303.7109375 48.828125 303.7109375 48.828125 287.841796875 35.400390625 c 0,67,68
 271.97265625 21.97265625 271.97265625 21.97265625 253.90625 11.474609375 c 0,69,70
 235.83984375 0.9765625 235.83984375 0.9765625 215.8203125 -5.615234375 c 0,71,72
 195.80078125 -12.20703125 195.80078125 -12.20703125 174.8046875 -12.20703125 c 0,73,74
 132.8125 -12.20703125 132.8125 -12.20703125 105.224609375 3.90625 c 0,75,76
 77.63671875 20.01953125 77.63671875 20.01953125 61.5234375 45.8984375 c 0,77,78
 45.41015625 71.77734375 45.41015625 71.77734375 38.818359375 103.515625 c 0,79,80
 32.2265625 135.25390625 32.2265625 135.25390625 32.2265625 166.9921875 c 0,81,82
 32.2265625 206.54296875 32.2265625 206.54296875 40.771484375 246.337890625 c 0,83,84
 49.31640625 286.1328125 49.31640625 286.1328125 66.162109375 322.509765625 c 0,85,86
 83.0078125 358.88671875 83.0078125 358.88671875 107.421875 390.13671875 c 0,87,88
 131.8359375 421.38671875 131.8359375 421.38671875 163.0859375 444.580078125 c 0,89,90
 194.3359375 467.7734375 194.3359375 467.7734375 232.666015625 480.95703125 c 0,91,92
 270.99609375 494.140625 270.99609375 494.140625 314.94140625 494.140625 c 0,93,94
 326.171875 494.140625 326.171875 494.140625 336.9140625 491.943359375 c 0,95,96
 347.65625 489.74609375 347.65625 489.74609375 357.421875 486.81640625 c 0,97,98
 367.1875 483.88671875 367.1875 483.88671875 375.48828125 480.46875 c 0,99,100
 383.7890625 477.05078125 383.7890625 477.05078125 390.13671875 475.09765625 c 0,101,-1
 423.828125 667.96875 l 0,102,-1
 333.0078125 676.7578125 l 0,103,-1
 333.0078125 707.03125 l 0,104,-1
 487.79296875 736.81640625 l 0,105,-1
 528.80859375 736.81640625 l 0,106,-1
 415.0390625 85.9375 l 0,33,34
EndSplineSet
EndChar

StartChar: e
Encoding: 72 101 72
Width: 434
VWidth: 488
Flags: W
LayerCount: 2
Fore
SplineSet
416.9921875 393.06640625 m 0,0,1
 416.9921875 365.72265625 416.9921875 365.72265625 404.296875 342.7734375 c 0,2,3
 391.6015625 319.82421875 391.6015625 319.82421875 369.873046875 301.26953125 c 0,4,5
 348.14453125 282.71484375 348.14453125 282.71484375 319.580078125 268.310546875 c 0,6,7
 291.015625 253.90625 291.015625 253.90625 259.521484375 243.896484375 c 0,8,9
 228.02734375 233.88671875 228.02734375 233.88671875 195.3125 227.783203125 c 0,10,11
 162.59765625 221.6796875 162.59765625 221.6796875 132.8125 220.21484375 c 0,12,13
 131.34765625 210.44921875 131.34765625 210.44921875 130.126953125 196.77734375 c 0,14,15
 128.90625 183.10546875 128.90625 183.10546875 128.90625 173.828125 c 0,16,17
 128.90625 146.484375 128.90625 146.484375 135.498046875 123.53515625 c 0,18,19
 142.08984375 100.5859375 142.08984375 100.5859375 154.541015625 83.740234375 c 0,20,21
 166.9921875 66.89453125 166.9921875 66.89453125 184.5703125 57.373046875 c 0,22,23
 202.1484375 47.8515625 202.1484375 47.8515625 224.12109375 47.8515625 c 0,24,25
 257.8125 47.8515625 257.8125 47.8515625 298.33984375 72.265625 c 0,26,27
 338.8671875 96.6796875 338.8671875 96.6796875 394.04296875 145.01953125 c 0,28,-1
 394.04296875 82.03125 l 0,29,30
 379.8828125 68.359375 379.8828125 68.359375 359.375 52.001953125 c 0,31,32
 338.8671875 35.64453125 338.8671875 35.64453125 312.744140625 21.240234375 c 0,33,34
 286.62109375 6.8359375 286.62109375 6.8359375 255.859375 -2.685546875 c 0,35,36
 225.09765625 -12.20703125 225.09765625 -12.20703125 190.91796875 -12.20703125 c 0,37,38
 175.78125 -12.20703125 175.78125 -12.20703125 157.958984375 -9.27734375 c 0,39,40
 140.13671875 -6.34765625 140.13671875 -6.34765625 122.55859375 1.220703125 c 0,41,42
 104.98046875 8.7890625 104.98046875 8.7890625 88.623046875 21.97265625 c 0,43,44
 72.265625 35.15625 72.265625 35.15625 59.814453125 55.419921875 c 0,45,46
 47.36328125 75.68359375 47.36328125 75.68359375 39.794921875 103.759765625 c 0,47,48
 32.2265625 131.8359375 32.2265625 131.8359375 32.2265625 169.921875 c 0,49,50
 32.2265625 209.47265625 32.2265625 209.47265625 41.748046875 248.779296875 c 0,51,52
 51.26953125 288.0859375 51.26953125 288.0859375 68.603515625 323.974609375 c 0,53,54
 85.9375 359.86328125 85.9375 359.86328125 110.3515625 390.869140625 c 0,55,56
 134.765625 421.875 134.765625 421.875 164.0625 444.580078125 c 0,57,58
 193.359375 467.28515625 193.359375 467.28515625 226.806640625 480.224609375 c 0,59,60
 260.25390625 493.1640625 260.25390625 493.1640625 295.8984375 493.1640625 c 0,61,62
 330.56640625 493.1640625 330.56640625 493.1640625 353.759765625 481.689453125 c 0,63,64
 376.953125 470.21484375 376.953125 470.21484375 391.11328125 454.1015625 c 0,65,66
 405.2734375 437.98828125 405.2734375 437.98828125 411.1328125 420.8984375 c 0,67,68
 416.9921875 403.80859375 416.9921875 403.80859375 416.9921875 393.06640625 c 0,0,1
328.125 394.04296875 m 0,69,70
 328.125 403.80859375 328.125 403.80859375 324.21875 413.330078125 c 0,71,72
 320.3125 422.8515625 320.3125 422.8515625 313.4765625 430.17578125 c 0,73,74
 306.640625 437.5 306.640625 437.5 296.38671875 442.138671875 c 0,75,76
 286.1328125 446.77734375 286.1328125 446.77734375 273.92578125 446.77734375 c 0,77,78
 257.32421875 446.77734375 257.32421875 446.77734375 242.1875 437.98828125 c 0,79,80
 227.05078125 429.19921875 227.05078125 429.19921875 213.134765625 414.55078125 c 0,81,82
 199.21875 399.90234375 199.21875 399.90234375 187.255859375 380.859375 c 0,83,84
 175.29296875 361.81640625 175.29296875 361.81640625 165.771484375 340.8203125 c 0,85,86
 156.25 319.82421875 156.25 319.82421875 148.92578125 298.33984375 c 0,87,88
 141.6015625 276.85546875 141.6015625 276.85546875 137.20703125 257.8125 c 0,89,90
 168.9453125 260.7421875 168.9453125 260.7421875 202.880859375 272.4609375 c 0,91,92
 236.81640625 284.1796875 236.81640625 284.1796875 264.6484375 302.490234375 c 0,93,94
 292.48046875 320.80078125 292.48046875 320.80078125 310.302734375 344.23828125 c 0,95,96
 328.125 367.67578125 328.125 367.67578125 328.125 394.04296875 c 0,69,70
EndSplineSet
EndChar

StartChar: f
Encoding: 73 102 73
Width: 321
VWidth: 488
Flags: W
LayerCount: 2
Fore
SplineSet
440.91796875 674.8046875 m 0,0,1
 440.91796875 650.87890625 440.91796875 650.87890625 423.33984375 637.939453125 c 0,2,3
 405.76171875 625 405.76171875 625 377.9296875 621.09375 c 0,4,-1
 299.8046875 684.08203125 l 0,5,6
 289.0625 675.29296875 289.0625 675.29296875 279.78515625 658.69140625 c 0,7,8
 270.5078125 642.08984375 270.5078125 642.08984375 262.6953125 621.09375 c 0,9,10
 254.8828125 600.09765625 254.8828125 600.09765625 248.291015625 576.416015625 c 0,11,12
 241.69921875 552.734375 241.69921875 552.734375 236.81640625 530.517578125 c 0,13,14
 231.93359375 508.30078125 231.93359375 508.30078125 228.515625 489.013671875 c 0,15,16
 225.09765625 469.7265625 225.09765625 469.7265625 223.14453125 457.03125 c 0,17,-1
 345.21484375 457.03125 l 0,18,-1
 345.21484375 407.2265625 l 0,19,-1
 213.8671875 407.2265625 l 0,20,21
 212.40234375 395.99609375 212.40234375 395.99609375 208.740234375 368.1640625 c 0,22,23
 205.078125 340.33203125 205.078125 340.33203125 199.70703125 303.7109375 c 0,24,25
 194.3359375 267.08984375 194.3359375 267.08984375 188.232421875 225.341796875 c 0,26,27
 182.12890625 183.59375 182.12890625 183.59375 176.025390625 144.775390625 c 0,28,29
 169.921875 105.95703125 169.921875 105.95703125 164.0625 73.2421875 c 0,30,31
 158.203125 40.52734375 158.203125 40.52734375 153.80859375 21.97265625 c 0,32,33
 146.97265625 -5.859375 146.97265625 -5.859375 135.009765625 -35.400390625 c 0,34,35
 123.046875 -64.94140625 123.046875 -64.94140625 106.689453125 -92.7734375 c 0,36,37
 90.33203125 -120.60546875 90.33203125 -120.60546875 70.556640625 -145.5078125 c 0,38,39
 50.78125 -170.41015625 50.78125 -170.41015625 28.564453125 -188.96484375 c 0,40,41
 6.34765625 -207.51953125 6.34765625 -207.51953125 -17.822265625 -218.26171875 c 0,42,43
 -41.9921875 -229.00390625 -41.9921875 -229.00390625 -66.89453125 -229.00390625 c 0,44,45
 -85.9375 -229.00390625 -85.9375 -229.00390625 -98.388671875 -222.65625 c 0,46,47
 -110.83984375 -216.30859375 -110.83984375 -216.30859375 -117.67578125 -207.763671875 c 0,48,49
 -124.51171875 -199.21875 -124.51171875 -199.21875 -127.197265625 -191.162109375 c 0,50,51
 -129.8828125 -183.10546875 -129.8828125 -183.10546875 -129.8828125 -179.19921875 c 0,52,53
 -129.8828125 -160.15625 -129.8828125 -160.15625 -122.55859375 -149.658203125 c 0,54,55
 -115.234375 -139.16015625 -115.234375 -139.16015625 -104.00390625 -130.859375 c 0,56,-1
 -1.953125 -157.2265625 l 0,57,58
 11.23046875 -141.11328125 11.23046875 -141.11328125 22.216796875 -117.67578125 c 0,59,60
 33.203125 -94.23828125 33.203125 -94.23828125 42.236328125 -65.91796875 c 0,61,62
 51.26953125 -37.59765625 51.26953125 -37.59765625 58.59375 -5.126953125 c 0,63,64
 65.91796875 27.34375 65.91796875 27.34375 71.77734375 62.01171875 c 0,65,66
 84.47265625 132.8125 84.47265625 132.8125 95.21484375 219.970703125 c 0,67,68
 105.95703125 307.12890625 105.95703125 307.12890625 121.09375 405.76171875 c 0,69,-1
 43.9453125 397.94921875 l 0,70,-1
 44.921875 437.01171875 l 0,71,-1
 131.8359375 465.8203125 l 0,72,73
 136.71875 492.1875 136.71875 492.1875 145.263671875 522.705078125 c 0,74,75
 153.80859375 553.22265625 153.80859375 553.22265625 166.50390625 583.251953125 c 0,76,77
 179.19921875 613.28125 179.19921875 613.28125 196.533203125 641.11328125 c 0,78,79
 213.8671875 668.9453125 213.8671875 668.9453125 236.328125 690.185546875 c 0,80,81
 258.7890625 711.42578125 258.7890625 711.42578125 286.865234375 724.12109375 c 0,82,83
 314.94140625 736.81640625 314.94140625 736.81640625 349.12109375 736.81640625 c 0,84,85
 374.51171875 736.81640625 374.51171875 736.81640625 392.08984375 730.46875 c 0,86,87
 409.66796875 724.12109375 409.66796875 724.12109375 420.41015625 714.599609375 c 0,88,89
 431.15234375 705.078125 431.15234375 705.078125 436.03515625 694.3359375 c 0,90,91
 440.91796875 683.59375 440.91796875 683.59375 440.91796875 674.8046875 c 0,0,1
EndSplineSet
EndChar

StartChar: g
Encoding: 74 103 74
Width: 439
VWidth: 488
Flags: W
LayerCount: 2
Fore
SplineSet
393.06640625 420.8984375 m 0,0,1
 397.4609375 409.66796875 397.4609375 409.66796875 401.611328125 392.08984375 c 0,2,3
 405.76171875 374.51171875 405.76171875 374.51171875 405.76171875 354.00390625 c 0,4,5
 405.76171875 306.15234375 405.76171875 306.15234375 388.18359375 270.5078125 c 0,6,7
 370.60546875 234.86328125 370.60546875 234.86328125 340.8203125 210.9375 c 0,8,9
 311.03515625 187.01171875 311.03515625 187.01171875 271.728515625 175.048828125 c 0,10,11
 232.421875 163.0859375 232.421875 163.0859375 188.96484375 163.0859375 c 0,12,13
 185.546875 155.76171875 185.546875 155.76171875 183.10546875 146.97265625 c 0,14,15
 180.6640625 138.18359375 180.6640625 138.18359375 179.19921875 129.638671875 c 0,16,17
 177.734375 121.09375 177.734375 121.09375 177.24609375 114.013671875 c 0,18,19
 176.7578125 106.93359375 176.7578125 106.93359375 178.22265625 103.02734375 c 0,20,-1
 312.01171875 41.9921875 l 0,21,22
 334.9609375 31.73828125 334.9609375 31.73828125 353.759765625 21.240234375 c 0,23,24
 372.55859375 10.7421875 372.55859375 10.7421875 385.986328125 -1.708984375 c 0,25,26
 399.4140625 -14.16015625 399.4140625 -14.16015625 406.73828125 -30.029296875 c 0,27,28
 414.0625 -45.8984375 414.0625 -45.8984375 414.0625 -67.87109375 c 0,29,30
 414.0625 -89.35546875 414.0625 -89.35546875 404.052734375 -109.619140625 c 0,31,32
 394.04296875 -129.8828125 394.04296875 -129.8828125 376.708984375 -147.705078125 c 0,33,34
 359.375 -165.52734375 359.375 -165.52734375 335.205078125 -180.6640625 c 0,35,36
 311.03515625 -195.80078125 311.03515625 -195.80078125 282.958984375 -206.54296875 c 0,37,38
 254.8828125 -217.28515625 254.8828125 -217.28515625 223.876953125 -223.14453125 c 0,39,40
 192.87109375 -229.00390625 192.87109375 -229.00390625 161.1328125 -229.00390625 c 0,41,42
 111.81640625 -229.00390625 111.81640625 -229.00390625 75.68359375 -216.796875 c 0,43,44
 39.55078125 -204.58984375 39.55078125 -204.58984375 15.869140625 -184.5703125 c 0,45,46
 -7.8125 -164.55078125 -7.8125 -164.55078125 -19.287109375 -138.18359375 c 0,47,48
 -30.76171875 -111.81640625 -30.76171875 -111.81640625 -30.76171875 -83.0078125 c 0,49,50
 -30.76171875 -57.6171875 -30.76171875 -57.6171875 -20.263671875 -36.1328125 c 0,51,52
 -9.765625 -14.6484375 -9.765625 -14.6484375 8.30078125 2.44140625 c 0,53,54
 26.3671875 19.53125 26.3671875 19.53125 50.537109375 32.71484375 c 0,55,56
 74.70703125 45.8984375 74.70703125 45.8984375 102.05078125 55.17578125 c 0,57,58
 99.609375 66.89453125 99.609375 66.89453125 101.806640625 82.763671875 c 0,59,60
 104.00390625 98.6328125 104.00390625 98.6328125 109.130859375 114.990234375 c 0,61,62
 114.2578125 131.34765625 114.2578125 131.34765625 122.55859375 146.484375 c 0,63,64
 130.859375 161.62109375 130.859375 161.62109375 141.11328125 171.875 c 0,65,66
 121.09375 180.6640625 121.09375 180.6640625 104.00390625 192.138671875 c 0,67,68
 86.9140625 203.61328125 86.9140625 203.61328125 74.462890625 218.505859375 c 0,69,70
 62.01171875 233.3984375 62.01171875 233.3984375 54.931640625 252.685546875 c 0,71,72
 47.8515625 271.97265625 47.8515625 271.97265625 47.8515625 295.8984375 c 0,73,74
 47.8515625 332.51953125 47.8515625 332.51953125 61.5234375 367.919921875 c 0,75,76
 75.1953125 403.3203125 75.1953125 403.3203125 101.318359375 431.396484375 c 0,77,78
 127.44140625 459.47265625 127.44140625 459.47265625 164.794921875 476.806640625 c 0,79,80
 202.1484375 494.140625 202.1484375 494.140625 250 494.140625 c 0,81,82
 268.06640625 494.140625 268.06640625 494.140625 283.935546875 490.966796875 c 0,83,84
 299.8046875 487.79296875 299.8046875 487.79296875 312.744140625 483.642578125 c 0,85,86
 325.68359375 479.4921875 325.68359375 479.4921875 335.205078125 475.09765625 c 0,87,88
 344.7265625 470.703125 344.7265625 470.703125 349.12109375 467.7734375 c 0,89,-1
 484.86328125 467.7734375 l 0,90,-1
 484.86328125 420.8984375 l 0,91,-1
 393.06640625 420.8984375 l 0,0,1
310.05859375 358.88671875 m 0,92,93
 310.05859375 377.44140625 310.05859375 377.44140625 306.640625 394.287109375 c 0,94,95
 303.22265625 411.1328125 303.22265625 411.1328125 296.142578125 424.072265625 c 0,96,97
 289.0625 437.01171875 289.0625 437.01171875 278.076171875 444.580078125 c 0,98,99
 267.08984375 452.1484375 267.08984375 452.1484375 251.953125 452.1484375 c 0,100,101
 233.88671875 452.1484375 233.88671875 452.1484375 214.84375 438.96484375 c 0,102,103
 195.80078125 425.78125 195.80078125 425.78125 179.931640625 402.83203125 c 0,104,105
 164.0625 379.8828125 164.0625 379.8828125 154.052734375 349.12109375 c 0,106,107
 144.04296875 318.359375 144.04296875 318.359375 144.04296875 283.203125 c 0,108,109
 144.04296875 265.13671875 144.04296875 265.13671875 147.94921875 249.755859375 c 0,110,111
 151.85546875 234.375 151.85546875 234.375 159.423828125 223.388671875 c 0,112,113
 166.9921875 212.40234375 166.9921875 212.40234375 177.490234375 206.298828125 c 0,114,115
 187.98828125 200.1953125 187.98828125 200.1953125 201.171875 200.1953125 c 0,116,117
 226.07421875 200.1953125 226.07421875 200.1953125 246.337890625 216.064453125 c 0,118,119
 266.6015625 231.93359375 266.6015625 231.93359375 280.76171875 255.859375 c 0,120,121
 294.921875 279.78515625 294.921875 279.78515625 302.490234375 307.6171875 c 0,122,123
 310.05859375 335.44921875 310.05859375 335.44921875 310.05859375 358.88671875 c 0,92,93
320.80078125 -87.890625 m 0,124,125
 320.80078125 -69.82421875 320.80078125 -69.82421875 310.05859375 -54.6875 c 0,126,127
 299.31640625 -39.55078125 299.31640625 -39.55078125 270.01953125 -25.87890625 c 0,128,-1
 145.01953125 30.76171875 l 0,129,130
 121.09375 24.90234375 121.09375 24.90234375 105.224609375 14.6484375 c 0,131,132
 89.35546875 4.39453125 89.35546875 4.39453125 80.078125 -8.544921875 c 0,133,134
 70.80078125 -21.484375 70.80078125 -21.484375 66.89453125 -36.1328125 c 0,135,136
 62.98828125 -50.78125 62.98828125 -50.78125 62.98828125 -65.91796875 c 0,137,138
 62.98828125 -83.0078125 62.98828125 -83.0078125 70.3125 -103.515625 c 0,139,140
 77.63671875 -124.0234375 77.63671875 -124.0234375 93.017578125 -141.6015625 c 0,141,142
 108.3984375 -159.1796875 108.3984375 -159.1796875 131.8359375 -171.142578125 c 0,143,144
 155.2734375 -183.10546875 155.2734375 -183.10546875 187.01171875 -183.10546875 c 0,145,146
 223.14453125 -183.10546875 223.14453125 -183.10546875 248.53515625 -172.8515625 c 0,147,148
 273.92578125 -162.59765625 273.92578125 -162.59765625 290.0390625 -147.94921875 c 0,149,150
 306.15234375 -133.30078125 306.15234375 -133.30078125 313.4765625 -116.943359375 c 0,151,152
 320.80078125 -100.5859375 320.80078125 -100.5859375 320.80078125 -87.890625 c 0,124,125
EndSplineSet
EndChar

StartChar: h
Encoding: 75 104 75
Width: 523
VWidth: 488
Flags: W
LayerCount: 2
Fore
SplineSet
521.97265625 24.90234375 m 0,0,1
 515.625 22.4609375 515.625 22.4609375 499.755859375 16.6015625 c 0,2,3
 483.88671875 10.7421875 483.88671875 10.7421875 464.35546875 4.150390625 c 0,4,5
 444.82421875 -2.44140625 444.82421875 -2.44140625 424.31640625 -7.32421875 c 0,6,7
 403.80859375 -12.20703125 403.80859375 -12.20703125 388.18359375 -12.20703125 c 0,8,9
 378.90625 -12.20703125 378.90625 -12.20703125 364.74609375 -9.521484375 c 0,10,11
 350.5859375 -6.8359375 350.5859375 -6.8359375 338.134765625 0.244140625 c 0,12,13
 325.68359375 7.32421875 325.68359375 7.32421875 318.359375 20.01953125 c 0,14,15
 311.03515625 32.71484375 311.03515625 32.71484375 314.94140625 53.22265625 c 0,16,-1
 375.9765625 348.14453125 l 0,17,18
 380.37109375 367.67578125 380.37109375 367.67578125 375.244140625 382.8125 c 0,19,20
 370.1171875 397.94921875 370.1171875 397.94921875 360.83984375 407.958984375 c 0,21,22
 351.5625 417.96875 351.5625 417.96875 340.33203125 423.095703125 c 0,23,24
 329.1015625 428.22265625 329.1015625 428.22265625 320.80078125 428.22265625 c 0,25,26
 309.08203125 428.22265625 309.08203125 428.22265625 292.236328125 422.36328125 c 0,27,28
 275.390625 416.50390625 275.390625 416.50390625 256.591796875 406.25 c 0,29,30
 237.79296875 395.99609375 237.79296875 395.99609375 218.75 381.591796875 c 0,31,32
 199.70703125 367.1875 199.70703125 367.1875 183.10546875 350.09765625 c 0,33,-1
 109.86328125 0 l 0,34,-1
 18.06640625 0 l 0,35,-1
 155.76171875 667.96875 l 0,36,-1
 66.89453125 676.7578125 l 0,37,-1
 66.89453125 707.03125 l 0,38,-1
 223.14453125 736.81640625 l 0,39,-1
 263.18359375 736.81640625 l 0,40,-1
 195.80078125 414.0625 l 0,41,42
 210.9375 430.6640625 210.9375 430.6640625 231.689453125 445.3125 c 0,43,44
 252.44140625 459.9609375 252.44140625 459.9609375 276.123046875 470.947265625 c 0,45,46
 299.8046875 481.93359375 299.8046875 481.93359375 325.439453125 488.037109375 c 0,47,48
 351.07421875 494.140625 351.07421875 494.140625 375.9765625 494.140625 c 0,49,50
 403.3203125 494.140625 403.3203125 494.140625 424.31640625 485.595703125 c 0,51,52
 445.3125 477.05078125 445.3125 477.05078125 458.251953125 460.205078125 c 0,53,54
 471.19140625 443.359375 471.19140625 443.359375 474.853515625 417.96875 c 0,55,56
 478.515625 392.578125 478.515625 392.578125 471.19140625 358.88671875 c 0,57,-1
 416.015625 89.84375 l 0,58,59
 413.0859375 75.68359375 413.0859375 75.68359375 417.48046875 66.162109375 c 0,60,61
 421.875 56.640625 421.875 56.640625 429.443359375 51.025390625 c 0,62,63
 437.01171875 45.41015625 437.01171875 45.41015625 445.3125 43.212890625 c 0,64,65
 453.61328125 41.015625 453.61328125 41.015625 458.0078125 41.015625 c 0,66,67
 471.6796875 41.015625 471.6796875 41.015625 487.79296875 47.8515625 c 0,68,69
 503.90625 54.6875 503.90625 54.6875 520.99609375 60.05859375 c 0,70,-1
 521.97265625 24.90234375 l 0,0,1
EndSplineSet
EndChar

StartChar: i
Encoding: 76 105 76
Width: 266
VWidth: 488
Flags: W
LayerCount: 2
Fore
SplineSet
258.7890625 641.11328125 m 0,0,1
 258.7890625 629.8828125 258.7890625 629.8828125 254.638671875 619.873046875 c 0,2,3
 250.48828125 609.86328125 250.48828125 609.86328125 242.919921875 602.05078125 c 0,4,5
 235.3515625 594.23828125 235.3515625 594.23828125 224.12109375 589.599609375 c 0,6,7
 212.890625 584.9609375 212.890625 584.9609375 198.2421875 584.9609375 c 0,8,9
 167.48046875 584.9609375 167.48046875 584.9609375 151.85546875 601.318359375 c 0,10,11
 136.23046875 617.67578125 136.23046875 617.67578125 136.23046875 641.11328125 c 0,12,13
 136.23046875 650.87890625 136.23046875 650.87890625 140.380859375 660.64453125 c 0,14,15
 144.53125 670.41015625 144.53125 670.41015625 152.587890625 678.466796875 c 0,16,17
 160.64453125 686.5234375 160.64453125 686.5234375 172.36328125 691.650390625 c 0,18,19
 184.08203125 696.77734375 184.08203125 696.77734375 199.21875 696.77734375 c 0,20,21
 213.37890625 696.77734375 213.37890625 696.77734375 224.365234375 691.89453125 c 0,22,23
 235.3515625 687.01171875 235.3515625 687.01171875 243.1640625 679.19921875 c 0,24,25
 250.9765625 671.38671875 250.9765625 671.38671875 254.8828125 661.376953125 c 0,26,27
 258.7890625 651.3671875 258.7890625 651.3671875 258.7890625 641.11328125 c 0,0,1
263.18359375 28.80859375 m 0,28,29
 257.32421875 26.3671875 257.32421875 26.3671875 241.69921875 19.53125 c 0,30,31
 226.07421875 12.6953125 226.07421875 12.6953125 205.078125 5.615234375 c 0,32,33
 184.08203125 -1.46484375 184.08203125 -1.46484375 160.888671875 -6.8359375 c 0,34,35
 137.6953125 -12.20703125 137.6953125 -12.20703125 117.1875 -12.20703125 c 0,36,37
 91.30859375 -12.20703125 91.30859375 -12.20703125 76.171875 -3.41796875 c 0,38,39
 61.03515625 5.37109375 61.03515625 5.37109375 53.7109375 19.53125 c 0,40,41
 46.38671875 33.69140625 46.38671875 33.69140625 45.41015625 51.26953125 c 0,42,43
 44.43359375 68.84765625 44.43359375 68.84765625 47.8515625 85.9375 c 0,44,-1
 111.81640625 424.8046875 l 0,45,-1
 25.87890625 434.08203125 l 0,46,-1
 25.87890625 462.890625 l 0,47,-1
 176.7578125 494.140625 l 0,48,-1
 217.7734375 494.140625 l 0,49,-1
 142.08984375 94.23828125 l 0,50,51
 140.13671875 83.984375 140.13671875 83.984375 142.333984375 74.70703125 c 0,52,53
 144.53125 65.4296875 144.53125 65.4296875 149.658203125 58.349609375 c 0,54,55
 154.78515625 51.26953125 154.78515625 51.26953125 162.841796875 47.119140625 c 0,56,57
 170.8984375 42.96875 170.8984375 42.96875 181.15234375 42.96875 c 0,58,59
 189.94140625 42.96875 189.94140625 42.96875 201.904296875 46.142578125 c 0,60,61
 213.8671875 49.31640625 213.8671875 49.31640625 225.830078125 53.466796875 c 0,62,63
 237.79296875 57.6171875 237.79296875 57.6171875 248.046875 61.5234375 c 0,64,65
 258.30078125 65.4296875 258.30078125 65.4296875 263.18359375 66.89453125 c 0,66,-1
 263.18359375 28.80859375 l 0,28,29
EndSplineSet
EndChar

StartChar: j
Encoding: 77 106 77
Width: 272
VWidth: 488
Flags: W
LayerCount: 2
Fore
SplineSet
266.11328125 641.11328125 m 0,0,1
 266.11328125 632.32421875 266.11328125 632.32421875 261.71875 622.314453125 c 0,2,3
 257.32421875 612.3046875 257.32421875 612.3046875 249.0234375 604.00390625 c 0,4,5
 240.72265625 595.703125 240.72265625 595.703125 229.248046875 590.33203125 c 0,6,7
 217.7734375 584.9609375 217.7734375 584.9609375 204.1015625 584.9609375 c 0,8,9
 176.7578125 584.9609375 176.7578125 584.9609375 159.423828125 600.830078125 c 0,10,11
 142.08984375 616.69921875 142.08984375 616.69921875 142.08984375 641.11328125 c 0,12,13
 142.08984375 652.34375 142.08984375 652.34375 145.751953125 662.59765625 c 0,14,15
 149.4140625 672.8515625 149.4140625 672.8515625 157.2265625 680.908203125 c 0,16,17
 165.0390625 688.96484375 165.0390625 688.96484375 176.7578125 693.603515625 c 0,18,19
 188.4765625 698.2421875 188.4765625 698.2421875 204.1015625 698.2421875 c 0,20,21
 219.23828125 698.2421875 219.23828125 698.2421875 230.712890625 693.603515625 c 0,22,23
 242.1875 688.96484375 242.1875 688.96484375 250 680.908203125 c 0,24,25
 257.8125 672.8515625 257.8125 672.8515625 261.962890625 662.59765625 c 0,26,27
 266.11328125 652.34375 266.11328125 652.34375 266.11328125 641.11328125 c 0,0,1
160.15625 80.078125 m 0,28,29
 155.76171875 55.17578125 155.76171875 55.17578125 146.97265625 22.4609375 c 0,30,31
 138.18359375 -10.25390625 138.18359375 -10.25390625 124.755859375 -44.677734375 c 0,32,33
 111.328125 -79.1015625 111.328125 -79.1015625 93.017578125 -112.060546875 c 0,34,35
 74.70703125 -145.01953125 74.70703125 -145.01953125 51.26953125 -171.142578125 c 0,36,37
 27.83203125 -197.265625 27.83203125 -197.265625 -0.48828125 -213.134765625 c 0,38,39
 -28.80859375 -229.00390625 -28.80859375 -229.00390625 -62.01171875 -229.00390625 c 0,40,41
 -93.75 -229.00390625 -93.75 -229.00390625 -111.328125 -213.8671875 c 0,42,43
 -128.90625 -198.73046875 -128.90625 -198.73046875 -128.90625 -175.78125 c 0,44,45
 -128.90625 -166.50390625 -128.90625 -166.50390625 -125.9765625 -159.1796875 c 0,46,47
 -123.046875 -151.85546875 -123.046875 -151.85546875 -118.65234375 -146.484375 c 0,48,49
 -114.2578125 -141.11328125 -114.2578125 -141.11328125 -109.619140625 -137.20703125 c 0,50,51
 -104.98046875 -133.30078125 -104.98046875 -133.30078125 -101.07421875 -130.859375 c 0,52,-1
 -0.9765625 -158.203125 l 0,53,54
 6.34765625 -150.390625 6.34765625 -150.390625 13.916015625 -134.27734375 c 0,55,56
 21.484375 -118.1640625 21.484375 -118.1640625 28.80859375 -97.900390625 c 0,57,58
 36.1328125 -77.63671875 36.1328125 -77.63671875 41.9921875 -55.17578125 c 0,59,60
 47.8515625 -32.71484375 47.8515625 -32.71484375 51.7578125 -12.20703125 c 0,61,-1
 126.953125 424.8046875 l 0,62,-1
 42.96875 434.08203125 l 0,63,-1
 42.96875 462.890625 l 0,64,-1
 193.84765625 494.140625 l 0,65,-1
 230.95703125 494.140625 l 0,66,-1
 160.15625 80.078125 l 0,28,29
EndSplineSet
EndChar

StartChar: k
Encoding: 78 107 78
Width: 508
VWidth: 488
Flags: W
LayerCount: 2
Fore
SplineSet
497.0703125 22.94921875 m 0,0,1
 484.375 16.6015625 484.375 16.6015625 468.017578125 10.25390625 c 0,2,3
 451.66015625 3.90625 451.66015625 3.90625 434.5703125 -0.9765625 c 0,4,5
 417.48046875 -5.859375 417.48046875 -5.859375 401.123046875 -9.033203125 c 0,6,7
 384.765625 -12.20703125 384.765625 -12.20703125 373.046875 -12.20703125 c 0,8,9
 360.83984375 -12.20703125 360.83984375 -12.20703125 349.12109375 -8.056640625 c 0,10,11
 337.40234375 -3.90625 337.40234375 -3.90625 326.904296875 2.685546875 c 0,12,13
 316.40625 9.27734375 316.40625 9.27734375 307.6171875 17.822265625 c 0,14,15
 298.828125 26.3671875 298.828125 26.3671875 292.96875 35.15625 c 0,16,17
 286.1328125 45.41015625 286.1328125 45.41015625 277.587890625 61.767578125 c 0,18,19
 269.04296875 78.125 269.04296875 78.125 259.521484375 97.65625 c 0,20,21
 250 117.1875 250 117.1875 240.234375 138.427734375 c 0,22,23
 230.46875 159.66796875 230.46875 159.66796875 221.435546875 179.443359375 c 0,24,25
 212.40234375 199.21875 212.40234375 199.21875 204.833984375 216.30859375 c 0,26,27
 197.265625 233.3984375 197.265625 233.3984375 191.89453125 244.140625 c 0,28,-1
 145.99609375 203.125 l 0,29,-1
 104.98046875 0 l 0,30,-1
 13.18359375 0 l 0,31,-1
 145.99609375 667.96875 l 0,32,-1
 58.10546875 676.7578125 l 0,33,-1
 58.10546875 707.03125 l 0,34,-1
 212.890625 736.81640625 l 0,35,-1
 252.9296875 736.81640625 l 0,36,-1
 160.15625 271.97265625 l 0,37,-1
 321.77734375 438.96484375 l 0,38,39
 335.9375 453.61328125 335.9375 453.61328125 347.65625 464.111328125 c 0,40,41
 359.375 474.609375 359.375 474.609375 370.361328125 481.201171875 c 0,42,43
 381.34765625 487.79296875 381.34765625 487.79296875 392.578125 490.966796875 c 0,44,45
 403.80859375 494.140625 403.80859375 494.140625 416.9921875 494.140625 c 0,46,47
 433.59375 494.140625 433.59375 494.140625 446.044921875 489.2578125 c 0,48,49
 458.49609375 484.375 458.49609375 484.375 466.552734375 476.5625 c 0,50,51
 474.609375 468.75 474.609375 468.75 478.515625 458.984375 c 0,52,53
 482.421875 449.21875 482.421875 449.21875 481.93359375 439.94140625 c 0,54,55
 481.93359375 422.8515625 481.93359375 422.8515625 466.064453125 404.541015625 c 0,56,57
 450.1953125 386.23046875 450.1953125 386.23046875 415.0390625 374.0234375 c 0,58,-1
 380.859375 410.15625 l 0,59,60
 367.1875 399.4140625 367.1875 399.4140625 351.318359375 386.23046875 c 0,61,62
 335.44921875 373.046875 335.44921875 373.046875 319.3359375 359.375 c 0,63,64
 303.22265625 345.703125 303.22265625 345.703125 288.57421875 332.51953125 c 0,65,66
 273.92578125 319.3359375 273.92578125 319.3359375 262.20703125 309.08203125 c 0,67,68
 268.5546875 296.38671875 268.5546875 296.38671875 276.123046875 277.34375 c 0,69,70
 283.69140625 258.30078125 283.69140625 258.30078125 292.236328125 236.572265625 c 0,71,72
 300.78125 214.84375 300.78125 214.84375 310.791015625 192.138671875 c 0,73,74
 320.80078125 169.43359375 320.80078125 169.43359375 332.03125 148.92578125 c 0,75,76
 343.26171875 127.9296875 343.26171875 127.9296875 355.712890625 108.642578125 c 0,77,78
 368.1640625 89.35546875 368.1640625 89.35546875 381.34765625 74.462890625 c 0,79,80
 394.53125 59.5703125 394.53125 59.5703125 408.203125 50.78125 c 0,81,82
 421.875 41.9921875 421.875 41.9921875 435.05859375 41.9921875 c 0,83,84
 440.4296875 41.9921875 440.4296875 41.9921875 448.2421875 43.212890625 c 0,85,86
 456.0546875 44.43359375 456.0546875 44.43359375 464.84375 46.38671875 c 0,87,88
 473.6328125 48.33984375 473.6328125 48.33984375 482.177734375 51.26953125 c 0,89,90
 490.72265625 54.19921875 490.72265625 54.19921875 497.0703125 57.12890625 c 0,91,-1
 497.0703125 22.94921875 l 0,0,1
EndSplineSet
EndChar

StartChar: l
Encoding: 79 108 79
Width: 265
VWidth: 488
Flags: W
LayerCount: 2
Fore
SplineSet
263.18359375 25.87890625 m 0,0,1
 257.32421875 23.4375 257.32421875 23.4375 241.2109375 17.333984375 c 0,2,3
 225.09765625 11.23046875 225.09765625 11.23046875 205.078125 4.638671875 c 0,4,5
 185.05859375 -1.953125 185.05859375 -1.953125 163.330078125 -7.080078125 c 0,6,7
 141.6015625 -12.20703125 141.6015625 -12.20703125 124.0234375 -12.20703125 c 0,8,9
 101.07421875 -12.20703125 101.07421875 -12.20703125 84.9609375 -6.8359375 c 0,10,11
 68.84765625 -1.46484375 68.84765625 -1.46484375 58.59375 8.30078125 c 0,12,13
 48.33984375 18.06640625 48.33984375 18.06640625 43.701171875 31.494140625 c 0,14,15
 39.0625 44.921875 39.0625 44.921875 39.0625 61.03515625 c 0,16,17
 39.0625 76.171875 39.0625 76.171875 41.9921875 96.19140625 c 0,18,-1
 151.85546875 667.96875 l 0,19,-1
 62.98828125 676.7578125 l 0,20,-1
 62.98828125 707.03125 l 0,21,-1
 219.23828125 736.81640625 l 0,22,-1
 257.8125 736.81640625 l 0,23,-1
 136.23046875 99.12109375 l 0,24,25
 134.27734375 88.8671875 134.27734375 88.8671875 137.20703125 78.857421875 c 0,26,27
 140.13671875 68.84765625 140.13671875 68.84765625 146.484375 61.279296875 c 0,28,29
 152.83203125 53.7109375 152.83203125 53.7109375 162.109375 48.828125 c 0,30,31
 171.38671875 43.9453125 171.38671875 43.9453125 182.12890625 43.9453125 c 0,32,33
 189.453125 43.9453125 189.453125 43.9453125 201.416015625 46.630859375 c 0,34,35
 213.37890625 49.31640625 213.37890625 49.31640625 225.5859375 52.734375 c 0,36,37
 237.79296875 56.15234375 237.79296875 56.15234375 248.291015625 59.5703125 c 0,38,39
 258.7890625 62.98828125 258.7890625 62.98828125 263.18359375 63.96484375 c 0,40,-1
 263.18359375 25.87890625 l 0,0,1
EndSplineSet
EndChar

